font.ufo
<glyph name="exclam" format="1">
  <advance width="286"/>
  <unicode hex="0021"/>
  <outline>
    <contour>
      <point x="85" y="682" type="line"/>
      <point x="99" y="196" type="line"/>
      <point x="187" y="196" type="line"/>
      <point x="201" y="682" type="line"/>
    </contour>
    <contour>
      <point x="81" y="53" type="curve" smooth="yes"/>
      <point x="81" y="17"/>
      <point x="97" y="-8"/>
      <point x="144" y="-8" type="curve" smooth="yes"/>
      <point x="190" y="-8"/>
      <point x="206" y="17"/>
      <point x="206" y="53" type="curve" smooth="yes"/>
      <point x="206" y="89"/>
      <point x="190" y="114"/>
      <point x="144" y="114" type="curve" smooth="yes"/>
      <point x="97" y="114"/>
      <point x="81" y="89"/>
    </contour>
  </outline>
</glyph>
<glyph name="quotedbl" format="1">
  <advance width="414"/>
  <unicode hex="0022"/>
  <outline>
    <contour>
      <point x="234" y="760" type="line"/>
      <point x="234" y="522" type="line"/>
      <point x="329" y="522" type="line"/>
      <point x="329" y="760" type="line"/>
    </contour>
    <contour>
      <point x="82" y="760" type="line"/>
      <point x="82" y="522" type="line"/>
      <point x="177" y="522" type="line"/>
      <point x="177" y="760" type="line"/>
    </contour>
  </outline>
</glyph>
<glyph name="numbersign" format="1">
  <advance width="577"/>
  <unicode hex="0023"/>
  <outline>
    <contour>
      <point x="398" y="672" type="line"/>
      <point x="302" y="0" type="line"/>
      <point x="396" y="0" type="line"/>
      <point x="493" y="672" type="line"/>
    </contour>
    <contour>
      <point x="37" y="259" type="line"/>
      <point x="37" y="175" type="line"/>
      <point x="506" y="175" type="line"/>
      <point x="506" y="259" type="line"/>
    </contour>
    <contour>
      <point x="184" y="672" type="line"/>
      <point x="87" y="0" type="line"/>
      <point x="182" y="0" type="line"/>
      <point x="279" y="672" type="line"/>
    </contour>
    <contour>
      <point x="72" y="497" type="line"/>
      <point x="72" y="413" type="line"/>
      <point x="541" y="413" type="line"/>
      <point x="541" y="497" type="line"/>
    </contour>
  </outline>
</glyph>
<glyph name="ampersand" format="1">
  <advance width="479"/>
  <unicode hex="0026"/>
  <outline>
    <contour>
      <point x="55" y="529" type="curve"/>
      <point x="55" y="472" type="line" smooth="yes"/>
      <point x="55" y="411"/>
      <point x="81" y="371"/>
      <point x="127" y="355" type="curve"/>
      <point x="79" y="339"/>
      <point x="53" y="299"/>
      <point x="53" y="238" type="curve" smooth="yes"/>
      <point x="53" y="160" type="line" smooth="yes"/>
      <point x="53" y="63"/>
      <point x="111" y="-8"/>
      <point x="239" y="-8" type="curve" smooth="yes"/>
      <point x="367" y="-8"/>
      <point x="422" y="63"/>
      <point x="422" y="160" type="curve" smooth="yes"/>
      <point x="422" y="461" type="line"/>
      <point x="318" y="461" type="line"/>
      <point x="318" y="163" type="line" smooth="yes"/>
      <point x="318" y="118"/>
      <point x="296" y="88"/>
      <point x="239" y="88" type="curve" smooth="yes"/>
      <point x="182" y="88"/>
      <point x="161" y="118"/>
      <point x="161" y="163" type="curve" smooth="yes"/>
      <point x="161" y="232" type="line" smooth="yes"/>
      <point x="161" y="278"/>
      <point x="180" y="306"/>
      <point x="233" y="306" type="curve" smooth="yes"/>
      <point x="468" y="306" type="line"/>
      <point x="468" y="399" type="line"/>
      <point x="233" y="399" type="line" smooth="yes"/>
      <point x="179" y="399"/>
      <point x="163" y="426"/>
      <point x="163" y="474" type="curve" smooth="yes"/>
      <point x="163" y="519" type="line" smooth="yes"/>
      <point x="163" y="560"/>
      <point x="182" y="588"/>
      <point x="263" y="588" type="curve" smooth="yes"/>
      <point x="313" y="588"/>
      <point x="354" y="581"/>
      <point x="387" y="569" type="curve"/>
      <point x="387" y="671" type="line"/>
      <point x="360" y="680"/>
      <point x="316" y="687"/>
      <point x="261" y="687" type="curve" smooth="yes"/>
      <point x="117" y="687"/>
      <point x="55" y="624"/>
    </contour>
  </outline>
</glyph>
<glyph name="quotesingle" format="1">
  <advance width="265"/>
  <unicode hex="0027"/>
  <outline>
    <contour>
      <point x="82" y="760" type="line"/>
      <point x="82" y="522" type="line"/>
      <point x="182" y="522" type="line"/>
      <point x="182" y="760" type="line"/>
    </contour>
  </outline>
</glyph>
<glyph name="parenleft" format="1">
  <advance width="318"/>
  <unicode hex="0028"/>
  <outline>
    <contour>
      <point x="168" y="815" type="line"/>
      <point x="112" y="696"/>
      <point x="66" y="513"/>
      <point x="66" y="330" type="curve" smooth="yes"/>
      <point x="66" y="148"/>
      <point x="112" y="-36"/>
      <point x="168" y="-154" type="curve"/>
      <point x="262" y="-154" type="line"/>
      <point x="207" y="-32"/>
      <point x="160" y="148"/>
      <point x="160" y="330" type="curve" smooth="yes"/>
      <point x="160" y="513"/>
      <point x="207" y="692"/>
      <point x="262" y="815" type="curve"/>
    </contour>
  </outline>
</glyph>
<glyph name="parenright" format="1">
  <advance width="318"/>
  <unicode hex="0029"/>
  <outline>
    <contour>
      <point x="55" y="815" type="line"/>
      <point x="110" y="692"/>
      <point x="157" y="513"/>
      <point x="157" y="330" type="curve" smooth="yes"/>
      <point x="157" y="148"/>
      <point x="110" y="-32"/>
      <point x="55" y="-154" type="curve"/>
      <point x="150" y="-154" type="line"/>
      <point x="205" y="-36"/>
      <point x="251" y="148"/>
      <point x="251" y="330" type="curve" smooth="yes"/>
      <point x="251" y="513"/>
      <point x="205" y="696"/>
      <point x="150" y="815" type="curve"/>
    </contour>
  </outline>
</glyph>
<glyph name="asterisk" format="1">
  <advance width="524"/>
  <unicode hex="002A"/>
  <outline>
    <contour>
      <point x="291" y="472" type="curve" smooth="yes"/>
      <point x="348" y="396" type="line"/>
      <point x="427" y="454" type="line"/>
      <point x="371" y="530" type="line" smooth="yes"/>
      <point x="312" y="611"/>
      <point x="262" y="597"/>
      <point x="262" y="597" type="curve"/>
      <point x="262" y="597"/>
      <point x="233" y="554"/>
    </contour>
    <contour>
      <point x="153" y="531" type="curve" smooth="yes"/>
      <point x="97" y="454" type="line"/>
      <point x="177" y="396" type="line"/>
      <point x="233" y="473" type="line" smooth="yes"/>
      <point x="292" y="554"/>
      <point x="262" y="597"/>
      <point x="262" y="597" type="curve"/>
      <point x="262" y="597"/>
      <point x="212" y="611"/>
    </contour>
    <contour>
      <point x="44" y="616" type="line"/>
      <point x="135" y="587" type="line" smooth="yes"/>
      <point x="230" y="555"/>
      <point x="262" y="597"/>
      <point x="262" y="597" type="curve"/>
      <point x="262" y="597"/>
      <point x="260" y="649"/>
      <point x="165" y="680" type="curve" smooth="yes"/>
      <point x="74" y="709" type="line"/>
    </contour>
    <contour>
      <point x="213" y="810" type="line"/>
      <point x="213" y="715" type="line"/>
      <point x="213" y="614"/>
      <point x="262" y="597"/>
      <point x="262" y="597" type="curve"/>
      <point x="262" y="597"/>
      <point x="311" y="615"/>
      <point x="311" y="715" type="curve"/>
      <point x="311" y="810" type="line"/>
    </contour>
    <contour>
      <point x="359" y="680" type="line"/>
      <point x="264" y="649"/>
      <point x="262" y="597"/>
      <point x="262" y="597" type="curve"/>
      <point x="262" y="597"/>
      <point x="294" y="555"/>
      <point x="390" y="587" type="curve" smooth="yes"/>
      <point x="480" y="616" type="line"/>
      <point x="450" y="710" type="line"/>
    </contour>
  </outline>
</glyph>
<glyph name="plus" format="1">
  <advance width="471"/>
  <unicode hex="002B"/>
  <outline>
    <contour>
      <point x="185" y="520" type="line"/>
      <point x="185" y="136" type="line"/>
      <point x="285" y="136" type="line"/>
      <point x="285" y="520" type="line"/>
    </contour>
    <contour>
      <point x="43" y="374" type="line"/>
      <point x="43" y="282" type="line"/>
      <point x="427" y="282" type="line"/>
      <point x="427" y="374" type="line"/>
    </contour>
  </outline>
</glyph>
<glyph name="comma" format="1">
  <advance width="181"/>
  <unicode hex="002C"/>
  <outline>
    <contour>
      <point x="54" y="113" type="line"/>
      <point x="10" y="-129" type="line"/>
      <point x="70" y="-129" type="line"/>
      <point x="96" y="-88"/>
      <point x="156" y="18"/>
      <point x="156" y="69" type="curve" smooth="yes"/>
      <point x="156" y="98"/>
      <point x="140" y="113"/>
      <point x="108" y="113" type="curve" smooth="yes"/>
    </contour>
  </outline>
</glyph>
<glyph name="hyphen" format="1">
  <advance width="267"/>
  <unicode hex="002D"/>
  <outline>
    <contour>
      <point x="41" y="374" type="line"/>
      <point x="41" y="282" type="line"/>
      <point x="232" y="282" type="line"/>
      <point x="232" y="374" type="line"/>
    </contour>
  </outline>
</glyph>
<glyph name="period" format="1">
  <advance width="196"/>
  <unicode hex="002E"/>
  <outline>
    <contour>
      <point x="35" y="53" type="curve" smooth="yes"/>
      <point x="35" y="17"/>
      <point x="50" y="-8"/>
      <point x="97" y="-8" type="curve" smooth="yes"/>
      <point x="143" y="-8"/>
      <point x="159" y="17"/>
      <point x="159" y="53" type="curve" smooth="yes"/>
      <point x="159" y="89"/>
      <point x="143" y="114"/>
      <point x="97" y="114" type="curve" smooth="yes"/>
      <point x="50" y="114"/>
      <point x="35" y="89"/>
    </contour>
  </outline>
</glyph>
<glyph name="slash" format="1">
  <advance width="416"/>
  <unicode hex="002F"/>
  <outline>
    <contour>
      <point x="297" y="815" type="line"/>
      <point x="34" y="-154" type="line"/>
      <point x="130" y="-154" type="line"/>
      <point x="392" y="815" type="line"/>
    </contour>
  </outline>
</glyph>
<glyph name="one" format="1">
  <advance width="298"/>
  <unicode hex="0031"/>
  <outline>
    <contour>
      <point x="136" y="682" type="line"/>
      <point x="13" y="591" type="line"/>
      <point x="13" y="471" type="line"/>
      <point x="131" y="558" type="line"/>
      <point x="131" y="0" type="line"/>
      <point x="240" y="0" type="line"/>
      <point x="240" y="682" type="line"/>
    </contour>
  </outline>
</glyph>
<glyph name="four" format="1">
  <advance width="432"/>
  <unicode hex="0034"/>
  <outline>
    <contour>
      <point x="213" y="682" type="line"/>
      <point x="10" y="221" type="line"/>
      <point x="10" y="122" type="line"/>
      <point x="427" y="122" type="line"/>
      <point x="427" y="217" type="line"/>
      <point x="105" y="217" type="line"/>
      <point x="307" y="682" type="line"/>
    </contour>
    <contour>
      <point x="261" y="682" type="line"/>
      <point x="261" y="206" type="line"/>
      <point x="258" y="195" type="line"/>
      <point x="258" y="0" type="line"/>
      <point x="361" y="0" type="line"/>
      <point x="361" y="682" type="line"/>
    </contour>
  </outline>
</glyph>
<glyph name="seven" format="1">
  <advance width="356"/>
  <unicode hex="0037"/>
  <outline>
    <contour>
      <point x="5" y="682" type="line"/>
      <point x="5" y="582" type="line"/>
      <point x="217" y="582" type="line"/>
      <point x="152" y="376" type="line"/>
      <point x="125" y="295"/>
      <point x="106" y="212"/>
      <point x="106" y="109" type="curve"/>
      <point x="106" y="0" type="line"/>
      <point x="216" y="0" type="line"/>
      <point x="216" y="101" type="line"/>
      <point x="216" y="205"/>
      <point x="233" y="278"/>
      <point x="260" y="361" type="curve"/>
      <point x="336" y="595" type="line"/>
      <point x="336" y="682" type="line"/>
    </contour>
  </outline>
</glyph>
<glyph name="eight" format="1">
  <advance width="465"/>
  <unicode hex="0038"/>
  <outline>
    <contour>
      <point x="49" y="528" type="curve" smooth="yes"/>
      <point x="49" y="460" type="line" smooth="yes"/>
      <point x="49" y="362"/>
      <point x="104" y="313"/>
      <point x="232" y="313" type="curve" smooth="yes"/>
      <point x="360" y="313"/>
      <point x="416" y="362"/>
      <point x="416" y="460" type="curve" smooth="yes"/>
      <point x="416" y="528" type="line" smooth="yes"/>
      <point x="416" y="625"/>
      <point x="360" y="692"/>
      <point x="232" y="692" type="curve" smooth="yes"/>
      <point x="104" y="692"/>
      <point x="49" y="625"/>
    </contour>
    <contour>
      <point x="48" y="220" type="curve" smooth="yes"/>
      <point x="48" y="154" type="line" smooth="yes"/>
      <point x="48" y="56"/>
      <point x="104" y="-10"/>
      <point x="232" y="-10" type="curve" smooth="yes"/>
      <point x="360" y="-10"/>
      <point x="417" y="56"/>
      <point x="417" y="154" type="curve" smooth="yes"/>
      <point x="417" y="220" type="line" smooth="yes"/>
      <point x="417" y="317"/>
      <point x="360" y="366"/>
      <point x="232" y="366" type="curve" smooth="yes"/>
      <point x="104" y="366"/>
      <point x="48" y="317"/>
    </contour>
    <contour>
      <point x="310" y="222" type="curve" smooth="yes"/>
      <point x="310" y="155" type="line" smooth="yes"/>
      <point x="310" y="110"/>
      <point x="289" y="84"/>
      <point x="232" y="84" type="curve" smooth="yes"/>
      <point x="175" y="84"/>
      <point x="154" y="111"/>
      <point x="154" y="155" type="curve" smooth="yes"/>
      <point x="154" y="222" type="line" smooth="yes"/>
      <point x="154" y="267"/>
      <point x="175" y="297"/>
      <point x="232" y="297" type="curve" smooth="yes"/>
      <point x="289" y="297"/>
      <point x="310" y="267"/>
    </contour>
    <contour>
      <point x="309" y="526" type="curve" smooth="yes"/>
      <point x="309" y="457" type="line" smooth="yes"/>
      <point x="309" y="412"/>
      <point x="289" y="382"/>
      <point x="232" y="382" type="curve" smooth="yes"/>
      <point x="175" y="382"/>
      <point x="156" y="413"/>
      <point x="156" y="457" type="curve" smooth="yes"/>
      <point x="156" y="526" type="line" smooth="yes"/>
      <point x="156" y="571"/>
      <point x="175" y="598"/>
      <point x="232" y="598" type="curve" smooth="yes"/>
      <point x="289" y="598"/>
      <point x="309" y="571"/>
    </contour>
  </outline>
</glyph>
<glyph name="nine" format="1">
  <advance width="448"/>
  <unicode hex="0039"/>
  <outline>
    <contour>
      <point x="38" y="524" type="curve" smooth="yes"/>
      <point x="38" y="390" type="line" smooth="yes"/>
      <point x="38" y="293"/>
      <point x="92" y="236"/>
      <point x="193" y="236" type="curve" smooth="yes"/>
      <point x="236" y="236"/>
      <point x="270" y="242"/>
      <point x="292" y="253" type="curve"/>
      <point x="292" y="165" type="line" smooth="yes"/>
      <point x="292" y="125"/>
      <point x="269" y="94"/>
      <point x="198" y="94" type="curve" smooth="yes"/>
      <point x="143" y="94"/>
      <point x="94" y="105"/>
      <point x="61" y="118" type="curve"/>
      <point x="61" y="15" type="line"/>
      <point x="83" y="7"/>
      <point x="136" y="-5"/>
      <point x="200" y="-5" type="curve" smooth="yes"/>
      <point x="338" y="-5"/>
      <point x="400" y="60"/>
      <point x="400" y="155" type="curve"/>
      <point x="400" y="524" type="line"/>
      <point x="400" y="621"/>
      <point x="347" y="692"/>
      <point x="220" y="692" type="curve" smooth="yes"/>
      <point x="92" y="692"/>
      <point x="38" y="621"/>
    </contour>
    <contour>
      <point x="292" y="522" type="curve"/>
      <point x="292" y="347" type="line"/>
      <point x="280" y="339"/>
      <point x="250" y="330"/>
      <point x="216" y="330" type="curve" smooth="yes"/>
      <point x="171" y="330"/>
      <point x="146" y="353"/>
      <point x="146" y="400" type="curve" smooth="yes"/>
      <point x="146" y="522" type="line" smooth="yes"/>
      <point x="146" y="567"/>
      <point x="163" y="596"/>
      <point x="220" y="596" type="curve" smooth="yes"/>
      <point x="276" y="596"/>
      <point x="292" y="566"/>
    </contour>
  </outline>
</glyph>
<glyph name="colon" format="1">
  <advance width="228"/>
  <unicode hex="003A"/>
  <outline>
    <contour>
      <point x="35" y="403" type="curve" smooth="yes"/>
      <point x="35" y="368"/>
      <point x="50" y="343"/>
      <point x="97" y="343" type="curve" smooth="yes"/>
      <point x="143" y="343"/>
      <point x="159" y="368"/>
      <point x="159" y="403" type="curve" smooth="yes"/>
      <point x="159" y="440"/>
      <point x="143" y="465"/>
      <point x="97" y="465" type="curve" smooth="yes"/>
      <point x="50" y="465"/>
      <point x="35" y="440"/>
    </contour>
    <contour>
      <point x="35" y="53" type="curve" smooth="yes"/>
      <point x="35" y="17"/>
      <point x="50" y="-8"/>
      <point x="97" y="-8" type="curve" smooth="yes"/>
      <point x="143" y="-8"/>
      <point x="159" y="17"/>
      <point x="159" y="53" type="curve" smooth="yes"/>
      <point x="159" y="89"/>
      <point x="143" y="114"/>
      <point x="97" y="114" type="curve" smooth="yes"/>
      <point x="50" y="114"/>
      <point x="35" y="89"/>
    </contour>
  </outline>
</glyph>
<glyph name="semicolon" format="1">
  <advance width="229"/>
  <unicode hex="003B"/>
  <outline>
    <contour>
      <point x="54" y="113" type="line"/>
      <point x="10" y="-129" type="line"/>
      <point x="70" y="-129" type="line"/>
      <point x="96" y="-88"/>
      <point x="156" y="18"/>
      <point x="156" y="69" type="curve" smooth="yes"/>
      <point x="156" y="98"/>
      <point x="140" y="113"/>
      <point x="108" y="113" type="curve" smooth="yes"/>
    </contour>
    <contour>
      <point x="35" y="403" type="curve" smooth="yes"/>
      <point x="35" y="368"/>
      <point x="50" y="343"/>
      <point x="97" y="343" type="curve" smooth="yes"/>
      <point x="143" y="343"/>
      <point x="159" y="368"/>
      <point x="159" y="403" type="curve" smooth="yes"/>
      <point x="159" y="440"/>
      <point x="143" y="465"/>
      <point x="97" y="465" type="curve" smooth="yes"/>
      <point x="50" y="465"/>
      <point x="35" y="440"/>
    </contour>
  </outline>
</glyph>
<glyph name="less" format="1">
  <advance width="484"/>
  <unicode hex="003C"/>
  <outline>
    <contour>
      <point x="38" y="379" type="line"/>
      <point x="38" y="295" type="line"/>
      <point x="428" y="426" type="line"/>
      <point x="428" y="523" type="line"/>
    </contour>
    <contour>
      <point x="38" y="277" type="line"/>
      <point x="428" y="133" type="line"/>
      <point x="428" y="230" type="line"/>
      <point x="38" y="361" type="line"/>
    </contour>
  </outline>
</glyph>
<glyph name="equal" format="1">
  <advance width="466"/>
  <unicode hex="003D"/>
  <outline>
    <contour>
      <point x="36" y="469" type="line"/>
      <point x="36" y="377" type="line"/>
      <point x="426" y="377" type="line"/>
      <point x="426" y="469" type="line"/>
    </contour>
    <contour>
      <point x="36" y="279" type="line"/>
      <point x="36" y="186" type="line"/>
      <point x="426" y="186" type="line"/>
      <point x="426" y="279" type="line"/>
    </contour>
  </outline>
</glyph>
<glyph name="greater" format="1">
  <advance width="481"/>
  <unicode hex="003E"/>
  <outline>
    <contour>
      <point x="48" y="426" type="line"/>
      <point x="439" y="295" type="line"/>
      <point x="439" y="379" type="line"/>
      <point x="48" y="523" type="line"/>
    </contour>
    <contour>
      <point x="48" y="230" type="line"/>
      <point x="48" y="133" type="line"/>
      <point x="439" y="277" type="line"/>
      <point x="439" y="361" type="line"/>
    </contour>
  </outline>
</glyph>
<glyph name="question" format="1">
  <advance width="400"/>
  <unicode hex="003F"/>
  <outline>
    <contour>
      <point x="31" y="675" type="curve"/>
      <point x="31" y="572" type="line"/>
      <point x="64" y="584"/>
      <point x="113" y="593"/>
      <point x="161" y="593" type="curve" smooth="yes"/>
      <point x="232" y="593"/>
      <point x="248" y="570"/>
      <point x="248" y="529" type="curve" smooth="yes"/>
      <point x="248" y="448" type="line" smooth="yes"/>
      <point x="248" y="397"/>
      <point x="224" y="372"/>
      <point x="157" y="372" type="curve" smooth="yes"/>
      <point x="100" y="372" type="line"/>
      <point x="105" y="196" type="line"/>
      <point x="195" y="196" type="line"/>
      <point x="201" y="289" type="line"/>
      <point x="316" y="290"/>
      <point x="354" y="352"/>
      <point x="354" y="446" type="curve" smooth="yes"/>
      <point x="354" y="538" type="line" smooth="yes"/>
      <point x="354" y="633"/>
      <point x="296" y="692"/>
      <point x="158" y="692" type="curve" smooth="yes"/>
      <point x="99" y="692"/>
      <point x="53" y="682"/>
    </contour>
    <contour>
      <point x="89" y="53" type="curve" smooth="yes"/>
      <point x="89" y="17"/>
      <point x="104" y="-8"/>
      <point x="151" y="-8" type="curve" smooth="yes"/>
      <point x="197" y="-8"/>
      <point x="213" y="17"/>
      <point x="213" y="53" type="curve" smooth="yes"/>
      <point x="213" y="89"/>
      <point x="197" y="114"/>
      <point x="151" y="114" type="curve" smooth="yes"/>
      <point x="104" y="114"/>
      <point x="89" y="89"/>
    </contour>
  </outline>
</glyph>
<glyph name="at" format="1">
  <advance width="885"/>
  <unicode hex="0040"/>
  <outline>
    <contour>
      <point x="66" y="279" type="curve" smooth="yes"/>
      <point x="66" y="36"/>
      <point x="150" y="-125"/>
      <point x="447" y="-125" type="curve" smooth="yes"/>
      <point x="536" y="-125" type="line"/>
      <point x="536" y="-40" type="line"/>
      <point x="448" y="-40" type="line" smooth="yes"/>
      <point x="202" y="-40"/>
      <point x="159" y="87"/>
      <point x="159" y="279" type="curve" smooth="yes"/>
      <point x="159" y="471"/>
      <point x="201" y="599"/>
      <point x="448" y="599" type="curve" smooth="yes"/>
      <point x="696" y="599"/>
      <point x="736" y="479"/>
      <point x="736" y="285" type="curve" smooth="yes"/>
      <point x="736" y="139"/>
      <point x="707" y="99"/>
      <point x="651" y="99" type="curve" smooth="yes"/>
      <point x="603" y="99"/>
      <point x="583" y="119"/>
      <point x="583" y="172" type="curve" smooth="yes"/>
      <point x="583" y="401" type="line" smooth="yes"/>
      <point x="583" y="478"/>
      <point x="541" y="521"/>
      <point x="442" y="521" type="curve" smooth="yes"/>
      <point x="393" y="521"/>
      <point x="347" y="512"/>
      <point x="320" y="505" type="curve"/>
      <point x="320" y="429" type="line"/>
      <point x="358" y="439"/>
      <point x="394" y="448"/>
      <point x="442" y="448" type="curve" smooth="yes"/>
      <point x="489" y="448"/>
      <point x="499" y="427"/>
      <point x="499" y="397" type="curve" smooth="yes"/>
      <point x="499" y="340" type="line"/>
      <point x="398" y="306" type="line" smooth="yes"/>
      <point x="335" y="284"/>
      <point x="300" y="252"/>
      <point x="300" y="184" type="curve" smooth="yes"/>
      <point x="300" y="163" type="line" smooth="yes"/>
      <point x="300" y="90"/>
      <point x="339" y="49"/>
      <point x="417" y="49" type="curve" smooth="yes"/>
      <point x="503" y="49"/>
      <point x="533" y="83"/>
      <point x="533" y="83" type="curve"/>
      <point x="504" y="114" type="line"/>
      <point x="517" y="53"/>
      <point x="568" y="18"/>
      <point x="646" y="18" type="curve" smooth="yes"/>
      <point x="758" y="18"/>
      <point x="828" y="85"/>
      <point x="828" y="285" type="curve" smooth="yes"/>
      <point x="828" y="529"/>
      <point x="747" y="684"/>
      <point x="448" y="684" type="curve" smooth="yes"/>
      <point x="154" y="684"/>
      <point x="66" y="522"/>
    </contour>
    <contour>
      <point x="499" y="140" type="line"/>
      <point x="499" y="140"/>
      <point x="472" y="121"/>
      <point x="434" y="121" type="curve" smooth="yes"/>
      <point x="400" y="121"/>
      <point x="386" y="133"/>
      <point x="386" y="163" type="curve" smooth="yes"/>
      <point x="386" y="186" type="line" smooth="yes"/>
      <point x="386" y="223"/>
      <point x="402" y="233"/>
      <point x="435" y="243" type="curve" smooth="yes"/>
      <point x="499" y="264" type="line"/>
    </contour>
  </outline>
</glyph>
<glyph name="A" format="1">
  <advance width="462"/>
  <unicode hex="0041"/>
  <outline>
    <contour>
      <point x="209" y="682" type="line"/>
      <point x="346" y="0" type="line"/>
      <point x="450" y="0" type="line"/>
      <point x="307" y="682" type="line"/>
    </contour>
    <contour>
      <point x="125" y="267" type="line"/>
      <point x="125" y="175" type="line"/>
      <point x="334" y="175" type="line"/>
      <point x="334" y="267" type="line"/>
    </contour>
    <contour>
      <point x="156" y="682" type="line"/>
      <point x="11" y="0" type="line"/>
      <point x="116" y="0" type="line"/>
      <point x="248" y="682" type="line"/>
    </contour>
  </outline>
</glyph>
<glyph name="B" format="1">
  <advance width="480"/>
  <unicode hex="0042"/>
  <outline>
    <contour>
      <point x="142" y="352" type="line"/>
      <point x="142" y="295" type="line"/>
      <point x="252" y="295" type="line" smooth="yes"/>
      <point x="303" y="295"/>
      <point x="325" y="272"/>
      <point x="325" y="226" type="curve" smooth="yes"/>
      <point x="325" y="161" type="line" smooth="yes"/>
      <point x="325" y="116"/>
      <point x="303" y="92"/>
      <point x="252" y="92" type="curve" smooth="yes"/>
      <point x="121" y="92" type="line"/>
      <point x="121" y="0" type="line"/>
      <point x="267" y="0" type="line" smooth="yes"/>
      <point x="374" y="0"/>
      <point x="432" y="52"/>
      <point x="432" y="155" type="curve" smooth="yes"/>
      <point x="432" y="220" type="line" smooth="yes"/>
      <point x="432" y="296"/>
      <point x="397" y="352"/>
      <point x="298" y="352" type="curve" smooth="yes"/>
    </contour>
    <contour>
      <point x="58" y="682" type="line"/>
      <point x="58" y="0" type="line"/>
      <point x="166" y="0" type="line"/>
      <point x="166" y="682" type="line"/>
    </contour>
    <contour>
      <point x="121" y="682" type="line"/>
      <point x="121" y="590" type="line"/>
      <point x="246" y="590" type="line" smooth="yes"/>
      <point x="297" y="590"/>
      <point x="319" y="566"/>
      <point x="319" y="521" type="curve" smooth="yes"/>
      <point x="319" y="460" type="line" smooth="yes"/>
      <point x="319" y="415"/>
      <point x="297" y="391"/>
      <point x="246" y="391" type="curve" smooth="yes"/>
      <point x="142" y="391" type="line"/>
      <point x="142" y="335" type="line"/>
      <point x="292" y="335" type="line" smooth="yes"/>
      <point x="391" y="335"/>
      <point x="426" y="390"/>
      <point x="426" y="466" type="curve" smooth="yes"/>
      <point x="426" y="526" type="line" smooth="yes"/>
      <point x="426" y="630"/>
      <point x="368" y="682"/>
      <point x="261" y="682" type="curve" smooth="yes"/>
    </contour>
  </outline>
</glyph>
<glyph name="C" format="1">
  <advance width="402"/>
  <unicode hex="0043"/>
  <outline>
    <contour>
      <point x="48" y="532" type="curve" smooth="yes"/>
      <point x="48" y="149" type="line" smooth="yes"/>
      <point x="48" y="54"/>
      <point x="109" y="-5"/>
      <point x="247" y="-5" type="curve" smooth="yes"/>
      <point x="295" y="-5"/>
      <point x="342" y="2"/>
      <point x="371" y="10" type="curve"/>
      <point x="371" y="108" type="line"/>
      <point x="339" y="99"/>
      <point x="293" y="93"/>
      <point x="249" y="93" type="curve" smooth="yes"/>
      <point x="178" y="93"/>
      <point x="157" y="118"/>
      <point x="157" y="158" type="curve" smooth="yes"/>
      <point x="157" y="523" type="line" smooth="yes"/>
      <point x="157" y="564"/>
      <point x="177" y="589"/>
      <point x="249" y="589" type="curve" smooth="yes"/>
      <point x="293" y="589"/>
      <point x="337" y="582"/>
      <point x="368" y="572" type="curve"/>
      <point x="368" y="672" type="line"/>
      <point x="339" y="680"/>
      <point x="295" y="687"/>
      <point x="248" y="687" type="curve" smooth="yes"/>
      <point x="110" y="687"/>
      <point x="48" y="627"/>
    </contour>
  </outline>
</glyph>
<glyph name="D" format="1">
  <advance width="478"/>
  <unicode hex="0044"/>
  <outline>
    <contour>
      <point x="58" y="682" type="line"/>
      <point x="58" y="0" type="line"/>
      <point x="271" y="0" type="line" smooth="yes"/>
      <point x="383" y="0"/>
      <point x="431" y="62"/>
      <point x="431" y="158" type="curve" smooth="yes"/>
      <point x="431" y="529" type="line" smooth="yes"/>
      <point x="431" y="625"/>
      <point x="373" y="682"/>
      <point x="265" y="682" type="curve" smooth="yes"/>
    </contour>
    <contour>
      <point x="323" y="526" type="curve"/>
      <point x="323" y="165" type="line" smooth="yes"/>
      <point x="323" y="124"/>
      <point x="307" y="94"/>
      <point x="253" y="94" type="curve" smooth="yes"/>
      <point x="166" y="94" type="line"/>
      <point x="166" y="591" type="line"/>
      <point x="253" y="591" type="line" smooth="yes"/>
      <point x="307" y="591"/>
      <point x="323" y="564"/>
    </contour>
  </outline>
</glyph>
<glyph name="E" format="1">
  <advance width="408"/>
  <unicode hex="0045"/>
  <outline>
    <contour>
      <point x="58" y="682" type="line"/>
      <point x="58" y="0" type="line"/>
      <point x="377" y="0" type="line"/>
      <point x="377" y="94" type="line"/>
      <point x="166" y="94" type="line"/>
      <point x="166" y="297" type="line"/>
      <point x="349" y="297" type="line"/>
      <point x="349" y="392" type="line"/>
      <point x="166" y="392" type="line"/>
      <point x="166" y="587" type="line"/>
      <point x="377" y="587" type="line"/>
      <point x="377" y="682" type="line"/>
    </contour>
  </outline>
</glyph>
<glyph name="F" format="1">
  <advance width="386"/>
  <unicode hex="0046"/>
  <outline>
    <contour>
      <point x="58" y="682" type="line"/>
      <point x="58" y="0" type="line"/>
      <point x="167" y="0" type="line"/>
      <point x="167" y="276" type="line"/>
      <point x="356" y="276" type="line"/>
      <point x="356" y="373" type="line"/>
      <point x="167" y="373" type="line"/>
      <point x="167" y="587" type="line"/>
      <point x="369" y="587" type="line"/>
      <point x="369" y="682" type="line"/>
    </contour>
  </outline>
</glyph>
<glyph name="G" format="1">
  <advance width="458"/>
  <unicode hex="0047"/>
  <outline>
    <contour>
      <point x="48" y="528" type="curve" smooth="yes"/>
      <point x="48" y="149" type="line" smooth="yes"/>
      <point x="48" y="46"/>
      <point x="118" y="-5"/>
      <point x="241" y="-5" type="curve" smooth="yes"/>
      <point x="333" y="-5"/>
      <point x="377" y="17"/>
      <point x="411" y="36" type="curve"/>
      <point x="411" y="350" type="line"/>
      <point x="305" y="350" type="line"/>
      <point x="305" y="107" type="line"/>
      <point x="296" y="102"/>
      <point x="271" y="92"/>
      <point x="240" y="92" type="curve" smooth="yes"/>
      <point x="181" y="92"/>
      <point x="157" y="114"/>
      <point x="157" y="158" type="curve" smooth="yes"/>
      <point x="157" y="517" type="line" smooth="yes"/>
      <point x="157" y="560"/>
      <point x="184" y="587"/>
      <point x="257" y="587" type="curve" smooth="yes"/>
      <point x="306" y="587"/>
      <point x="354" y="578"/>
      <point x="386" y="566" type="curve"/>
      <point x="386" y="669" type="line"/>
      <point x="359" y="678"/>
      <point x="309" y="687"/>
      <point x="256" y="687" type="curve" smooth="yes"/>
      <point x="114" y="687"/>
      <point x="48" y="623"/>
    </contour>
  </outline>
</glyph>
<glyph name="H" format="1">
  <advance width="512"/>
  <unicode hex="0048"/>
  <outline>
    <contour>
      <point x="345" y="682" type="line"/>
      <point x="345" y="0" type="line"/>
      <point x="455" y="0" type="line"/>
      <point x="455" y="682" type="line"/>
    </contour>
    <contour>
      <point x="58" y="682" type="line"/>
      <point x="58" y="0" type="line"/>
      <point x="167" y="0" type="line"/>
      <point x="167" y="682" type="line"/>
    </contour>
    <contour>
      <point x="154" y="383" type="line"/>
      <point x="154" y="287" type="line"/>
      <point x="358" y="287" type="line"/>
      <point x="358" y="383" type="line"/>
    </contour>
  </outline>
</glyph>
<glyph name="I" format="1">
  <advance width="224"/>
  <unicode hex="0049"/>
  <outline>
    <contour>
      <point x="58" y="682" type="line"/>
      <point x="58" y="0" type="line"/>
      <point x="167" y="0" type="line"/>
      <point x="167" y="682" type="line"/>
    </contour>
  </outline>
</glyph>
<glyph name="J" format="1">
  <advance width="227"/>
  <unicode hex="004A"/>
  <outline>
    <contour>
      <point x="61" y="682" type="line"/>
      <point x="61" y="202" type="line" smooth="yes"/>
      <point x="61" y="105"/>
      <point x="46" y="42"/>
      <point x="21" y="-45" type="curve" smooth="yes"/>
      <point x="-9" y="-149" type="line"/>
      <point x="105" y="-149" type="line"/>
      <point x="136" y="-45" type="line" smooth="yes"/>
      <point x="159" y="33"/>
      <point x="170" y="92"/>
      <point x="170" y="203" type="curve" smooth="yes"/>
      <point x="170" y="682" type="line"/>
    </contour>
  </outline>
</glyph>
<glyph name="K" format="1">
  <advance width="458"/>
  <unicode hex="004B"/>
  <outline>
    <contour>
      <point x="321" y="682" type="line"/>
      <point x="189" y="345" type="line"/>
      <point x="326" y="0" type="line"/>
      <point x="447" y="0" type="line"/>
      <point x="302" y="347" type="line"/>
      <point x="437" y="682" type="line"/>
    </contour>
    <contour>
      <point x="58" y="682" type="line"/>
      <point x="58" y="0" type="line"/>
      <point x="166" y="0" type="line"/>
      <point x="166" y="682" type="line"/>
    </contour>
  </outline>
</glyph>
<glyph name="L" format="1">
  <advance width="367"/>
  <unicode hex="004C"/>
  <outline>
    <contour>
      <point x="58" y="682" type="line"/>
      <point x="58" y="0" type="line"/>
      <point x="362" y="0" type="line"/>
      <point x="362" y="92" type="line"/>
      <point x="167" y="92" type="line"/>
      <point x="167" y="682" type="line"/>
    </contour>
  </outline>
</glyph>
<glyph name="M" format="1">
  <advance width="629"/>
  <unicode hex="004D"/>
  <outline>
    <contour>
      <point x="453" y="682" type="line"/>
      <point x="314" y="292" type="line"/>
      <point x="175" y="682" type="line"/>
      <point x="58" y="682" type="line"/>
      <point x="58" y="0" type="line"/>
      <point x="161" y="0" type="line"/>
      <point x="161" y="301" type="line"/>
      <point x="161" y="410"/>
      <point x="148" y="503"/>
      <point x="148" y="503" type="curve"/>
      <point x="267" y="178" type="line"/>
      <point x="361" y="178" type="line"/>
      <point x="479" y="503" type="line"/>
      <point x="479" y="503"/>
      <point x="467" y="415"/>
      <point x="467" y="301" type="curve"/>
      <point x="467" y="0" type="line"/>
      <point x="571" y="0" type="line"/>
      <point x="571" y="682" type="line"/>
    </contour>
  </outline>
</glyph>
<glyph name="N" format="1">
  <advance width="515"/>
  <unicode hex="004E"/>
  <outline>
    <contour>
      <point x="350" y="682" type="line"/>
      <point x="350" y="421" type="line"/>
      <point x="351" y="275"/>
      <point x="365" y="195"/>
      <point x="366" y="167" type="curve"/>
      <point x="355" y="196"/>
      <point x="332" y="269"/>
      <point x="286" y="388" type="curve"/>
      <point x="171" y="682" type="line"/>
      <point x="58" y="682" type="line"/>
      <point x="58" y="0" type="line"/>
      <point x="164" y="0" type="line"/>
      <point x="164" y="265" type="line"/>
      <point x="164" y="411"/>
      <point x="149" y="489"/>
      <point x="149" y="517" type="curve"/>
      <point x="160" y="489"/>
      <point x="183" y="415"/>
      <point x="229" y="296" type="curve"/>
      <point x="346" y="0" type="line"/>
      <point x="457" y="0" type="line"/>
      <point x="457" y="682" type="line"/>
    </contour>
  </outline>
</glyph>
<glyph name="O" format="1">
  <advance width="472"/>
  <unicode hex="004F"/>
  <outline>
    <contour>
      <point x="48" y="524" type="curve" smooth="yes"/>
      <point x="48" y="158" type="line" smooth="yes"/>
      <point x="48" y="60"/>
      <point x="108" y="-10"/>
      <point x="236" y="-10" type="curve" smooth="yes"/>
      <point x="364" y="-10"/>
      <point x="424" y="60"/>
      <point x="424" y="158" type="curve" smooth="yes"/>
      <point x="424" y="524" type="line" smooth="yes"/>
      <point x="424" y="621"/>
      <point x="364" y="692"/>
      <point x="236" y="692" type="curve" smooth="yes"/>
      <point x="108" y="692"/>
      <point x="48" y="621"/>
    </contour>
    <contour>
      <point x="316" y="519" type="curve" smooth="yes"/>
      <point x="316" y="163" type="line" smooth="yes"/>
      <point x="316" y="118"/>
      <point x="293" y="88"/>
      <point x="236" y="88" type="curve" smooth="yes"/>
      <point x="178" y="88"/>
      <point x="156" y="118"/>
      <point x="156" y="163" type="curve" smooth="yes"/>
      <point x="156" y="519" type="line" smooth="yes"/>
      <point x="156" y="564"/>
      <point x="178" y="593"/>
      <point x="236" y="593" type="curve" smooth="yes"/>
      <point x="293" y="593"/>
      <point x="316" y="563"/>
    </contour>
  </outline>
</glyph>
<glyph name="P" format="1">
  <advance width="454"/>
  <unicode hex="0050"/>
  <outline>
    <contour>
      <point x="58" y="682" type="line"/>
      <point x="58" y="0" type="line"/>
      <point x="166" y="0" type="line"/>
      <point x="166" y="216" type="line"/>
      <point x="250" y="216" type="line" smooth="yes"/>
      <point x="358" y="216"/>
      <point x="418" y="273"/>
      <point x="418" y="369" type="curve" smooth="yes"/>
      <point x="418" y="529" type="line" smooth="yes"/>
      <point x="418" y="625"/>
      <point x="358" y="682"/>
      <point x="250" y="682" type="curve" smooth="yes"/>
    </contour>
    <contour>
      <point x="310" y="519" type="curve" smooth="yes"/>
      <point x="310" y="379" type="line" smooth="yes"/>
      <point x="310" y="335"/>
      <point x="290" y="311"/>
      <point x="239" y="311" type="curve" smooth="yes"/>
      <point x="166" y="311" type="line"/>
      <point x="166" y="587" type="line"/>
      <point x="239" y="587" type="line" smooth="yes"/>
      <point x="290" y="587"/>
      <point x="310" y="563"/>
    </contour>
  </outline>
</glyph>
<glyph name="Q" format="1">
  <advance width="472"/>
  <unicode hex="0051"/>
  <outline>
    <contour>
      <point x="176" y="85" type="line"/>
      <point x="344" y="-94" type="line"/>
      <point x="474" y="-94" type="line"/>
      <point x="305" y="85" type="line"/>
    </contour>
    <component base="O"/>
  </outline>
</glyph>
<glyph name="R" format="1">
  <advance width="469"/>
  <unicode hex="0052"/>
  <outline>
    <contour>
      <point x="58" y="682" type="line"/>
      <point x="58" y="0" type="line"/>
      <point x="166" y="0" type="line"/>
      <point x="166" y="261" type="line"/>
      <point x="259" y="261" type="line" smooth="yes"/>
      <point x="371" y="261"/>
      <point x="418" y="319"/>
      <point x="418" y="417" type="curve" smooth="yes"/>
      <point x="418" y="530" type="line" smooth="yes"/>
      <point x="418" y="626"/>
      <point x="358" y="682"/>
      <point x="250" y="682" type="curve" smooth="yes"/>
    </contour>
    <contour>
      <point x="215" y="295" type="line"/>
      <point x="323" y="0" type="line"/>
      <point x="442" y="0" type="line"/>
      <point x="325" y="295" type="line"/>
    </contour>
    <contour>
      <point x="310" y="522" type="curve" smooth="yes"/>
      <point x="310" y="419" type="line" smooth="yes"/>
      <point x="310" y="372"/>
      <point x="291" y="349"/>
      <point x="241" y="349" type="curve" smooth="yes"/>
      <point x="166" y="349" type="line"/>
      <point x="166" y="589" type="line"/>
      <point x="241" y="589" type="line" smooth="yes"/>
      <point x="289" y="589"/>
      <point x="310" y="567"/>
    </contour>
  </outline>
</glyph>
<glyph name="T" format="1">
  <advance width="379"/>
  <unicode hex="0054"/>
  <outline>
    <contour>
      <point x="135" y="682" type="line"/>
      <point x="135" y="0" type="line"/>
      <point x="244" y="0" type="line"/>
      <point x="244" y="682" type="line"/>
    </contour>
    <contour>
      <point x="7" y="682" type="line"/>
      <point x="7" y="587" type="line"/>
      <point x="372" y="587" type="line"/>
      <point x="372" y="682" type="line"/>
    </contour>
  </outline>
</glyph>
<glyph name="U" format="1">
  <advance width="479"/>
  <unicode hex="0055"/>
  <outline>
    <contour>
      <point x="319" y="682" type="line"/>
      <point x="319" y="163" type="line" smooth="yes"/>
      <point x="319" y="118"/>
      <point x="297" y="88"/>
      <point x="239" y="88" type="curve" smooth="yes"/>
      <point x="182" y="88"/>
      <point x="161" y="118"/>
      <point x="161" y="163" type="curve" smooth="yes"/>
      <point x="161" y="682" type="line"/>
      <point x="53" y="682" type="line"/>
      <point x="53" y="158" type="line" smooth="yes"/>
      <point x="53" y="60"/>
      <point x="111" y="-10"/>
      <point x="239" y="-10" type="curve" smooth="yes"/>
      <point x="367" y="-10"/>
      <point x="427" y="60"/>
      <point x="427" y="158" type="curve" smooth="yes"/>
      <point x="427" y="682" type="line"/>
    </contour>
  </outline>
</glyph>
<glyph name="V" format="1">
  <advance width="450"/>
  <unicode hex="0056"/>
  <outline>
    <contour>
      <point x="329" y="682" type="line"/>
      <point x="270" y="367" type="line"/>
      <point x="254" y="277"/>
      <point x="235" y="135"/>
      <point x="227" y="98" type="curve"/>
      <point x="219" y="135"/>
      <point x="199" y="276"/>
      <point x="181" y="367" type="curve"/>
      <point x="120" y="682" type="line"/>
      <point x="9" y="682" type="line"/>
      <point x="150" y="0" type="line"/>
      <point x="301" y="0" type="line"/>
      <point x="441" y="682" type="line"/>
    </contour>
  </outline>
</glyph>
<glyph name="W" format="1">
  <advance width="601"/>
  <unicode hex="0057"/>
  <outline>
    <contour>
      <point x="491" y="682" type="line"/>
      <point x="441" y="362" type="line" smooth="yes"/>
      <point x="430" y="285"/>
      <point x="420" y="182"/>
      <point x="420" y="182" type="curve"/>
      <point x="420" y="182"/>
      <point x="408" y="285"/>
      <point x="397" y="362" type="curve" smooth="yes"/>
      <point x="351" y="682" type="line"/>
      <point x="253" y="682" type="line"/>
      <point x="205" y="363" type="line" smooth="yes"/>
      <point x="193" y="272"/>
      <point x="182" y="178"/>
      <point x="182" y="178" type="curve"/>
      <point x="182" y="178"/>
      <point x="174" y="272"/>
      <point x="161" y="362" type="curve" smooth="yes"/>
      <point x="111" y="682" type="line"/>
      <point x="13" y="682" type="line"/>
      <point x="114" y="0" type="line"/>
      <point x="227" y="0" type="line"/>
      <point x="277" y="307" type="line" smooth="yes"/>
      <point x="293" y="406"/>
      <point x="302" y="516"/>
      <point x="302" y="516" type="curve"/>
      <point x="302" y="516"/>
      <point x="312" y="408"/>
      <point x="329" y="306" type="curve" smooth="yes"/>
      <point x="378" y="0" type="line"/>
      <point x="486" y="0" type="line"/>
      <point x="588" y="682" type="line"/>
    </contour>
  </outline>
</glyph>
<glyph name="X" format="1">
  <advance width="428"/>
  <unicode hex="0058"/>
  <outline>
    <contour>
      <point x="301" y="682" type="line"/>
      <point x="215" y="456" type="line"/>
      <point x="126" y="682" type="line"/>
      <point x="9" y="682" type="line"/>
      <point x="156" y="340" type="line"/>
      <point x="9" y="0" type="line"/>
      <point x="127" y="0" type="line"/>
      <point x="215" y="224" type="line"/>
      <point x="301" y="0" type="line"/>
      <point x="418" y="0" type="line"/>
      <point x="271" y="340" type="line"/>
      <point x="418" y="682" type="line"/>
    </contour>
  </outline>
</glyph>
<glyph name="Y" format="1">
  <advance width="443"/>
  <unicode hex="0059"/>
  <outline>
    <contour>
      <point x="332" y="682" type="line"/>
      <point x="282" y="536" type="line"/>
      <point x="254" y="451"/>
      <point x="238" y="394"/>
      <point x="223" y="338" type="curve"/>
      <point x="209" y="394"/>
      <point x="193" y="450"/>
      <point x="165" y="536" type="curve"/>
      <point x="113" y="682" type="line"/>
      <point x="2" y="682" type="line"/>
      <point x="167" y="221" type="line"/>
      <point x="167" y="0" type="line"/>
      <point x="276" y="0" type="line"/>
      <point x="276" y="221" type="line"/>
      <point x="441" y="682" type="line"/>
    </contour>
  </outline>
</glyph>
<glyph name="Z" format="1">
  <advance width="402"/>
  <unicode hex="005A"/>
  <outline>
    <contour>
      <point x="29" y="682" type="line"/>
      <point x="29" y="589" type="line"/>
      <point x="259" y="589" type="line"/>
      <point x="24" y="93" type="line"/>
      <point x="24" y="0" type="line"/>
      <point x="376" y="0" type="line"/>
      <point x="376" y="93" type="line"/>
      <point x="138" y="93" type="line"/>
      <point x="376" y="593" type="line"/>
      <point x="376" y="682" type="line"/>
    </contour>
  </outline>
</glyph>
<glyph name="bracketleft" format="1">
  <advance width="332"/>
  <unicode hex="005B"/>
  <outline>
    <contour>
      <point x="85" y="425" type="line"/>
      <point x="85" y="-157" type="line"/>
      <point x="295" y="-157" type="line"/>
      <point x="295" y="-71" type="line"/>
      <point x="174" y="-71" type="line"/>
      <point x="174" y="425" type="line"/>
    </contour>
    <contour>
      <point x="85" y="825" type="line"/>
      <point x="85" y="420" type="line"/>
      <point x="174" y="420" type="line"/>
      <point x="174" y="740" type="line"/>
      <point x="295" y="740" type="line"/>
      <point x="295" y="825" type="line"/>
    </contour>
  </outline>
</glyph>
<glyph name="backslash" format="1">
  <advance width="437"/>
  <unicode hex="005C"/>
  <outline>
    <contour>
      <point x="36" y="825" type="line"/>
      <point x="305" y="-157" type="line"/>
      <point x="405" y="-157" type="line"/>
      <point x="135" y="825" type="line"/>
    </contour>
  </outline>
</glyph>
<glyph name="bracketright" format="1">
  <advance width="332"/>
  <unicode hex="005D"/>
  <outline>
    <contour>
      <point x="158" y="425" type="line"/>
      <point x="158" y="-71" type="line"/>
      <point x="36" y="-71" type="line"/>
      <point x="36" y="-157" type="line"/>
      <point x="247" y="-157" type="line"/>
      <point x="247" y="425" type="line"/>
    </contour>
    <contour>
      <point x="36" y="825" type="line"/>
      <point x="36" y="740" type="line"/>
      <point x="158" y="740" type="line"/>
      <point x="158" y="420" type="line"/>
      <point x="247" y="420" type="line"/>
      <point x="247" y="825" type="line"/>
    </contour>
  </outline>
</glyph>
<glyph name="asciicircum" format="1">
  <advance width="375"/>
  <unicode hex="005E"/>
  <outline>
    <contour>
      <point x="164" y="698" type="line"/>
      <point x="264" y="389" type="line"/>
      <point x="371" y="389" type="line"/>
      <point x="251" y="698" type="line"/>
    </contour>
    <contour>
      <point x="123" y="698" type="line"/>
      <point x="2" y="389" type="line"/>
      <point x="108" y="389" type="line"/>
      <point x="208" y="698" type="line"/>
    </contour>
  </outline>
</glyph>
<glyph name="underscore" format="1">
  <advance width="518"/>
  <unicode hex="005F"/>
  <outline>
    <contour>
      <point x="6" y="-6" type="line"/>
      <point x="6" y="-93" type="line"/>
      <point x="512" y="-93" type="line"/>
      <point x="512" y="-6" type="line"/>
    </contour>
  </outline>
</glyph>
<glyph name="grave" format="1">
  <advance width="350"/>
  <unicode hex="0060"/>
  <outline>
    <contour>
      <point x="111" y="733" type="line"/>
      <point x="178" y="622" type="line"/>
      <point x="239" y="622" type="line"/>
      <point x="198" y="733" type="line"/>
    </contour>
  </outline>
</glyph>
<glyph name="a" format="1">
  <advance width="431"/>
  <unicode hex="0061"/>
  <outline>
    <contour>
      <point x="55" y="565" type="curve"/>
      <point x="55" y="467" type="line"/>
      <point x="78" y="476"/>
      <point x="133" y="488"/>
      <point x="187" y="488" type="curve" smooth="yes"/>
      <point x="256" y="488"/>
      <point x="273" y="466"/>
      <point x="274" y="423" type="curve" smooth="yes"/>
      <point x="274" y="352" type="line"/>
      <point x="149" y="318" type="line" smooth="yes"/>
      <point x="63" y="294"/>
      <point x="26" y="250"/>
      <point x="26" y="171" type="curve" smooth="yes"/>
      <point x="26" y="138" type="line" smooth="yes"/>
      <point x="26" y="45"/>
      <point x="67" y="-3"/>
      <point x="163" y="-3" type="curve" smooth="yes"/>
      <point x="224" y="-3"/>
      <point x="255" y="19"/>
      <point x="276" y="42" type="curve"/>
      <point x="276" y="0" type="line"/>
      <point x="378" y="0" type="line"/>
      <point x="378" y="423" type="line" smooth="yes"/>
      <point x="378" y="525"/>
      <point x="331" y="584"/>
      <point x="197" y="584" type="curve" smooth="yes"/>
      <point x="135" y="584"/>
      <point x="81" y="574"/>
    </contour>
    <contour>
      <point x="273" y="106" type="line"/>
      <point x="255" y="92"/>
      <point x="224" y="80"/>
      <point x="192" y="80" type="curve" smooth="yes"/>
      <point x="147" y="80"/>
      <point x="132" y="100"/>
      <point x="132" y="137" type="curve" smooth="yes"/>
      <point x="132" y="166" type="line" smooth="yes"/>
      <point x="132" y="208"/>
      <point x="143" y="225"/>
      <point x="191" y="239" type="curve" smooth="yes"/>
      <point x="273" y="262" type="line"/>
    </contour>
  </outline>
</glyph>
<glyph name="b" format="1">
  <advance width="455"/>
  <unicode hex="0062"/>
  <outline>
    <contour>
      <point x="58" y="733" type="line"/>
      <point x="58" y="0" type="line"/>
      <point x="257" y="0" type="line"/>
      <point x="345" y="0"/>
      <point x="407" y="47"/>
      <point x="407" y="147" type="curve" smooth="yes"/>
      <point x="407" y="452" type="line" smooth="yes"/>
      <point x="407" y="539"/>
      <point x="353" y="582"/>
      <point x="277" y="582" type="curve" smooth="yes"/>
      <point x="229" y="582"/>
      <point x="188" y="570"/>
      <point x="166" y="562" type="curve"/>
      <point x="166" y="733" type="line"/>
    </contour>
    <contour>
      <point x="297" y="431" type="curve" smooth="yes"/>
      <point x="297" y="161" type="line" smooth="yes"/>
      <point x="297" y="118"/>
      <point x="273" y="100"/>
      <point x="229" y="100" type="curve" smooth="yes"/>
      <point x="166" y="100" type="line"/>
      <point x="166" y="463" type="line"/>
      <point x="188" y="473"/>
      <point x="216" y="481"/>
      <point x="245" y="481" type="curve" smooth="yes"/>
      <point x="278" y="481"/>
      <point x="297" y="465"/>
    </contour>
  </outline>
</glyph>
<glyph name="c" format="1">
  <advance width="373"/>
  <unicode hex="0063"/>
  <outline>
    <contour>
      <point x="48" y="426" type="curve" smooth="yes"/>
      <point x="48" y="152" type="line" smooth="yes"/>
      <point x="48" y="50"/>
      <point x="105" y="-5"/>
      <point x="229" y="-5" type="curve" smooth="yes"/>
      <point x="284" y="-5"/>
      <point x="315" y="1"/>
      <point x="345" y="10" type="curve"/>
      <point x="345" y="110" type="line"/>
      <point x="322" y="103"/>
      <point x="286" y="94"/>
      <point x="244" y="94" type="curve" smooth="yes"/>
      <point x="178" y="94"/>
      <point x="156" y="114"/>
      <point x="156" y="160" type="curve" smooth="yes"/>
      <point x="156" y="419" type="line" smooth="yes"/>
      <point x="156" y="464"/>
      <point x="178" y="484"/>
      <point x="244" y="484" type="curve" smooth="yes"/>
      <point x="284" y="484"/>
      <point x="320" y="476"/>
      <point x="344" y="470" type="curve"/>
      <point x="344" y="570" type="line"/>
      <point x="315" y="578"/>
      <point x="283" y="584"/>
      <point x="229" y="584" type="curve" smooth="yes"/>
      <point x="105" y="584"/>
      <point x="48" y="529"/>
    </contour>
  </outline>
</glyph>
<glyph name="d" format="1">
  <advance width="454"/>
  <unicode hex="0064"/>
  <outline>
    <contour>
      <point x="287" y="733" type="line"/>
      <point x="287" y="579" type="line"/>
      <point x="217" y="579" type="line"/>
      <point x="107" y="579"/>
      <point x="48" y="517"/>
      <point x="48" y="415" type="curve"/>
      <point x="48" y="136" type="line" smooth="yes"/>
      <point x="48" y="48"/>
      <point x="93" y="-4"/>
      <point x="183" y="-4" type="curve"/>
      <point x="242" y="-4"/>
      <point x="275" y="22"/>
      <point x="291" y="37" type="curve"/>
      <point x="291" y="0" type="line"/>
      <point x="396" y="0" type="line"/>
      <point x="396" y="733" type="line"/>
    </contour>
    <contour>
      <point x="288" y="119" type="line"/>
      <point x="274" y="107"/>
      <point x="246" y="95"/>
      <point x="212" y="95" type="curve"/>
      <point x="174" y="95"/>
      <point x="156" y="114"/>
      <point x="156" y="151" type="curve" smooth="yes"/>
      <point x="156" y="412" type="line" smooth="yes"/>
      <point x="156" y="459"/>
      <point x="182" y="482"/>
      <point x="229" y="482" type="curve" smooth="yes"/>
      <point x="288" y="482" type="line"/>
    </contour>
  </outline>
</glyph>
<glyph name="e" format="1">
  <advance width="434"/>
  <unicode hex="0065"/>
  <outline>
    <contour>
      <point x="48" y="431" type="curve" smooth="yes"/>
      <point x="48" y="182" type="line"/>
      <point x="153" y="181" type="line"/>
      <point x="153" y="429" type="line" smooth="yes"/>
      <point x="153" y="471"/>
      <point x="174" y="497"/>
      <point x="223" y="497" type="curve" smooth="yes"/>
      <point x="272" y="497"/>
      <point x="293" y="471"/>
      <point x="293" y="429" type="curve" smooth="yes"/>
      <point x="293" y="291" type="line"/>
      <point x="394" y="291" type="line"/>
      <point x="394" y="431" type="line" smooth="yes"/>
      <point x="394" y="524"/>
      <point x="345" y="589"/>
      <point x="223" y="589" type="curve" smooth="yes"/>
      <point x="101" y="589"/>
      <point x="48" y="524"/>
    </contour>
    <contour>
      <point x="48" y="226" type="line"/>
      <point x="48" y="156" type="line" smooth="yes"/>
      <point x="48" y="51"/>
      <point x="108" y="-6"/>
      <point x="245" y="-6" type="curve" smooth="yes"/>
      <point x="314" y="-6"/>
      <point x="348" y="3"/>
      <point x="379" y="12" type="curve"/>
      <point x="379" y="109" type="line"/>
      <point x="355" y="102"/>
      <point x="308" y="90"/>
      <point x="254" y="90" type="curve" smooth="yes"/>
      <point x="178" y="90"/>
      <point x="153" y="114"/>
      <point x="153" y="163" type="curve" smooth="yes"/>
      <point x="153" y="226" type="line"/>
    </contour>
    <contour>
      <point x="136" y="328" type="line"/>
      <point x="136" y="243" type="line"/>
      <point x="394" y="243" type="line"/>
      <point x="394" y="328" type="line"/>
    </contour>
  </outline>
</glyph>
<glyph name="f" format="1">
  <advance width="283"/>
  <unicode hex="0066"/>
  <outline>
    <contour>
      <point x="77" y="600" type="curve" smooth="yes"/>
      <point x="77" y="579" type="line"/>
      <point x="20" y="579" type="line"/>
      <point x="20" y="491" type="line"/>
      <point x="77" y="491" type="line"/>
      <point x="77" y="0" type="line"/>
      <point x="186" y="0" type="line"/>
      <point x="186" y="491" type="line"/>
      <point x="280" y="491" type="line"/>
      <point x="280" y="579" type="line"/>
      <point x="186" y="579" type="line"/>
      <point x="186" y="602" type="line" smooth="yes"/>
      <point x="186" y="645"/>
      <point x="207" y="664"/>
      <point x="248" y="664" type="curve" smooth="yes"/>
      <point x="260" y="664"/>
      <point x="274" y="663"/>
      <point x="283" y="661" type="curve"/>
      <point x="283" y="748" type="line"/>
      <point x="267" y="750"/>
      <point x="249" y="752"/>
      <point x="234" y="752" type="curve" smooth="yes"/>
      <point x="126" y="752"/>
      <point x="77" y="695"/>
    </contour>
  </outline>
</glyph>
<glyph name="g" format="1">
  <advance width="451"/>
  <unicode hex="0067"/>
  <outline>
    <contour>
      <point x="82" y="144" type="curve" smooth="yes"/>
      <point x="82" y="128" type="line" smooth="yes"/>
      <point x="82" y="68"/>
      <point x="129" y="41"/>
      <point x="215" y="41" type="curve" smooth="yes"/>
      <point x="275" y="41" type="line" smooth="yes"/>
      <point x="321" y="41"/>
      <point x="330" y="25"/>
      <point x="330" y="0" type="curve" smooth="yes"/>
      <point x="330" y="-8" type="line" smooth="yes"/>
      <point x="330" y="-39"/>
      <point x="306" y="-58"/>
      <point x="225" y="-58" type="curve" smooth="yes"/>
      <point x="196" y="-58" type="line" smooth="yes"/>
      <point x="123" y="-58"/>
      <point x="64" y="-36"/>
      <point x="28" y="-12" type="curve"/>
      <point x="28" y="-112" type="line"/>
      <point x="56" y="-131"/>
      <point x="115" y="-150"/>
      <point x="198" y="-150" type="curve" smooth="yes"/>
      <point x="237" y="-150" type="line" smooth="yes"/>
      <point x="374" y="-150"/>
      <point x="432" y="-95"/>
      <point x="432" y="-9" type="curve" smooth="yes"/>
      <point x="432" y="9" type="line" smooth="yes"/>
      <point x="432" y="91"/>
      <point x="387" y="130"/>
      <point x="288" y="130" type="curve" smooth="yes"/>
      <point x="231" y="130" type="line" smooth="yes"/>
      <point x="191" y="130"/>
      <point x="178" y="140"/>
      <point x="178" y="165" type="curve" smooth="yes"/>
      <point x="178" y="189"/>
      <point x="191" y="203"/>
      <point x="220" y="203" type="curve"/>
      <point x="204" y="209"/>
      <point x="176" y="216"/>
      <point x="156" y="216" type="curve"/>
      <point x="111" y="216"/>
      <point x="82" y="187"/>
    </contour>
    <contour>
      <point x="34" y="438" type="curve" smooth="yes"/>
      <point x="34" y="355" type="line" smooth="yes"/>
      <point x="34" y="262"/>
      <point x="90" y="203"/>
      <point x="214" y="203" type="curve" smooth="yes"/>
      <point x="338" y="203"/>
      <point x="395" y="262"/>
      <point x="395" y="355" type="curve" smooth="yes"/>
      <point x="395" y="438" type="line" smooth="yes"/>
      <point x="395" y="531"/>
      <point x="338" y="589"/>
      <point x="214" y="589" type="curve" smooth="yes"/>
      <point x="90" y="589"/>
      <point x="34" y="531"/>
    </contour>
    <contour>
      <point x="287" y="437" type="curve" smooth="yes"/>
      <point x="287" y="355" type="line" smooth="yes"/>
      <point x="287" y="314"/>
      <point x="266" y="292"/>
      <point x="214" y="292" type="curve" smooth="yes"/>
      <point x="162" y="292"/>
      <point x="142" y="314"/>
      <point x="142" y="355" type="curve" smooth="yes"/>
      <point x="142" y="437" type="line" smooth="yes"/>
      <point x="142" y="479"/>
      <point x="162" y="501"/>
      <point x="214" y="501" type="curve" smooth="yes"/>
      <point x="266" y="501"/>
      <point x="287" y="479"/>
    </contour>
    <contour>
      <point x="422" y="634" type="line"/>
      <point x="365" y="634"/>
      <point x="325" y="602"/>
      <point x="318" y="540" type="curve"/>
      <point x="345" y="514" type="line"/>
      <point x="358" y="526"/>
      <point x="378" y="535"/>
      <point x="403" y="535" type="curve" smooth="yes"/>
      <point x="438" y="535" type="line"/>
      <point x="438" y="634" type="line"/>
    </contour>
  </outline>
</glyph>
<glyph name="h" format="1">
  <advance width="457"/>
  <unicode hex="0068"/>
  <outline>
    <contour>
      <point x="58" y="733" type="line"/>
      <point x="58" y="0" type="line"/>
      <point x="166" y="0" type="line"/>
      <point x="166" y="463" type="line"/>
      <point x="185" y="473"/>
      <point x="214" y="481"/>
      <point x="243" y="481" type="curve" smooth="yes"/>
      <point x="276" y="481"/>
      <point x="294" y="465"/>
      <point x="294" y="431" type="curve" smooth="yes"/>
      <point x="294" y="0" type="line"/>
      <point x="404" y="0" type="line"/>
      <point x="404" y="452" type="line" smooth="yes"/>
      <point x="404" y="543"/>
      <point x="347" y="582"/>
      <point x="265" y="582" type="curve" smooth="yes"/>
      <point x="229" y="582"/>
      <point x="194" y="573"/>
      <point x="166" y="562" type="curve"/>
      <point x="166" y="733" type="line"/>
    </contour>
  </outline>
</glyph>
<glyph name="i" format="1">
  <advance width="224"/>
  <unicode hex="0069"/>
  <outline>
    <contour>
      <point x="58" y="569" type="line"/>
      <point x="58" y="0" type="line"/>
      <point x="166" y="0" type="line"/>
      <point x="166" y="569" type="line"/>
    </contour>
    <contour>
      <point x="50" y="682" type="curve" smooth="yes"/>
      <point x="50" y="646"/>
      <point x="65" y="621"/>
      <point x="112" y="621" type="curve" smooth="yes"/>
      <point x="158" y="621"/>
      <point x="174" y="646"/>
      <point x="174" y="682" type="curve" smooth="yes"/>
      <point x="174" y="718"/>
      <point x="158" y="743"/>
      <point x="112" y="743" type="curve" smooth="yes"/>
      <point x="65" y="743"/>
      <point x="50" y="718"/>
    </contour>
  </outline>
</glyph>
<glyph name="j" format="1">
  <advance width="224"/>
  <unicode hex="006A"/>
  <outline>
    <contour>
      <point x="58" y="569" type="line"/>
      <point x="58" y="10" type="line" smooth="yes"/>
      <point x="58" y="-32"/>
      <point x="41" y="-52"/>
      <point x="3" y="-52" type="curve" smooth="yes"/>
      <point x="-6" y="-52"/>
      <point x="-14" y="-51"/>
      <point x="-22" y="-50" type="curve"/>
      <point x="-22" y="-149" type="line"/>
      <point x="-11" y="-151"/>
      <point x="1" y="-152"/>
      <point x="10" y="-152" type="curve" smooth="yes"/>
      <point x="116" y="-152"/>
      <point x="166" y="-85"/>
      <point x="166" y="10" type="curve" smooth="yes"/>
      <point x="166" y="569" type="line"/>
    </contour>
    <contour>
      <point x="50" y="682" type="curve" smooth="yes"/>
      <point x="50" y="646"/>
      <point x="65" y="621"/>
      <point x="112" y="621" type="curve" smooth="yes"/>
      <point x="158" y="621"/>
      <point x="174" y="646"/>
      <point x="174" y="682" type="curve" smooth="yes"/>
      <point x="174" y="718"/>
      <point x="158" y="743"/>
      <point x="112" y="743" type="curve" smooth="yes"/>
      <point x="65" y="743"/>
      <point x="50" y="718"/>
    </contour>
  </outline>
</glyph>
<glyph name="k" format="1">
  <advance width="417"/>
  <unicode hex="006B"/>
  <outline>
    <contour>
      <point x="284" y="579" type="line"/>
      <point x="179" y="306" type="line"/>
      <point x="290" y="0" type="line"/>
      <point x="406" y="0" type="line"/>
      <point x="287" y="303" type="line"/>
      <point x="394" y="579" type="line"/>
    </contour>
    <contour>
      <point x="58" y="733" type="line"/>
      <point x="58" y="0" type="line"/>
      <point x="163" y="0" type="line"/>
      <point x="163" y="733" type="line"/>
    </contour>
  </outline>
</glyph>
<glyph name="l" format="1">
  <advance width="224"/>
  <unicode hex="006C"/>
  <outline>
    <contour>
      <point x="58" y="733" type="line"/>
      <point x="58" y="0" type="line"/>
      <point x="166" y="0" type="line"/>
      <point x="166" y="733" type="line"/>
    </contour>
  </outline>
</glyph>
<glyph name="m" format="1">
  <advance width="695"/>
  <unicode hex="006D"/>
  <outline>
    <contour>
      <point x="373" y="543" type="curve"/>
      <point x="350" y="569"/>
      <point x="315" y="581"/>
      <point x="274" y="581" type="curve" smooth="yes"/>
      <point x="227" y="581"/>
      <point x="183" y="563"/>
      <point x="161" y="553" type="curve"/>
      <point x="161" y="579" type="line"/>
      <point x="58" y="579" type="line"/>
      <point x="58" y="0" type="line"/>
      <point x="166" y="0" type="line"/>
      <point x="166" y="461" type="line"/>
      <point x="188" y="472"/>
      <point x="214" y="481"/>
      <point x="243" y="481" type="curve" smooth="yes"/>
      <point x="276" y="481"/>
      <point x="294" y="465"/>
      <point x="294" y="431" type="curve" smooth="yes"/>
      <point x="294" y="0" type="line"/>
      <point x="404" y="0" type="line"/>
      <point x="404" y="431" type="line" smooth="yes"/>
      <point x="404" y="441"/>
      <point x="403" y="450"/>
      <point x="401" y="457" type="curve"/>
      <point x="424" y="472"/>
      <point x="452" y="481"/>
      <point x="481" y="481" type="curve" smooth="yes"/>
      <point x="514" y="481"/>
      <point x="532" y="465"/>
      <point x="532" y="431" type="curve" smooth="yes"/>
      <point x="532" y="0" type="line"/>
      <point x="642" y="0" type="line"/>
      <point x="642" y="452" type="line" smooth="yes"/>
      <point x="642" y="539"/>
      <point x="588" y="581"/>
      <point x="512" y="581" type="curve" smooth="yes"/>
      <point x="467" y="581"/>
      <point x="418" y="569"/>
    </contour>
  </outline>
</glyph>
<glyph name="n" format="1">
  <advance width="457"/>
  <unicode hex="006E"/>
  <outline>
    <contour>
      <point x="161" y="553" type="curve"/>
      <point x="161" y="579" type="line"/>
      <point x="58" y="579" type="line"/>
      <point x="58" y="0" type="line"/>
      <point x="166" y="0" type="line"/>
      <point x="166" y="461" type="line"/>
      <point x="188" y="472"/>
      <point x="214" y="481"/>
      <point x="243" y="481" type="curve"/>
      <point x="276" y="481"/>
      <point x="294" y="465"/>
      <point x="294" y="431" type="curve" smooth="yes"/>
      <point x="294" y="0" type="line"/>
      <point x="404" y="0" type="line"/>
      <point x="404" y="452" type="line" smooth="yes"/>
      <point x="404" y="539"/>
      <point x="351" y="581"/>
      <point x="274" y="581" type="curve"/>
      <point x="227" y="581"/>
      <point x="183" y="563"/>
    </contour>
  </outline>
</glyph>
<glyph name="o" format="1">
  <advance width="446"/>
  <unicode hex="006F"/>
  <outline>
    <contour>
      <point x="48" y="431" type="curve" smooth="yes"/>
      <point x="48" y="148" type="line" smooth="yes"/>
      <point x="48" y="55"/>
      <point x="101" y="-10"/>
      <point x="223" y="-10" type="curve" smooth="yes"/>
      <point x="345" y="-10"/>
      <point x="398" y="55"/>
      <point x="398" y="148" type="curve" smooth="yes"/>
      <point x="398" y="431" type="line" smooth="yes"/>
      <point x="398" y="524"/>
      <point x="345" y="589"/>
      <point x="223" y="589" type="curve" smooth="yes"/>
      <point x="101" y="589"/>
      <point x="48" y="524"/>
    </contour>
    <contour>
      <point x="291" y="428" type="curve" smooth="yes"/>
      <point x="291" y="151" type="line" smooth="yes"/>
      <point x="291" y="110"/>
      <point x="272" y="83"/>
      <point x="223" y="83" type="curve" smooth="yes"/>
      <point x="174" y="83"/>
      <point x="154" y="110"/>
      <point x="154" y="151" type="curve" smooth="yes"/>
      <point x="154" y="428" type="line" smooth="yes"/>
      <point x="154" y="468"/>
      <point x="174" y="496"/>
      <point x="223" y="496" type="curve" smooth="yes"/>
      <point x="272" y="496"/>
      <point x="291" y="468"/>
    </contour>
  </outline>
</glyph>
<glyph name="p" format="1">
  <advance width="455"/>
  <unicode hex="0070"/>
  <outline>
    <contour>
      <point x="161" y="552" type="curve"/>
      <point x="161" y="579" type="line"/>
      <point x="58" y="579" type="line"/>
      <point x="58" y="-149" type="line"/>
      <point x="166" y="-149" type="line"/>
      <point x="166" y="0" type="line"/>
      <point x="257" y="0" type="line" smooth="yes"/>
      <point x="345" y="0"/>
      <point x="407" y="49"/>
      <point x="407" y="148" type="curve" smooth="yes"/>
      <point x="407" y="452" type="line" smooth="yes"/>
      <point x="407" y="539"/>
      <point x="353" y="581"/>
      <point x="277" y="581" type="curve" smooth="yes"/>
      <point x="230" y="581"/>
      <point x="182" y="563"/>
    </contour>
    <contour>
      <point x="297" y="431" type="curve" smooth="yes"/>
      <point x="297" y="162" type="line" smooth="yes"/>
      <point x="297" y="120"/>
      <point x="273" y="100"/>
      <point x="230" y="100" type="curve" smooth="yes"/>
      <point x="166" y="100" type="line"/>
      <point x="166" y="461" type="line"/>
      <point x="188" y="472"/>
      <point x="215" y="481"/>
      <point x="244" y="481" type="curve" smooth="yes"/>
      <point x="278" y="481"/>
      <point x="297" y="465"/>
    </contour>
  </outline>
</glyph>
<glyph name="q" format="1">
  <advance width="454"/>
  <unicode hex="0071"/>
  <outline>
    <contour>
      <point x="218" y="579" type="line"/>
      <point x="106" y="579"/>
      <point x="48" y="514"/>
      <point x="48" y="413" type="curve" smooth="yes"/>
      <point x="48" y="146" type="line" smooth="yes"/>
      <point x="48" y="50"/>
      <point x="94" y="-1"/>
      <point x="189" y="-1" type="curve" smooth="yes"/>
      <point x="239" y="-1"/>
      <point x="273" y="11"/>
      <point x="288" y="21" type="curve"/>
      <point x="288" y="-149" type="line"/>
      <point x="396" y="-149" type="line"/>
      <point x="396" y="579" type="line"/>
    </contour>
    <contour>
      <point x="288" y="119" type="line"/>
      <point x="274" y="108"/>
      <point x="248" y="96"/>
      <point x="215" y="96" type="curve" smooth="yes"/>
      <point x="176" y="96"/>
      <point x="156" y="116"/>
      <point x="156" y="156" type="curve" smooth="yes"/>
      <point x="156" y="409" type="line" smooth="yes"/>
      <point x="156" y="458"/>
      <point x="184" y="482"/>
      <point x="230" y="482" type="curve" smooth="yes"/>
      <point x="288" y="482" type="line"/>
    </contour>
  </outline>
</glyph>
<glyph name="r" format="1">
  <advance width="301"/>
  <unicode hex="0072"/>
  <outline>
    <contour>
      <point x="275" y="582" type="line"/>
      <point x="224" y="582"/>
      <point x="203" y="565"/>
      <point x="161" y="537" type="curve"/>
      <point x="161" y="579" type="line"/>
      <point x="58" y="579" type="line"/>
      <point x="58" y="0" type="line"/>
      <point x="166" y="0" type="line"/>
      <point x="166" y="447" type="line"/>
      <point x="199" y="468"/>
      <point x="226" y="480"/>
      <point x="268" y="480" type="curve"/>
      <point x="296" y="480" type="line"/>
      <point x="296" y="582" type="line"/>
    </contour>
  </outline>
</glyph>
<glyph name="t" format="1">
  <advance width="304"/>
  <unicode hex="0074"/>
  <outline>
    <contour>
      <point x="100" y="682" type="line"/>
      <point x="68" y="579" type="line"/>
      <point x="5" y="579" type="line"/>
      <point x="5" y="486" type="line"/>
      <point x="63" y="486" type="line"/>
      <point x="63" y="134" type="line" smooth="yes"/>
      <point x="63" y="46"/>
      <point x="104" y="-6"/>
      <point x="207" y="-6" type="curve" smooth="yes"/>
      <point x="250" y="-6"/>
      <point x="285" y="5"/>
      <point x="289" y="7" type="curve"/>
      <point x="289" y="104" type="line"/>
      <point x="284" y="102"/>
      <point x="258" y="91"/>
      <point x="226" y="91" type="curve" smooth="yes"/>
      <point x="189" y="91"/>
      <point x="172" y="107"/>
      <point x="172" y="143" type="curve" smooth="yes"/>
      <point x="172" y="486" type="line"/>
      <point x="281" y="486" type="line"/>
      <point x="281" y="579" type="line"/>
      <point x="172" y="579" type="line"/>
      <point x="172" y="682" type="line"/>
    </contour>
  </outline>
</glyph>
<glyph name="u" format="1">
  <advance width="459"/>
  <unicode hex="0075"/>
  <outline>
    <contour>
      <point x="293" y="579" type="line"/>
      <point x="293" y="118" type="line"/>
      <point x="287" y="115"/>
      <point x="257" y="96"/>
      <point x="218" y="96" type="curve" smooth="yes"/>
      <point x="180" y="96"/>
      <point x="162" y="116"/>
      <point x="162" y="154" type="curve" smooth="yes"/>
      <point x="162" y="579" type="line"/>
      <point x="53" y="579" type="line"/>
      <point x="53" y="136" type="line" smooth="yes"/>
      <point x="53" y="48"/>
      <point x="99" y="-1"/>
      <point x="188" y="-1" type="curve" smooth="yes"/>
      <point x="247" y="-1"/>
      <point x="287" y="21"/>
      <point x="298" y="27" type="curve"/>
      <point x="298" y="0" type="line"/>
      <point x="401" y="0" type="line"/>
      <point x="401" y="579" type="line"/>
    </contour>
  </outline>
</glyph>
<glyph name="v" format="1">
  <advance width="410"/>
  <unicode hex="0076"/>
  <outline>
    <contour>
      <point x="291" y="579" type="line"/>
      <point x="248" y="353" type="line" smooth="yes"/>
      <point x="221" y="210"/>
      <point x="207" y="82"/>
      <point x="207" y="82" type="curve"/>
      <point x="207" y="82"/>
      <point x="195" y="209"/>
      <point x="166" y="355" type="curve" smooth="yes"/>
      <point x="121" y="579" type="line"/>
      <point x="11" y="579" type="line"/>
      <point x="138" y="0" type="line"/>
      <point x="274" y="0" type="line"/>
      <point x="399" y="579" type="line"/>
    </contour>
  </outline>
</glyph>
<glyph name="w" format="1">
  <advance width="610"/>
  <unicode hex="0077"/>
  <outline>
    <contour>
      <point x="489" y="579" type="line"/>
      <point x="432" y="129" type="line"/>
      <point x="359" y="579" type="line"/>
      <point x="253" y="579" type="line"/>
      <point x="181" y="130" type="line"/>
      <point x="124" y="579" type="line"/>
      <point x="11" y="579" type="line"/>
      <point x="112" y="0" type="line"/>
      <point x="242" y="0" type="line"/>
      <point x="281" y="251" type="line"/>
      <point x="293" y="321"/>
      <point x="303" y="399"/>
      <point x="307" y="433" type="curve"/>
      <point x="311" y="399"/>
      <point x="322" y="314"/>
      <point x="332" y="250" type="curve" smooth="yes"/>
      <point x="370" y="0" type="line"/>
      <point x="502" y="0" type="line"/>
      <point x="599" y="579" type="line"/>
    </contour>
  </outline>
</glyph>
<glyph name="x" format="1">
  <advance width="384"/>
  <unicode hex="0078"/>
  <outline>
    <contour>
      <point x="260" y="579" type="line"/>
      <point x="192" y="396" type="line"/>
      <point x="124" y="579" type="line"/>
      <point x="8" y="579" type="line"/>
      <point x="135" y="291" type="line"/>
      <point x="7" y="0" type="line"/>
      <point x="124" y="0" type="line"/>
      <point x="192" y="188" type="line"/>
      <point x="260" y="0" type="line"/>
      <point x="377" y="0" type="line"/>
      <point x="247" y="291" type="line"/>
      <point x="377" y="579" type="line"/>
    </contour>
  </outline>
</glyph>
<glyph name="y" format="1">
  <advance width="416"/>
  <unicode hex="0079"/>
  <outline>
    <contour>
      <point x="296" y="579" type="line"/>
      <point x="249" y="342" type="line"/>
      <point x="222" y="202"/>
      <point x="209" y="82"/>
      <point x="209" y="82" type="curve"/>
      <point x="209" y="82"/>
      <point x="198" y="201"/>
      <point x="170" y="343" type="curve" smooth="yes"/>
      <point x="122" y="579" type="line"/>
      <point x="14" y="579" type="line"/>
      <point x="136" y="0" type="line"/>
      <point x="178" y="0" type="line"/>
      <point x="149" y="-149" type="line"/>
      <point x="253" y="-149" type="line"/>
      <point x="402" y="579" type="line"/>
    </contour>
  </outline>
</glyph>
<glyph name="z" format="1">
  <advance width="341"/>
  <unicode hex="007A"/>
  <outline>
    <contour>
      <point x="24" y="579" type="line"/>
      <point x="24" y="487" type="line"/>
      <point x="203" y="487" type="line"/>
      <point x="20" y="72" type="line"/>
      <point x="20" y="0" type="line"/>
      <point x="320" y="0" type="line"/>
      <point x="320" y="92" type="line"/>
      <point x="136" y="92" type="line"/>
      <point x="319" y="508" type="line"/>
      <point x="319" y="579" type="line"/>
    </contour>
  </outline>
</glyph>
<glyph name="braceleft" format="1">
  <advance width="380"/>
  <unicode hex="007B"/>
  <outline>
    <contour>
      <point x="227" y="669" type="line"/>
      <point x="227" y="701"/>
      <point x="244" y="723"/>
      <point x="289" y="723" type="curve" smooth="yes"/>
      <point x="318" y="723" type="line"/>
      <point x="318" y="815" type="line"/>
      <point x="282" y="815" type="line" smooth="yes"/>
      <point x="186" y="815"/>
      <point x="133" y="755"/>
      <point x="133" y="665" type="curve" smooth="yes"/>
      <point x="133" y="442" type="line" smooth="yes"/>
      <point x="133" y="400"/>
      <point x="107" y="377"/>
      <point x="60" y="377" type="curve" smooth="yes"/>
      <point x="57" y="377" type="line"/>
      <point x="57" y="284" type="line"/>
      <point x="60" y="284" type="line" smooth="yes"/>
      <point x="107" y="284"/>
      <point x="133" y="261"/>
      <point x="133" y="219" type="curve" smooth="yes"/>
      <point x="133" y="-5" type="line" smooth="yes"/>
      <point x="133" y="-95"/>
      <point x="186" y="-155"/>
      <point x="282" y="-155" type="curve" smooth="yes"/>
      <point x="318" y="-155" type="line"/>
      <point x="318" y="-62" type="line"/>
      <point x="289" y="-62" type="line" smooth="yes"/>
      <point x="244" y="-62"/>
      <point x="227" y="-41"/>
      <point x="227" y="-9" type="curve" smooth="yes"/>
      <point x="227" y="195" type="line" smooth="yes"/>
      <point x="227" y="273"/>
      <point x="210" y="320"/>
      <point x="138" y="331" type="curve"/>
      <point x="210" y="343"/>
      <point x="227" y="393"/>
      <point x="227" y="472" type="curve" smooth="yes"/>
    </contour>
  </outline>
</glyph>
<glyph name="bar" format="1">
  <advance width="215"/>
  <unicode hex="007C"/>
  <outline>
    <contour>
      <point x="69" y="840" type="line"/>
      <point x="69" y="-169" type="line"/>
      <point x="145" y="-169" type="line"/>
      <point x="145" y="840" type="line"/>
    </contour>
  </outline>
</glyph>
<glyph name="braceright" format="1">
  <advance width="378"/>
  <unicode hex="007D"/>
  <outline>
    <contour>
      <point x="316" y="377" type="line"/>
      <point x="269" y="377"/>
      <point x="243" y="400"/>
      <point x="243" y="442" type="curve" smooth="yes"/>
      <point x="243" y="665" type="line" smooth="yes"/>
      <point x="243" y="755"/>
      <point x="190" y="815"/>
      <point x="94" y="815" type="curve" smooth="yes"/>
      <point x="58" y="815" type="line"/>
      <point x="58" y="723" type="line"/>
      <point x="87" y="723" type="line" smooth="yes"/>
      <point x="132" y="723"/>
      <point x="149" y="701"/>
      <point x="149" y="669" type="curve" smooth="yes"/>
      <point x="149" y="472" type="line" smooth="yes"/>
      <point x="149" y="393"/>
      <point x="166" y="343"/>
      <point x="238" y="331" type="curve"/>
      <point x="166" y="320"/>
      <point x="149" y="273"/>
      <point x="149" y="195" type="curve" smooth="yes"/>
      <point x="149" y="-9" type="line" smooth="yes"/>
      <point x="149" y="-41"/>
      <point x="132" y="-62"/>
      <point x="87" y="-62" type="curve" smooth="yes"/>
      <point x="58" y="-62" type="line"/>
      <point x="58" y="-155" type="line"/>
      <point x="94" y="-155" type="line" smooth="yes"/>
      <point x="190" y="-155"/>
      <point x="243" y="-95"/>
      <point x="243" y="-5" type="curve" smooth="yes"/>
      <point x="243" y="219" type="line" smooth="yes"/>
      <point x="243" y="261"/>
      <point x="269" y="284"/>
      <point x="316" y="284" type="curve" smooth="yes"/>
      <point x="320" y="284" type="line"/>
      <point x="320" y="377" type="line"/>
    </contour>
  </outline>
</glyph>
<glyph name="asciitilde" format="1">
  <advance width="520"/>
  <unicode hex="007E"/>
  <outline>
    <contour>
      <point x="397" y="417" type="line"/>
      <point x="407" y="359"/>
      <point x="367" y="350"/>
      <point x="317" y="371" type="curve" smooth="yes"/>
      <point x="204" y="414" type="line" smooth="yes"/>
      <point x="115" y="448"/>
      <point x="24" y="423"/>
      <point x="24" y="316" type="curve"/>
      <point x="24" y="293"/>
      <point x="28" y="272"/>
      <point x="28" y="272" type="curve"/>
      <point x="122" y="272" type="line"/>
      <point x="112" y="330"/>
      <point x="153" y="338"/>
      <point x="201" y="318" type="curve"/>
      <point x="314" y="275" type="line"/>
      <point x="404" y="241"/>
      <point x="494" y="266"/>
      <point x="494" y="373" type="curve"/>
      <point x="494" y="398"/>
      <point x="490" y="417"/>
      <point x="490" y="417" type="curve"/>
    </contour>
  </outline>
</glyph>
<glyph name="cent" format="1">
  <advance width="390"/>
  <unicode hex="00A2"/>
  <outline>
    <contour>
      <point x="178" y="28" type="line"/>
      <point x="178" y="-72" type="line"/>
      <point x="278" y="-72" type="line"/>
      <point x="278" y="28" type="line"/>
    </contour>
    <contour>
      <point x="181" y="654" type="line"/>
      <point x="181" y="559" type="line"/>
      <point x="281" y="559" type="line"/>
      <point x="281" y="654" type="line"/>
    </contour>
    <component base="c" xOffset="5"/>
  </outline>
</glyph>
<glyph name="sterling" format="1">
  <advance width="488"/>
  <unicode hex="00A3"/>
  <outline>
    <contour>
      <point x="119" y="507" type="curve" smooth="yes"/>
      <point x="119" y="188" type="line" smooth="yes"/>
      <point x="119" y="110"/>
      <point x="71" y="101"/>
      <point x="50" y="94" type="curve"/>
      <point x="50" y="0" type="line"/>
      <point x="440" y="0" type="line"/>
      <point x="440" y="96" type="line"/>
      <point x="180" y="96" type="line"/>
      <point x="201" y="110"/>
      <point x="227" y="131"/>
      <point x="227" y="203" type="curve"/>
      <point x="227" y="500" type="line" smooth="yes"/>
      <point x="227" y="553"/>
      <point x="247" y="585"/>
      <point x="318" y="585" type="curve" smooth="yes"/>
      <point x="365" y="585"/>
      <point x="400" y="577"/>
      <point x="431" y="567" type="curve"/>
      <point x="431" y="669" type="line"/>
      <point x="407" y="676"/>
      <point x="365" y="685"/>
      <point x="313" y="685" type="curve" smooth="yes"/>
      <point x="184" y="685"/>
      <point x="119" y="621"/>
    </contour>
    <contour>
      <point x="57" y="394" type="line"/>
      <point x="57" y="303" type="line"/>
      <point x="382" y="303" type="line"/>
      <point x="382" y="394" type="line"/>
    </contour>
  </outline>
</glyph>
<glyph name="currency" format="1">
  <advance width="460"/>
  <unicode hex="00A4"/>
  <outline>
    <contour>
      <point x="54" y="389" type="curve" smooth="yes"/>
      <point x="54" y="293" type="line" smooth="yes"/>
      <point x="54" y="195"/>
      <point x="104" y="129"/>
      <point x="232" y="129" type="curve" smooth="yes"/>
      <point x="360" y="129"/>
      <point x="410" y="195"/>
      <point x="410" y="293" type="curve" smooth="yes"/>
      <point x="410" y="389" type="line" smooth="yes"/>
      <point x="410" y="486"/>
      <point x="360" y="553"/>
      <point x="232" y="553" type="curve" smooth="yes"/>
      <point x="104" y="553"/>
      <point x="54" y="486"/>
    </contour>
    <contour>
      <point x="23" y="164" type="line"/>
      <point x="87" y="100" type="line"/>
      <point x="177" y="190" type="line"/>
      <point x="114" y="254" type="line"/>
    </contour>
    <contour>
      <point x="288" y="188" type="line"/>
      <point x="376" y="100" type="line"/>
      <point x="440" y="164" type="line"/>
      <point x="355" y="248" type="line"/>
    </contour>
    <contour>
      <point x="305" y="386" type="curve" smooth="yes"/>
      <point x="305" y="296" type="line" smooth="yes"/>
      <point x="305" y="250"/>
      <point x="288" y="223"/>
      <point x="232" y="223" type="curve" smooth="yes"/>
      <point x="175" y="223"/>
      <point x="158" y="250"/>
      <point x="158" y="296" type="curve" smooth="yes"/>
      <point x="158" y="386" type="line" smooth="yes"/>
      <point x="158" y="432"/>
      <point x="175" y="458"/>
      <point x="232" y="458" type="curve" smooth="yes"/>
      <point x="288" y="458"/>
      <point x="305" y="431"/>
    </contour>
    <contour>
      <point x="23" y="517" type="line"/>
      <point x="115" y="427" type="line"/>
      <point x="181" y="488" type="line"/>
      <point x="87" y="581" type="line"/>
    </contour>
    <contour>
      <point x="291" y="496" type="line"/>
      <point x="347" y="425" type="line"/>
      <point x="441" y="517" type="line"/>
      <point x="377" y="581" type="line"/>
    </contour>
  </outline>
</glyph>
<glyph name="yen" format="1">
  <advance width="515"/>
  <unicode hex="00A5"/>
  <outline>
    <contour>
      <point x="375" y="672" type="line"/>
      <point x="294" y="440" type="line"/>
      <point x="263" y="343" type="line"/>
      <point x="232" y="440" type="line"/>
      <point x="149" y="672" type="line"/>
      <point x="40" y="672" type="line"/>
      <point x="130" y="428" type="line"/>
      <point x="42" y="428" type="line"/>
      <point x="42" y="344" type="line"/>
      <point x="160" y="344" type="line"/>
      <point x="190" y="264" type="line"/>
      <point x="42" y="264" type="line"/>
      <point x="42" y="180" type="line"/>
      <point x="208" y="180" type="line"/>
      <point x="208" y="0" type="line"/>
      <point x="315" y="0" type="line"/>
      <point x="315" y="180" type="line"/>
      <point x="476" y="180" type="line"/>
      <point x="476" y="264" type="line"/>
      <point x="332" y="264" type="line"/>
      <point x="362" y="344" type="line"/>
      <point x="476" y="344" type="line"/>
      <point x="476" y="428" type="line"/>
      <point x="392" y="428" type="line"/>
      <point x="483" y="672" type="line"/>
    </contour>
  </outline>
</glyph>
<glyph name="brokenbar" format="1">
  <advance width="216"/>
  <unicode hex="00A6"/>
  <outline>
    <contour>
      <point x="69" y="840" type="line"/>
      <point x="69" y="456" type="line"/>
      <point x="145" y="456" type="line"/>
      <point x="145" y="840" type="line"/>
    </contour>
    <contour>
      <point x="69" y="215" type="line"/>
      <point x="69" y="-169" type="line"/>
      <point x="145" y="-169" type="line"/>
      <point x="145" y="215" type="line"/>
    </contour>
  </outline>
</glyph>
<glyph name="section" format="1">
  <advance width="383"/>
  <unicode hex="00A7"/>
  <outline>
    <contour>
      <point x="31" y="536" type="curve" smooth="yes"/>
      <point x="31" y="525" type="line" smooth="yes"/>
      <point x="31" y="460"/>
      <point x="62" y="424"/>
      <point x="109" y="398" type="curve" smooth="yes"/>
      <point x="187" y="355" type="line" smooth="yes"/>
      <point x="235" y="328"/>
      <point x="250" y="316"/>
      <point x="250" y="286" type="curve" smooth="yes"/>
      <point x="250" y="267" type="line"/>
      <point x="355" y="267" type="line"/>
      <point x="355" y="294" type="line" smooth="yes"/>
      <point x="355" y="357"/>
      <point x="322" y="392"/>
      <point x="270" y="420" type="curve" smooth="yes"/>
      <point x="186" y="466" type="line" smooth="yes"/>
      <point x="147" y="486"/>
      <point x="137" y="496"/>
      <point x="137" y="529" type="curve" smooth="yes"/>
      <point x="137" y="570"/>
      <point x="151" y="589"/>
      <point x="225" y="589" type="curve" smooth="yes"/>
      <point x="266" y="589"/>
      <point x="312" y="580"/>
      <point x="334" y="573" type="curve"/>
      <point x="334" y="670" type="line"/>
      <point x="305" y="679"/>
      <point x="259" y="685"/>
      <point x="218" y="685" type="curve" smooth="yes"/>
      <point x="82" y="685"/>
      <point x="31" y="632"/>
    </contour>
    <contour>
      <point x="143" y="271" type="line"/>
      <point x="39" y="271" type="line"/>
      <point x="39" y="244" type="line" smooth="yes"/>
      <point x="39" y="179"/>
      <point x="69" y="143"/>
      <point x="116" y="117" type="curve" smooth="yes"/>
      <point x="194" y="74" type="line" smooth="yes"/>
      <point x="245" y="45"/>
      <point x="255" y="33"/>
      <point x="255" y="5" type="curve" smooth="yes"/>
      <point x="255" y="-34"/>
      <point x="234" y="-53"/>
      <point x="151" y="-53" type="curve" smooth="yes"/>
      <point x="106" y="-53"/>
      <point x="64" y="-45"/>
      <point x="40" y="-37" type="curve"/>
      <point x="40" y="-136" type="line"/>
      <point x="70" y="-144"/>
      <point x="106" y="-150"/>
      <point x="164" y="-150" type="curve" smooth="yes"/>
      <point x="299" y="-150"/>
      <point x="363" y="-97"/>
      <point x="363" y="3" type="curve" smooth="yes"/>
      <point x="363" y="13" type="line" smooth="yes"/>
      <point x="363" y="76"/>
      <point x="328" y="111"/>
      <point x="278" y="139" type="curve" smooth="yes"/>
      <point x="194" y="187" type="line" smooth="yes"/>
      <point x="155" y="208"/>
      <point x="143" y="220"/>
      <point x="143" y="251" type="curve" smooth="yes"/>
    </contour>
  </outline>
</glyph>
<glyph name="dieresis" format="1">
  <advance width="350"/>
  <unicode hex="00A8"/>
  <outline>
    <contour>
      <point x="52" y="676" type="curve" smooth="yes"/>
      <point x="52" y="650"/>
      <point x="63" y="631"/>
      <point x="99" y="631" type="curve" smooth="yes"/>
      <point x="135" y="631"/>
      <point x="147" y="650"/>
      <point x="147" y="676" type="curve" smooth="yes"/>
      <point x="147" y="704"/>
      <point x="135" y="722"/>
      <point x="99" y="722" type="curve" smooth="yes"/>
      <point x="63" y="722"/>
      <point x="52" y="704"/>
    </contour>
    <contour>
      <point x="203" y="676" type="curve" smooth="yes"/>
      <point x="203" y="650"/>
      <point x="215" y="631"/>
      <point x="251" y="631" type="curve" smooth="yes"/>
      <point x="287" y="631"/>
      <point x="298" y="650"/>
      <point x="298" y="676" type="curve" smooth="yes"/>
      <point x="298" y="704"/>
      <point x="287" y="722"/>
      <point x="251" y="722" type="curve" smooth="yes"/>
      <point x="215" y="722"/>
      <point x="203" y="704"/>
    </contour>
  </outline>
</glyph>
<glyph name="copyright" format="1">
  <advance width="697"/>
  <unicode hex="00A9"/>
  <outline>
    <contour>
      <point x="41" y="329" type="curve" smooth="yes"/>
      <point x="41" y="138"/>
      <point x="101" y="0"/>
      <point x="349" y="0" type="curve" smooth="yes"/>
      <point x="594" y="0"/>
      <point x="655" y="141"/>
      <point x="655" y="329" type="curve" smooth="yes"/>
      <point x="655" y="523"/>
      <point x="601" y="660"/>
      <point x="349" y="660" type="curve" smooth="yes"/>
      <point x="100" y="660"/>
      <point x="41" y="520"/>
    </contour>
    <contour>
      <point x="226" y="388" type="curve" smooth="yes"/>
      <point x="226" y="272" type="line" smooth="yes"/>
      <point x="226" y="197"/>
      <point x="262" y="151"/>
      <point x="359" y="151" type="curve" smooth="yes"/>
      <point x="398" y="151"/>
      <point x="427" y="158"/>
      <point x="436" y="160" type="curve"/>
      <point x="436" y="231" type="line"/>
      <point x="406" y="225"/>
      <point x="390" y="223"/>
      <point x="361" y="223" type="curve" smooth="yes"/>
      <point x="309" y="223"/>
      <point x="305" y="245"/>
      <point x="305" y="274" type="curve" smooth="yes"/>
      <point x="305" y="386" type="line" smooth="yes"/>
      <point x="305" y="416"/>
      <point x="309" y="438"/>
      <point x="361" y="438" type="curve" smooth="yes"/>
      <point x="389" y="438"/>
      <point x="405" y="435"/>
      <point x="435" y="429" type="curve"/>
      <point x="435" y="500" type="line"/>
      <point x="426" y="502"/>
      <point x="398" y="509"/>
      <point x="359" y="509" type="curve" smooth="yes"/>
      <point x="262" y="509"/>
      <point x="226" y="464"/>
    </contour>
    <contour>
      <point x="573" y="329" type="curve" smooth="yes"/>
      <point x="573" y="185"/>
      <point x="549" y="78"/>
      <point x="349" y="78" type="curve" smooth="yes"/>
      <point x="145" y="78"/>
      <point x="124" y="182"/>
      <point x="124" y="329" type="curve" smooth="yes"/>
      <point x="124" y="476"/>
      <point x="142" y="581"/>
      <point x="349" y="581" type="curve" smooth="yes"/>
      <point x="556" y="581"/>
      <point x="573" y="478"/>
    </contour>
  </outline>
</glyph>
<glyph name="ordfeminine" format="1">
  <advance width="335"/>
  <unicode hex="00AA"/>
  <outline>
    <contour>
      <point x="53" y="728" type="curve"/>
      <point x="53" y="662" type="line"/>
      <point x="87" y="672"/>
      <point x="139" y="679"/>
      <point x="164" y="679" type="curve" smooth="yes"/>
      <point x="211" y="679"/>
      <point x="228" y="663"/>
      <point x="229" y="636" type="curve"/>
      <point x="229" y="563" type="line"/>
      <point x="148" y="544" type="line" smooth="yes"/>
      <point x="77" y="524"/>
      <point x="35" y="497"/>
      <point x="35" y="433" type="curve" smooth="yes"/>
      <point x="35" y="399" type="line" smooth="yes"/>
      <point x="35" y="326"/>
      <point x="68" y="289"/>
      <point x="142" y="289" type="curve" smooth="yes"/>
      <point x="176" y="289"/>
      <point x="211" y="301"/>
      <point x="229" y="322" type="curve"/>
      <point x="229" y="286" type="line"/>
      <point x="301" y="286" type="line"/>
      <point x="301" y="636" type="line" smooth="yes"/>
      <point x="301" y="703"/>
      <point x="260" y="744"/>
      <point x="167" y="744" type="curve" smooth="yes"/>
      <point x="136" y="744"/>
      <point x="86" y="739"/>
    </contour>
    <contour>
      <point x="229" y="371" type="line"/>
      <point x="214" y="356"/>
      <point x="187" y="348"/>
      <point x="163" y="348" type="curve" smooth="yes"/>
      <point x="117" y="348"/>
      <point x="106" y="366"/>
      <point x="106" y="400" type="curve" smooth="yes"/>
      <point x="106" y="427" type="line" smooth="yes"/>
      <point x="106" y="457"/>
      <point x="124" y="473"/>
      <point x="162" y="483" type="curve" smooth="yes"/>
      <point x="229" y="498" type="line"/>
    </contour>
  </outline>
</glyph>
<glyph name="guillemotleft" format="1">
  <advance width="547"/>
  <unicode hex="00AB"/>
  <outline>
    <contour>
      <point x="386" y="505" type="line"/>
      <point x="265" y="322" type="line"/>
      <point x="386" y="139" type="line"/>
      <point x="495" y="139" type="line"/>
      <point x="373" y="322" type="line"/>
      <point x="495" y="505" type="line"/>
    </contour>
    <contour>
      <point x="181" y="505" type="line"/>
      <point x="60" y="322" type="line"/>
      <point x="181" y="139" type="line"/>
      <point x="291" y="139" type="line"/>
      <point x="169" y="322" type="line"/>
      <point x="291" y="505" type="line"/>
    </contour>
  </outline>
</glyph>
<glyph name="logicalnot" format="1">
  <advance width="491"/>
  <unicode hex="00AC"/>
  <outline>
    <contour>
      <point x="57" y="383" type="line"/>
      <point x="57" y="287" type="line"/>
      <point x="324" y="287" type="line"/>
      <point x="324" y="180" type="line"/>
      <point x="434" y="180" type="line"/>
      <point x="434" y="383" type="line"/>
    </contour>
  </outline>
</glyph>
<glyph name="registered" format="1">
  <advance width="556"/>
  <unicode hex="00AE"/>
  <outline>
    <contour>
      <point x="82" y="523" type="curve" smooth="yes"/>
      <point x="82" y="382"/>
      <point x="125" y="294"/>
      <point x="297" y="294" type="curve" smooth="yes"/>
      <point x="472" y="294"/>
      <point x="514" y="384"/>
      <point x="514" y="523" type="curve" smooth="yes"/>
      <point x="514" y="666"/>
      <point x="472" y="753"/>
      <point x="298" y="753" type="curve" smooth="yes"/>
      <point x="126" y="753"/>
      <point x="82" y="664"/>
    </contour>
    <contour>
      <point x="301" y="507" type="line"/>
      <point x="343" y="390" type="line"/>
      <point x="402" y="390" type="line"/>
      <point x="353" y="507" type="line"/>
    </contour>
    <contour>
      <point x="458" y="523" type="curve" smooth="yes"/>
      <point x="458" y="409"/>
      <point x="444" y="346"/>
      <point x="297" y="346" type="curve" smooth="yes"/>
      <point x="151" y="346"/>
      <point x="138" y="408"/>
      <point x="138" y="523" type="curve" smooth="yes"/>
      <point x="138" y="640"/>
      <point x="150" y="702"/>
      <point x="298" y="702" type="curve" smooth="yes"/>
      <point x="445" y="702"/>
      <point x="458" y="641"/>
    </contour>
    <contour>
      <point x="217" y="660" type="line"/>
      <point x="217" y="390" type="line"/>
      <point x="271" y="390" type="line"/>
      <point x="271" y="488" type="line"/>
      <point x="294" y="488" type="line"/>
      <point x="353" y="488"/>
      <point x="390" y="510"/>
      <point x="390" y="576" type="curve" smooth="yes"/>
      <point x="390" y="639"/>
      <point x="353" y="660"/>
      <point x="295" y="660" type="curve" smooth="yes"/>
    </contour>
    <contour>
      <point x="338" y="576" type="curve" smooth="yes"/>
      <point x="338" y="540"/>
      <point x="325" y="532"/>
      <point x="289" y="532" type="curve" smooth="yes"/>
      <point x="271" y="532" type="line"/>
      <point x="271" y="614" type="line"/>
      <point x="295" y="614" type="line" smooth="yes"/>
      <point x="322" y="614"/>
      <point x="338" y="611"/>
    </contour>
  </outline>
</glyph>
<glyph name="macron" format="1">
  <advance width="350"/>
  <unicode hex="00AF"/>
  <outline>
    <contour>
      <point x="53" y="708" type="line"/>
      <point x="53" y="647" type="line"/>
      <point x="296" y="647" type="line"/>
      <point x="296" y="708" type="line"/>
    </contour>
  </outline>
</glyph>
<glyph name="degree" format="1">
  <advance width="403"/>
  <unicode hex="00B0"/>
  <outline>
    <contour>
      <point x="47" y="661" type="curve" smooth="yes"/>
      <point x="47" y="568"/>
      <point x="90" y="500"/>
      <point x="202" y="500" type="curve" smooth="yes"/>
      <point x="315" y="500"/>
      <point x="358" y="568"/>
      <point x="358" y="661" type="curve" smooth="yes"/>
      <point x="358" y="754"/>
      <point x="315" y="824"/>
      <point x="202" y="824" type="curve" smooth="yes"/>
      <point x="90" y="824"/>
      <point x="47" y="754"/>
    </contour>
    <contour>
      <point x="269" y="661" type="curve" smooth="yes"/>
      <point x="269" y="613"/>
      <point x="256" y="581"/>
      <point x="202" y="581" type="curve" smooth="yes"/>
      <point x="148" y="581"/>
      <point x="136" y="613"/>
      <point x="136" y="661" type="curve" smooth="yes"/>
      <point x="136" y="709"/>
      <point x="148" y="741"/>
      <point x="202" y="741" type="curve" smooth="yes"/>
      <point x="256" y="741"/>
      <point x="269" y="709"/>
    </contour>
  </outline>
</glyph>
<glyph name="plusminus" format="1">
  <advance width="466"/>
  <unicode hex="00B1"/>
  <outline>
    <contour>
      <point x="43" y="114" type="line"/>
      <point x="44" y="22" type="line"/>
      <point x="427" y="22" type="line"/>
      <point x="427" y="114" type="line"/>
    </contour>
    <contour>
      <point x="43" y="374" type="line"/>
      <point x="43" y="282" type="line"/>
      <point x="427" y="282" type="line"/>
      <point x="427" y="374" type="line"/>
    </contour>
    <contour>
      <point x="185" y="491" type="line"/>
      <point x="185" y="165" type="line"/>
      <point x="285" y="165" type="line"/>
      <point x="285" y="491" type="line"/>
    </contour>
  </outline>
</glyph>
<glyph name="twosuperior" format="1">
  <advance width="296"/>
  <unicode hex="00B2"/>
  <outline>
    <contour>
      <point x="43" y="734" type="curve"/>
      <point x="43" y="667" type="line"/>
      <point x="68" y="673"/>
      <point x="98" y="679"/>
      <point x="146" y="679" type="curve" smooth="yes"/>
      <point x="186" y="679"/>
      <point x="197" y="664"/>
      <point x="197" y="636" type="curve" smooth="yes"/>
      <point x="197" y="613" type="line" smooth="yes"/>
      <point x="197" y="583"/>
      <point x="195" y="568"/>
      <point x="168" y="549" type="curve" smooth="yes"/>
      <point x="96" y="499" type="line" smooth="yes"/>
      <point x="51" y="469"/>
      <point x="32" y="445"/>
      <point x="32" y="387" type="curve" smooth="yes"/>
      <point x="32" y="289" type="line"/>
      <point x="269" y="289" type="line"/>
      <point x="269" y="355" type="line"/>
      <point x="104" y="355" type="line"/>
      <point x="104" y="384" type="line" smooth="yes"/>
      <point x="104" y="419"/>
      <point x="108" y="425"/>
      <point x="151" y="455" type="curve" smooth="yes"/>
      <point x="217" y="503" type="line" smooth="yes"/>
      <point x="254" y="529"/>
      <point x="269" y="557"/>
      <point x="269" y="603" type="curve" smooth="yes"/>
      <point x="269" y="638" type="line" smooth="yes"/>
      <point x="269" y="706"/>
      <point x="231" y="744"/>
      <point x="148" y="744" type="curve" smooth="yes"/>
      <point x="91" y="744"/>
      <point x="56" y="737"/>
    </contour>
  </outline>
</glyph>
<glyph name="threesuperior" format="1">
  <advance width="298"/>
  <unicode hex="00B3"/>
  <outline>
    <contour>
      <point x="34" y="735" type="curve"/>
      <point x="34" y="668" type="line"/>
      <point x="63" y="674"/>
      <point x="85" y="679"/>
      <point x="133" y="679" type="curve" smooth="yes"/>
      <point x="173" y="679"/>
      <point x="186" y="664"/>
      <point x="186" y="636" type="curve" smooth="yes"/>
      <point x="186" y="594" type="line" smooth="yes"/>
      <point x="186" y="570"/>
      <point x="180" y="550"/>
      <point x="139" y="550" type="curve" smooth="yes"/>
      <point x="92" y="550" type="line"/>
      <point x="92" y="484" type="line"/>
      <point x="139" y="484" type="line" smooth="yes"/>
      <point x="180" y="483"/>
      <point x="186" y="465"/>
      <point x="186" y="441" type="curve" smooth="yes"/>
      <point x="186" y="393" type="line" smooth="yes"/>
      <point x="186" y="365"/>
      <point x="173" y="350"/>
      <point x="132" y="350" type="curve" smooth="yes"/>
      <point x="85" y="350"/>
      <point x="63" y="355"/>
      <point x="29" y="363" type="curve"/>
      <point x="29" y="296" type="line"/>
      <point x="49" y="290"/>
      <point x="78" y="284"/>
      <point x="135" y="284" type="curve" smooth="yes"/>
      <point x="218" y="284"/>
      <point x="257" y="323"/>
      <point x="257" y="391" type="curve" smooth="yes"/>
      <point x="257" y="441" type="line" smooth="yes"/>
      <point x="257" y="477"/>
      <point x="245" y="505"/>
      <point x="219" y="518" type="curve"/>
      <point x="246" y="531"/>
      <point x="257" y="561"/>
      <point x="257" y="594" type="curve" smooth="yes"/>
      <point x="257" y="640" type="line" smooth="yes"/>
      <point x="257" y="707"/>
      <point x="217" y="744"/>
      <point x="135" y="744" type="curve" smooth="yes"/>
      <point x="76" y="744"/>
      <point x="50" y="739"/>
    </contour>
  </outline>
</glyph>
<glyph name="acute" format="1">
  <advance width="350"/>
  <unicode hex="00B4"/>
  <outline>
    <contour>
      <point x="152" y="733" type="line"/>
      <point x="111" y="622" type="line"/>
      <point x="172" y="622" type="line"/>
      <point x="239" y="733" type="line"/>
    </contour>
  </outline>
</glyph>
<glyph name="mu.math" format="1">
  <advance width="460"/>
  <unicode hex="00B5"/>
  <outline>
    <contour>
      <point x="294" y="579" type="line"/>
      <point x="294" y="120" type="line"/>
      <point x="288" y="117"/>
      <point x="255" y="98"/>
      <point x="216" y="98" type="curve" smooth="yes"/>
      <point x="184" y="98"/>
      <point x="167" y="107"/>
      <point x="163" y="108" type="curve"/>
      <point x="163" y="579" type="line"/>
      <point x="54" y="579" type="line"/>
      <point x="54" y="-149" type="line"/>
      <point x="163" y="-149" type="line"/>
      <point x="163" y="6" type="line"/>
      <point x="175" y="3"/>
      <point x="194" y="0"/>
      <point x="213" y="1" type="curve" smooth="yes"/>
      <point x="259" y="4"/>
      <point x="291" y="22"/>
      <point x="299" y="27" type="curve"/>
      <point x="299" y="0" type="line"/>
      <point x="402" y="0" type="line"/>
      <point x="402" y="579" type="line"/>
    </contour>
  </outline>
</glyph>
<glyph name="paragraph" format="1">
  <advance width="432"/>
  <unicode hex="00B6"/>
  <outline>
    <contour>
      <point x="228" y="682" type="line"/>
      <point x="121" y="682"/>
      <point x="61" y="626"/>
      <point x="61" y="532" type="curve"/>
      <point x="61" y="435"/>
      <point x="121" y="379"/>
      <point x="228" y="379" type="curve" smooth="yes"/>
      <point x="259" y="379" type="line"/>
      <point x="259" y="0" type="line"/>
      <point x="368" y="0" type="line"/>
      <point x="368" y="682" type="line"/>
    </contour>
  </outline>
</glyph>
<glyph name="periodcentered" format="1">
  <advance width="249"/>
  <unicode hex="00B7"/>
  <outline>
    <contour>
      <point x="67" y="345" type="curve" smooth="yes"/>
      <point x="67" y="313"/>
      <point x="80" y="288"/>
      <point x="124" y="288" type="curve" smooth="yes"/>
      <point x="168" y="288"/>
      <point x="182" y="313"/>
      <point x="182" y="345" type="curve" smooth="yes"/>
      <point x="182" y="378"/>
      <point x="168" y="403"/>
      <point x="124" y="403" type="curve" smooth="yes"/>
      <point x="80" y="403"/>
      <point x="67" y="378"/>
    </contour>
  </outline>
</glyph>
<glyph name="cedilla" format="1">
  <advance width="350"/>
  <unicode hex="00B8"/>
  <outline>
    <contour>
      <point x="144" y="6" type="line"/>
      <point x="127" y="-73" type="line"/>
      <point x="140" y="-73" type="line" smooth="yes"/>
      <point x="168" y="-73"/>
      <point x="182" y="-83"/>
      <point x="182" y="-104" type="curve" smooth="yes"/>
      <point x="182" y="-123"/>
      <point x="165" y="-134"/>
      <point x="140" y="-134" type="curve" smooth="yes"/>
      <point x="126" y="-134"/>
      <point x="110" y="-131"/>
      <point x="102" y="-127" type="curve"/>
      <point x="102" y="-180" type="line"/>
      <point x="118" y="-184"/>
      <point x="136" y="-186"/>
      <point x="153" y="-186" type="curve" smooth="yes"/>
      <point x="208" y="-186"/>
      <point x="247" y="-157"/>
      <point x="247" y="-106" type="curve" smooth="yes"/>
      <point x="247" y="-61"/>
      <point x="213" y="-41"/>
      <point x="184" y="-39" type="curve"/>
      <point x="194" y="6" type="line"/>
    </contour>
  </outline>
</glyph>
<glyph name="onesuperior" format="1">
  <advance width="218"/>
  <unicode hex="00B9"/>
  <outline>
    <contour>
      <point x="98" y="739" type="line"/>
      <point x="16" y="678" type="line"/>
      <point x="16" y="596" type="line"/>
      <point x="102" y="662" type="line"/>
      <point x="102" y="288" type="line"/>
      <point x="174" y="288" type="line"/>
      <point x="174" y="739" type="line"/>
    </contour>
  </outline>
</glyph>
<glyph name="ordmasculine" format="1">
  <advance width="328"/>
  <unicode hex="00BA"/>
  <outline>
    <contour>
      <point x="45" y="635" type="curve" smooth="yes"/>
      <point x="45" y="395" type="line" smooth="yes"/>
      <point x="45" y="324"/>
      <point x="84" y="284"/>
      <point x="172" y="284" type="curve" smooth="yes"/>
      <point x="261" y="284"/>
      <point x="300" y="324"/>
      <point x="300" y="395" type="curve" smooth="yes"/>
      <point x="300" y="635" type="line" smooth="yes"/>
      <point x="300" y="706"/>
      <point x="261" y="746"/>
      <point x="172" y="746" type="curve" smooth="yes"/>
      <point x="84" y="746"/>
      <point x="45" y="706"/>
    </contour>
    <contour>
      <point x="228" y="638" type="curve" smooth="yes"/>
      <point x="228" y="394" type="line" smooth="yes"/>
      <point x="228" y="366"/>
      <point x="213" y="351"/>
      <point x="172" y="351" type="curve" smooth="yes"/>
      <point x="132" y="351"/>
      <point x="116" y="366"/>
      <point x="116" y="394" type="curve" smooth="yes"/>
      <point x="116" y="638" type="line" smooth="yes"/>
      <point x="116" y="665"/>
      <point x="133" y="679"/>
      <point x="172" y="679" type="curve" smooth="yes"/>
      <point x="212" y="679"/>
      <point x="227" y="665"/>
    </contour>
  </outline>
</glyph>
<glyph name="guillemotright" format="1">
  <advance width="545"/>
  <unicode hex="00BB"/>
  <outline>
    <contour>
      <point x="247" y="505" type="line"/>
      <point x="369" y="322" type="line"/>
      <point x="247" y="139" type="line"/>
      <point x="357" y="139" type="line"/>
      <point x="478" y="322" type="line"/>
      <point x="357" y="505" type="line"/>
    </contour>
    <contour>
      <point x="43" y="505" type="line"/>
      <point x="165" y="322" type="line"/>
      <point x="43" y="139" type="line"/>
      <point x="152" y="139" type="line"/>
      <point x="273" y="322" type="line"/>
      <point x="152" y="505" type="line"/>
    </contour>
  </outline>
</glyph>
<glyph name="onequarter" format="1">
  <advance width="807"/>
  <unicode hex="00BC"/>
  <outline>
    <contour>
      <point x="122" y="682" type="line"/>
      <point x="40" y="621" type="line"/>
      <point x="40" y="539" type="line"/>
      <point x="127" y="605" type="line"/>
      <point x="127" y="231" type="line"/>
      <point x="198" y="231" type="line"/>
      <point x="198" y="682" type="line"/>
    </contour>
    <contour>
      <point x="596" y="450" type="line"/>
      <point x="464" y="155" type="line"/>
      <point x="464" y="88" type="line"/>
      <point x="636" y="88" type="line"/>
      <point x="636" y="0" type="line"/>
      <point x="707" y="0" type="line"/>
      <point x="707" y="88" type="line"/>
      <point x="753" y="88" type="line"/>
      <point x="753" y="152" type="line"/>
      <point x="707" y="152" type="line"/>
      <point x="707" y="450" type="line"/>
    </contour>
    <contour>
      <point x="636" y="152" type="line"/>
      <point x="531" y="152" type="line"/>
      <point x="636" y="391" type="line"/>
    </contour>
    <contour>
      <point x="513" y="682" type="line"/>
      <point x="147" y="0" type="line"/>
      <point x="219" y="0" type="line"/>
      <point x="585" y="682" type="line"/>
    </contour>
  </outline>
</glyph>
<glyph name="threequarters" format="1">
  <advance width="838"/>
  <unicode hex="00BE"/>
  <outline>
    <contour>
      <point x="627" y="450" type="line"/>
      <point x="495" y="155" type="line"/>
      <point x="495" y="88" type="line"/>
      <point x="668" y="88" type="line"/>
      <point x="668" y="0" type="line"/>
      <point x="738" y="0" type="line"/>
      <point x="738" y="88" type="line"/>
      <point x="784" y="88" type="line"/>
      <point x="784" y="152" type="line"/>
      <point x="738" y="152" type="line"/>
      <point x="738" y="450" type="line"/>
    </contour>
    <contour>
      <point x="668" y="152" type="line"/>
      <point x="562" y="152" type="line"/>
      <point x="668" y="391" type="line"/>
    </contour>
    <contour>
      <point x="552" y="682" type="line"/>
      <point x="186" y="0" type="line"/>
      <point x="259" y="0" type="line"/>
      <point x="625" y="682" type="line"/>
    </contour>
    <contour>
      <point x="45" y="677" type="curve"/>
      <point x="45" y="611" type="line"/>
      <point x="74" y="617"/>
      <point x="97" y="621"/>
      <point x="144" y="621" type="curve" smooth="yes"/>
      <point x="185" y="621"/>
      <point x="197" y="607"/>
      <point x="197" y="579" type="curve" smooth="yes"/>
      <point x="197" y="537" type="line" smooth="yes"/>
      <point x="197" y="513"/>
      <point x="191" y="493"/>
      <point x="150" y="493" type="curve" smooth="yes"/>
      <point x="103" y="493" type="line"/>
      <point x="103" y="426" type="line"/>
      <point x="150" y="426" type="line" smooth="yes"/>
      <point x="191" y="426"/>
      <point x="197" y="408"/>
      <point x="197" y="384" type="curve" smooth="yes"/>
      <point x="197" y="336" type="line" smooth="yes"/>
      <point x="197" y="308"/>
      <point x="184" y="293"/>
      <point x="144" y="293" type="curve" smooth="yes"/>
      <point x="96" y="293"/>
      <point x="74" y="298"/>
      <point x="40" y="306" type="curve"/>
      <point x="40" y="239" type="line"/>
      <point x="60" y="233"/>
      <point x="89" y="227"/>
      <point x="146" y="227" type="curve" smooth="yes"/>
      <point x="229" y="227"/>
      <point x="269" y="266"/>
      <point x="269" y="334" type="curve" smooth="yes"/>
      <point x="269" y="384" type="line" smooth="yes"/>
      <point x="269" y="420"/>
      <point x="256" y="448"/>
      <point x="230" y="461" type="curve"/>
      <point x="257" y="474"/>
      <point x="269" y="504"/>
      <point x="269" y="537" type="curve" smooth="yes"/>
      <point x="269" y="583" type="line" smooth="yes"/>
      <point x="268" y="649"/>
      <point x="229" y="687"/>
      <point x="146" y="687" type="curve" smooth="yes"/>
      <point x="87" y="687"/>
      <point x="61" y="682"/>
    </contour>
  </outline>
</glyph>
<glyph name="AE" format="1">
  <advance width="690"/>
  <unicode hex="00C6"/>
  <outline>
    <contour>
      <point x="290" y="682" type="line"/>
      <point x="4" y="0" type="line"/>
      <point x="111" y="0" type="line"/>
      <point x="384" y="682" type="line"/>
    </contour>
    <contour>
      <point x="147" y="267" type="line"/>
      <point x="147" y="175" type="line"/>
      <point x="393" y="175" type="line"/>
      <point x="393" y="267" type="line"/>
    </contour>
    <contour>
      <point x="355" y="682" type="line"/>
      <point x="355" y="0" type="line"/>
      <point x="668" y="0" type="line"/>
      <point x="668" y="94" type="line"/>
      <point x="457" y="94" type="line"/>
      <point x="457" y="297" type="line"/>
      <point x="640" y="297" type="line"/>
      <point x="640" y="392" type="line"/>
      <point x="457" y="392" type="line"/>
      <point x="457" y="587" type="line"/>
      <point x="668" y="587" type="line"/>
      <point x="668" y="682" type="line"/>
    </contour>
  </outline>
</glyph>
<glyph name="Eth" format="1">
  <advance width="482"/>
  <unicode hex="00D0"/>
  <outline>
    <contour>
      <point x="-6" y="380" type="line"/>
      <point x="-6" y="290" type="line"/>
      <point x="255" y="290" type="line"/>
      <point x="255" y="380" type="line"/>
    </contour>
    <component base="D" xOffset="6"/>
  </outline>
</glyph>
<glyph name="multiply" format="1">
  <advance width="430"/>
  <unicode hex="00D7"/>
  <outline>
    <contour>
      <point x="37" y="442" type="line"/>
      <point x="328" y="151" type="line"/>
      <point x="393" y="216" type="line"/>
      <point x="102" y="507" type="line"/>
    </contour>
    <contour>
      <point x="36" y="216" type="line"/>
      <point x="101" y="151" type="line"/>
      <point x="392" y="442" type="line"/>
      <point x="327" y="507" type="line"/>
    </contour>
  </outline>
</glyph>
<glyph name="Oslash" format="1">
  <advance width="472"/>
  <unicode hex="00D8"/>
  <outline>
    <contour>
      <point x="356" y="682" type="line"/>
      <point x="45" y="0" type="line"/>
      <point x="115" y="0" type="line"/>
      <point x="427" y="682" type="line"/>
    </contour>
    <component base="O"/>
  </outline>
</glyph>
<glyph name="Thorn" format="1">
  <advance width="440"/>
  <unicode hex="00DE"/>
  <outline>
    <contour>
      <point x="154" y="569" type="line"/>
      <point x="154" y="476" type="line"/>
      <point x="246" y="476" type="line" smooth="yes"/>
      <point x="297" y="476"/>
      <point x="317" y="452"/>
      <point x="317" y="407" type="curve" smooth="yes"/>
      <point x="317" y="275" type="line" smooth="yes"/>
      <point x="317" y="231"/>
      <point x="297" y="207"/>
      <point x="246" y="207" type="curve" smooth="yes"/>
      <point x="156" y="207" type="line"/>
      <point x="156" y="113" type="line"/>
      <point x="253" y="113" type="line" smooth="yes"/>
      <point x="361" y="113"/>
      <point x="421" y="170"/>
      <point x="421" y="266" type="curve" smooth="yes"/>
      <point x="421" y="417" type="line" smooth="yes"/>
      <point x="421" y="513"/>
      <point x="361" y="569"/>
      <point x="253" y="569" type="curve" smooth="yes"/>
    </contour>
    <contour>
      <point x="68" y="682" type="line"/>
      <point x="68" y="0" type="line"/>
      <point x="172" y="0" type="line"/>
      <point x="172" y="682" type="line"/>
    </contour>
  </outline>
</glyph>
<glyph name="germandbls" format="1">
  <advance width="552"/>
  <unicode hex="00DF"/>
  <outline>
    <contour>
      <point x="58" y="537" type="curve" smooth="yes"/>
      <point x="58" y="0" type="line"/>
      <point x="160" y="0" type="line"/>
      <point x="160" y="529" type="line" smooth="yes"/>
      <point x="160" y="596"/>
      <point x="190" y="625"/>
      <point x="255" y="625" type="curve" smooth="yes"/>
      <point x="313" y="625"/>
      <point x="338" y="599"/>
      <point x="338" y="552" type="curve" smooth="yes"/>
      <point x="338" y="484"/>
      <point x="268" y="451"/>
      <point x="268" y="380" type="curve" smooth="yes"/>
      <point x="268" y="363" type="line" smooth="yes"/>
      <point x="268" y="312"/>
      <point x="300" y="282"/>
      <point x="359" y="245" type="curve" smooth="yes"/>
      <point x="403" y="217"/>
      <point x="428" y="196"/>
      <point x="428" y="165" type="curve" smooth="yes"/>
      <point x="428" y="152" type="line" smooth="yes"/>
      <point x="428" y="115"/>
      <point x="410" y="92"/>
      <point x="333" y="92" type="curve" smooth="yes"/>
      <point x="289" y="92"/>
      <point x="254" y="100"/>
      <point x="230" y="108" type="curve"/>
      <point x="230" y="10" type="line"/>
      <point x="260" y="3"/>
      <point x="287" y="-4"/>
      <point x="344" y="-4" type="curve" smooth="yes"/>
      <point x="475" y="-4"/>
      <point x="533" y="52"/>
      <point x="533" y="144" type="curve" smooth="yes"/>
      <point x="533" y="174" type="line" smooth="yes"/>
      <point x="533" y="230"/>
      <point x="499" y="263"/>
      <point x="452" y="294" type="curve" smooth="yes"/>
      <point x="399" y="327"/>
      <point x="377" y="348"/>
      <point x="377" y="374" type="curve" smooth="yes"/>
      <point x="377" y="385" type="line" smooth="yes"/>
      <point x="377" y="429"/>
      <point x="446" y="466"/>
      <point x="446" y="557" type="curve" smooth="yes"/>
      <point x="446" y="661"/>
      <point x="370" y="721"/>
      <point x="255" y="721" type="curve" smooth="yes"/>
      <point x="127" y="721"/>
      <point x="58" y="657"/>
    </contour>
  </outline>
</glyph>
<glyph name="ae" format="1">
  <advance width="652"/>
  <unicode hex="00E6"/>
  <outline>
    <contour>
      <point x="323" y="547" type="curve"/>
      <point x="296" y="571"/>
      <point x="254" y="584"/>
      <point x="195" y="584" type="curve" smooth="yes"/>
      <point x="133" y="584"/>
      <point x="78" y="572"/>
      <point x="55" y="564" type="curve"/>
      <point x="55" y="466" type="line"/>
      <point x="78" y="475"/>
      <point x="133" y="488"/>
      <point x="187" y="488" type="curve" smooth="yes"/>
      <point x="257" y="488"/>
      <point x="273" y="464"/>
      <point x="273" y="429" type="curve" smooth="yes"/>
      <point x="273" y="356" type="line"/>
      <point x="149" y="318" type="line" smooth="yes"/>
      <point x="64" y="293"/>
      <point x="29" y="250"/>
      <point x="29" y="171" type="curve" smooth="yes"/>
      <point x="29" y="137" type="line" smooth="yes"/>
      <point x="29" y="45"/>
      <point x="78" y="-4"/>
      <point x="175" y="-4" type="curve" smooth="yes"/>
      <point x="239" y="-4"/>
      <point x="292" y="10"/>
      <point x="325" y="35" type="curve"/>
      <point x="357" y="8"/>
      <point x="405" y="-6"/>
      <point x="472" y="-6" type="curve" smooth="yes"/>
      <point x="540" y="-6"/>
      <point x="575" y="3"/>
      <point x="605" y="12" type="curve"/>
      <point x="605" y="109" type="line"/>
      <point x="581" y="102"/>
      <point x="535" y="90"/>
      <point x="480" y="90" type="curve" smooth="yes"/>
      <point x="409" y="90"/>
      <point x="377" y="111"/>
      <point x="377" y="163" type="curve" smooth="yes"/>
      <point x="377" y="243" type="line"/>
      <point x="621" y="243" type="line"/>
      <point x="621" y="431" type="line" smooth="yes"/>
      <point x="621" y="524"/>
      <point x="571" y="589"/>
      <point x="449" y="589" type="curve" smooth="yes"/>
      <point x="392" y="589"/>
      <point x="350" y="570"/>
    </contour>
    <contour>
      <point x="275" y="104" type="line"/>
      <point x="253" y="89"/>
      <point x="222" y="80"/>
      <point x="192" y="80" type="curve" smooth="yes"/>
      <point x="152" y="80"/>
      <point x="132" y="98"/>
      <point x="132" y="137" type="curve"/>
      <point x="132" y="166" type="line" smooth="yes"/>
      <point x="132" y="208"/>
      <point x="143" y="226"/>
      <point x="191" y="240" type="curve" smooth="yes"/>
      <point x="275" y="263" type="line"/>
    </contour>
    <contour>
      <point x="519" y="429" type="curve" smooth="yes"/>
      <point x="519" y="328" type="line"/>
      <point x="377" y="328" type="line"/>
      <point x="377" y="429" type="line"/>
      <point x="377" y="471"/>
      <point x="400" y="497"/>
      <point x="449" y="497" type="curve" smooth="yes"/>
      <point x="498" y="497"/>
      <point x="519" y="471"/>
    </contour>
  </outline>
</glyph>
<glyph name="igrave" format="1">
  <advance width="224"/>
  <unicode hex="00EC"/>
  <outline>
    <contour>
      <point x="58" y="569" type="line"/>
      <point x="58" y="0" type="line"/>
      <point x="166" y="0" type="line"/>
      <point x="166" y="569" type="line"/>
    </contour>
    <component base="grave" xOffset="-101"/>
  </outline>
</glyph>
<glyph name="iacute" format="1">
  <advance width="224"/>
  <unicode hex="00ED"/>
  <outline>
    <contour>
      <point x="58" y="569" type="line"/>
      <point x="58" y="0" type="line"/>
      <point x="166" y="0" type="line"/>
      <point x="166" y="569" type="line"/>
    </contour>
    <component base="acute" xOffset="-31"/>
  </outline>
</glyph>
<glyph name="icircumflex" format="1">
  <advance width="224"/>
  <unicode hex="00EE"/>
  <outline>
    <contour>
      <point x="58" y="569" type="line"/>
      <point x="58" y="0" type="line"/>
      <point x="166" y="0" type="line"/>
      <point x="166" y="569" type="line"/>
    </contour>
    <component base="circumflex" xOffset="-62"/>
  </outline>
</glyph>
<glyph name="idieresis" format="1">
  <advance width="224"/>
  <unicode hex="00EF"/>
  <outline>
    <contour>
      <point x="58" y="569" type="line"/>
      <point x="58" y="0" type="line"/>
      <point x="166" y="0" type="line"/>
      <point x="166" y="569" type="line"/>
    </contour>
    <component base="dieresis" xOffset="-63"/>
  </outline>
</glyph>
<glyph name="divide" format="1">
  <advance width="466"/>
  <unicode hex="00F7"/>
  <outline>
    <contour>
      <point x="41" y="373" type="line"/>
      <point x="41" y="281" type="line"/>
      <point x="424" y="281" type="line"/>
      <point x="424" y="373" type="line"/>
    </contour>
    <contour>
      <point x="176" y="155" type="curve" smooth="yes"/>
      <point x="176" y="123"/>
      <point x="189" y="98"/>
      <point x="234" y="98" type="curve" smooth="yes"/>
      <point x="277" y="98"/>
      <point x="291" y="123"/>
      <point x="291" y="155" type="curve" smooth="yes"/>
      <point x="291" y="187"/>
      <point x="277" y="212"/>
      <point x="233" y="212" type="curve" smooth="yes"/>
      <point x="189" y="212"/>
      <point x="176" y="187"/>
    </contour>
    <contour>
      <point x="176" y="498" type="curve" smooth="yes"/>
      <point x="176" y="466"/>
      <point x="189" y="441"/>
      <point x="233" y="441" type="curve" smooth="yes"/>
      <point x="277" y="441"/>
      <point x="291" y="466"/>
      <point x="291" y="498" type="curve" smooth="yes"/>
      <point x="291" y="530"/>
      <point x="277" y="555"/>
      <point x="233" y="555" type="curve" smooth="yes"/>
      <point x="189" y="555"/>
      <point x="176" y="530"/>
    </contour>
  </outline>
</glyph>
<glyph name="oslash" format="1">
  <advance width="446"/>
  <unicode hex="00F8"/>
  <outline>
    <contour>
      <point x="354" y="579" type="line"/>
      <point x="40" y="0" type="line"/>
      <point x="96" y="0" type="line"/>
      <point x="410" y="579" type="line"/>
    </contour>
    <component base="o"/>
  </outline>
</glyph>
<glyph name="thorn" format="1">
  <advance width="459"/>
  <unicode hex="00FE"/>
  <outline>
    <contour>
      <point x="58" y="733" type="line"/>
      <point x="58" y="-166" type="line"/>
      <point x="166" y="-166" type="line"/>
      <point x="166" y="0" type="line"/>
      <point x="257" y="0" type="line" smooth="yes"/>
      <point x="345" y="0"/>
      <point x="407" y="49"/>
      <point x="407" y="148" type="curve" smooth="yes"/>
      <point x="407" y="452" type="line" smooth="yes"/>
      <point x="407" y="539"/>
      <point x="353" y="581"/>
      <point x="277" y="581" type="curve" smooth="yes"/>
      <point x="230" y="581"/>
      <point x="188" y="566"/>
      <point x="166" y="555" type="curve"/>
      <point x="166" y="733" type="line"/>
    </contour>
    <contour>
      <point x="297" y="432" type="curve" smooth="yes"/>
      <point x="297" y="160" type="line" smooth="yes"/>
      <point x="297" y="118"/>
      <point x="273" y="97"/>
      <point x="230" y="97" type="curve" smooth="yes"/>
      <point x="166" y="97" type="line"/>
      <point x="166" y="462" type="line"/>
      <point x="188" y="473"/>
      <point x="215" y="482"/>
      <point x="244" y="482" type="curve" smooth="yes"/>
      <point x="278" y="482"/>
      <point x="297" y="466"/>
    </contour>
  </outline>
</glyph>
<glyph name="Dcroat" format="1">
  <advance width="482"/>
  <unicode hex="0110"/>
  <outline>
    <contour>
      <point x="1" y="383" type="line"/>
      <point x="1" y="292" type="line"/>
      <point x="251" y="292" type="line"/>
      <point x="251" y="383" type="line"/>
    </contour>
    <component base="D" xOffset="6"/>
  </outline>
</glyph>
<glyph name="dcroat" format="1">
  <advance width="456"/>
  <unicode hex="0111"/>
  <outline>
    <contour>
      <point x="163" y="686" type="line"/>
      <point x="163" y="631" type="line"/>
      <point x="438" y="631" type="line"/>
      <point x="438" y="686" type="line"/>
    </contour>
    <component base="d" xOffset="2"/>
  </outline>
</glyph>
<glyph name="imacron" format="1">
  <advance width="224"/>
  <unicode hex="012B"/>
  <outline>
    <contour>
      <point x="58" y="569" type="line"/>
      <point x="58" y="0" type="line"/>
      <point x="166" y="0" type="line"/>
      <point x="166" y="569" type="line"/>
    </contour>
    <component base="macron" xOffset="-63"/>
  </outline>
</glyph>
<glyph name="Kcommaaccent" format="1">
  <advance width="458"/>
  <unicode hex="0136"/>
  <outline>
    <contour>
      <point x="321" y="682" type="line"/>
      <point x="189" y="345" type="line"/>
      <point x="326" y="0" type="line"/>
      <point x="447" y="0" type="line"/>
      <point x="302" y="347" type="line"/>
      <point x="437" y="682" type="line"/>
    </contour>
    <contour>
      <point x="58" y="682" type="line"/>
      <point x="58" y="0" type="line"/>
      <point x="166" y="0" type="line"/>
      <point x="166" y="682" type="line"/>
    </contour>
    <contour>
      <point x="214" y="-61" type="line"/>
      <point x="188" y="-198" type="line"/>
      <point x="229" y="-198" type="line"/>
      <point x="245" y="-177"/>
      <point x="281" y="-119"/>
      <point x="281" y="-90" type="curve" smooth="yes"/>
      <point x="281" y="-71"/>
      <point x="270" y="-61"/>
      <point x="250" y="-61" type="curve" smooth="yes"/>
    </contour>
  </outline>
</glyph>
<glyph name="kcommaaccent" format="1">
  <advance width="417"/>
  <unicode hex="0137"/>
  <outline>
    <contour>
      <point x="284" y="579" type="line"/>
      <point x="179" y="306" type="line"/>
      <point x="290" y="0" type="line"/>
      <point x="406" y="0" type="line"/>
      <point x="287" y="303" type="line"/>
      <point x="394" y="579" type="line"/>
    </contour>
    <contour>
      <point x="58" y="733" type="line"/>
      <point x="58" y="0" type="line"/>
      <point x="163" y="0" type="line"/>
      <point x="163" y="733" type="line"/>
    </contour>
    <contour>
      <point x="186" y="-61" type="line"/>
      <point x="160" y="-198" type="line"/>
      <point x="201" y="-198" type="line"/>
      <point x="217" y="-177"/>
      <point x="253" y="-119"/>
      <point x="253" y="-90" type="curve" smooth="yes"/>
      <point x="253" y="-71"/>
      <point x="242" y="-61"/>
      <point x="222" y="-61" type="curve" smooth="yes"/>
    </contour>
  </outline>
</glyph>
<glyph name="Lcommaaccent" format="1">
  <advance width="367"/>
  <unicode hex="013B"/>
  <outline>
    <contour>
      <point x="58" y="682" type="line"/>
      <point x="58" y="0" type="line"/>
      <point x="362" y="0" type="line"/>
      <point x="362" y="92" type="line"/>
      <point x="167" y="92" type="line"/>
      <point x="167" y="682" type="line"/>
    </contour>
    <contour>
      <point x="174" y="-61" type="line"/>
      <point x="148" y="-198" type="line"/>
      <point x="189" y="-198" type="line"/>
      <point x="205" y="-177"/>
      <point x="241" y="-119"/>
      <point x="241" y="-90" type="curve" smooth="yes"/>
      <point x="241" y="-71"/>
      <point x="230" y="-61"/>
      <point x="210" y="-61" type="curve" smooth="yes"/>
    </contour>
  </outline>
</glyph>
<glyph name="lcommaaccent" format="1">
  <advance width="224"/>
  <unicode hex="013C"/>
  <outline>
    <contour>
      <point x="58" y="733" type="line"/>
      <point x="58" y="0" type="line"/>
      <point x="166" y="0" type="line"/>
      <point x="166" y="733" type="line"/>
    </contour>
    <contour>
      <point x="81" y="-61" type="line"/>
      <point x="55" y="-198" type="line"/>
      <point x="96" y="-198" type="line"/>
      <point x="112" y="-177"/>
      <point x="148" y="-119"/>
      <point x="148" y="-90" type="curve" smooth="yes"/>
      <point x="148" y="-71"/>
      <point x="137" y="-61"/>
      <point x="117" y="-61" type="curve" smooth="yes"/>
    </contour>
  </outline>
</glyph>
<glyph name="Lcaron" format="1">
  <advance width="367"/>
  <unicode hex="013D"/>
  <outline>
    <contour>
      <point x="231" y="732" type="line"/>
      <point x="205" y="595" type="line"/>
      <point x="246" y="595" type="line"/>
      <point x="261" y="616"/>
      <point x="298" y="674"/>
      <point x="298" y="703" type="curve" smooth="yes"/>
      <point x="298" y="722"/>
      <point x="287" y="732"/>
      <point x="267" y="732" type="curve" smooth="yes"/>
    </contour>
    <component base="L"/>
  </outline>
</glyph>
<glyph name="lcaron" format="1">
  <advance width="224"/>
  <unicode hex="013E"/>
  <outline>
    <contour>
      <point x="58" y="733" type="line"/>
      <point x="58" y="0" type="line"/>
      <point x="166" y="0" type="line"/>
      <point x="166" y="733" type="line"/>
    </contour>
    <contour>
      <point x="231" y="732" type="line"/>
      <point x="205" y="595" type="line"/>
      <point x="246" y="595" type="line"/>
      <point x="261" y="616"/>
      <point x="298" y="674"/>
      <point x="298" y="703" type="curve" smooth="yes"/>
      <point x="298" y="722"/>
      <point x="287" y="732"/>
      <point x="267" y="732" type="curve" smooth="yes"/>
    </contour>
  </outline>
</glyph>
<glyph name="Lslash" format="1">
  <advance width="368"/>
  <unicode hex="0141"/>
  <outline>
    <contour>
      <point x="8" y="323" type="line"/>
      <point x="8" y="246" type="line"/>
      <point x="264" y="364" type="line"/>
      <point x="264" y="440" type="line"/>
    </contour>
    <component base="L" xOffset="6"/>
  </outline>
</glyph>
<glyph name="lslash" format="1">
  <advance width="226"/>
  <unicode hex="0142"/>
  <outline>
    <contour>
      <point x="8" y="467" type="line"/>
      <point x="8" y="390" type="line"/>
      <point x="218" y="490" type="line"/>
      <point x="218" y="567" type="line"/>
    </contour>
    <component base="l" xOffset="1"/>
  </outline>
</glyph>
<glyph name="Ncommaaccent" format="1">
  <advance width="515"/>
  <unicode hex="0145"/>
  <outline>
    <contour>
      <point x="350" y="682" type="line"/>
      <point x="350" y="421" type="line"/>
      <point x="351" y="275"/>
      <point x="365" y="195"/>
      <point x="366" y="167" type="curve"/>
      <point x="355" y="196"/>
      <point x="332" y="269"/>
      <point x="286" y="388" type="curve"/>
      <point x="171" y="682" type="line"/>
      <point x="58" y="682" type="line"/>
      <point x="58" y="0" type="line"/>
      <point x="164" y="0" type="line"/>
      <point x="164" y="265" type="line"/>
      <point x="164" y="411"/>
      <point x="149" y="489"/>
      <point x="149" y="517" type="curve"/>
      <point x="160" y="489"/>
      <point x="183" y="415"/>
      <point x="229" y="296" type="curve"/>
      <point x="346" y="0" type="line"/>
      <point x="457" y="0" type="line"/>
      <point x="457" y="682" type="line"/>
    </contour>
    <contour>
      <point x="219" y="-61" type="line"/>
      <point x="193" y="-198" type="line"/>
      <point x="234" y="-198" type="line"/>
      <point x="249" y="-177"/>
      <point x="286" y="-119"/>
      <point x="286" y="-90" type="curve" smooth="yes"/>
      <point x="286" y="-71"/>
      <point x="275" y="-61"/>
      <point x="255" y="-61" type="curve" smooth="yes"/>
    </contour>
  </outline>
</glyph>
<glyph name="ncommaaccent" format="1">
  <advance width="457"/>
  <unicode hex="0146"/>
  <outline>
    <contour>
      <point x="161" y="553" type="curve"/>
      <point x="161" y="579" type="line"/>
      <point x="58" y="579" type="line"/>
      <point x="58" y="0" type="line"/>
      <point x="166" y="0" type="line"/>
      <point x="166" y="461" type="line"/>
      <point x="188" y="472"/>
      <point x="214" y="481"/>
      <point x="243" y="481" type="curve"/>
      <point x="276" y="481"/>
      <point x="294" y="465"/>
      <point x="294" y="431" type="curve" smooth="yes"/>
      <point x="294" y="0" type="line"/>
      <point x="404" y="0" type="line"/>
      <point x="404" y="452" type="line" smooth="yes"/>
      <point x="404" y="539"/>
      <point x="351" y="581"/>
      <point x="274" y="581" type="curve"/>
      <point x="227" y="581"/>
      <point x="183" y="563"/>
    </contour>
    <contour>
      <point x="196" y="-61" type="line"/>
      <point x="170" y="-198" type="line"/>
      <point x="211" y="-198" type="line"/>
      <point x="227" y="-177"/>
      <point x="263" y="-119"/>
      <point x="263" y="-90" type="curve" smooth="yes"/>
      <point x="263" y="-71"/>
      <point x="252" y="-61"/>
      <point x="232" y="-61" type="curve" smooth="yes"/>
    </contour>
  </outline>
</glyph>
<glyph name="OE" format="1">
  <advance width="690"/>
  <unicode hex="0152"/>
  <outline>
    <contour>
      <point x="233" y="682" type="line"/>
      <point x="125" y="682"/>
      <point x="68" y="625"/>
      <point x="68" y="529" type="curve" smooth="yes"/>
      <point x="68" y="158" type="line" smooth="yes"/>
      <point x="68" y="62"/>
      <point x="115" y="0"/>
      <point x="228" y="0" type="curve" smooth="yes"/>
      <point x="373" y="0" type="line"/>
      <point x="373" y="94" type="line"/>
      <point x="245" y="94" type="line" smooth="yes"/>
      <point x="192" y="94"/>
      <point x="176" y="124"/>
      <point x="176" y="165" type="curve" smooth="yes"/>
      <point x="176" y="526" type="line" smooth="yes"/>
      <point x="176" y="564"/>
      <point x="192" y="591"/>
      <point x="245" y="591" type="curve" smooth="yes"/>
      <point x="383" y="591" type="line"/>
      <point x="383" y="682" type="line"/>
    </contour>
    <component base="E" xOffset="284"/>
  </outline>
</glyph>
<glyph name="oe" format="1">
  <advance width="694"/>
  <unicode hex="0153"/>
  <outline>
    <contour>
      <point x="52" y="431" type="curve" smooth="yes"/>
      <point x="52" y="148" type="line" smooth="yes"/>
      <point x="52" y="55"/>
      <point x="105" y="-10"/>
      <point x="227" y="-10" type="curve" smooth="yes"/>
      <point x="349" y="-10"/>
      <point x="402" y="55"/>
      <point x="402" y="148" type="curve" smooth="yes"/>
      <point x="402" y="431" type="line" smooth="yes"/>
      <point x="402" y="524"/>
      <point x="349" y="589"/>
      <point x="227" y="589" type="curve" smooth="yes"/>
      <point x="105" y="589"/>
      <point x="52" y="524"/>
    </contour>
    <contour>
      <point x="296" y="428" type="curve" smooth="yes"/>
      <point x="296" y="151" type="line" smooth="yes"/>
      <point x="296" y="110"/>
      <point x="276" y="83"/>
      <point x="227" y="83" type="curve" smooth="yes"/>
      <point x="178" y="83"/>
      <point x="159" y="110"/>
      <point x="159" y="151" type="curve" smooth="yes"/>
      <point x="159" y="428" type="line" smooth="yes"/>
      <point x="159" y="468"/>
      <point x="178" y="496"/>
      <point x="227" y="496" type="curve" smooth="yes"/>
      <point x="276" y="496"/>
      <point x="296" y="468"/>
    </contour>
    <component base="e" xOffset="250"/>
  </outline>
</glyph>
<glyph name="Rcommaaccent" format="1">
  <advance width="469"/>
  <unicode hex="0156"/>
  <outline>
    <contour>
      <point x="58" y="682" type="line"/>
      <point x="58" y="0" type="line"/>
      <point x="166" y="0" type="line"/>
      <point x="166" y="261" type="line"/>
      <point x="259" y="261" type="line" smooth="yes"/>
      <point x="371" y="261"/>
      <point x="418" y="319"/>
      <point x="418" y="417" type="curve" smooth="yes"/>
      <point x="418" y="530" type="line" smooth="yes"/>
      <point x="418" y="626"/>
      <point x="358" y="682"/>
      <point x="250" y="682" type="curve" smooth="yes"/>
    </contour>
    <contour>
      <point x="215" y="295" type="line"/>
      <point x="323" y="0" type="line"/>
      <point x="442" y="0" type="line"/>
      <point x="325" y="295" type="line"/>
    </contour>
    <contour>
      <point x="310" y="522" type="curve" smooth="yes"/>
      <point x="310" y="419" type="line" smooth="yes"/>
      <point x="310" y="372"/>
      <point x="291" y="349"/>
      <point x="241" y="349" type="curve" smooth="yes"/>
      <point x="166" y="349" type="line"/>
      <point x="166" y="589" type="line"/>
      <point x="241" y="589" type="line" smooth="yes"/>
      <point x="289" y="589"/>
      <point x="310" y="567"/>
    </contour>
    <contour>
      <point x="208" y="-61" type="line"/>
      <point x="182" y="-198" type="line"/>
      <point x="223" y="-198" type="line"/>
      <point x="238" y="-177"/>
      <point x="275" y="-119"/>
      <point x="275" y="-90" type="curve" smooth="yes"/>
      <point x="275" y="-71"/>
      <point x="264" y="-61"/>
      <point x="244" y="-61" type="curve" smooth="yes"/>
    </contour>
  </outline>
</glyph>
<glyph name="rcommaaccent" format="1">
  <advance width="301"/>
  <unicode hex="0157"/>
  <outline>
    <contour>
      <point x="275" y="582" type="line"/>
      <point x="224" y="582"/>
      <point x="203" y="565"/>
      <point x="161" y="537" type="curve"/>
      <point x="161" y="579" type="line"/>
      <point x="58" y="579" type="line"/>
      <point x="58" y="0" type="line"/>
      <point x="166" y="0" type="line"/>
      <point x="166" y="447" type="line"/>
      <point x="199" y="468"/>
      <point x="226" y="480"/>
      <point x="268" y="480" type="curve"/>
      <point x="296" y="480" type="line"/>
      <point x="296" y="582" type="line"/>
    </contour>
    <contour>
      <point x="81" y="-61" type="line"/>
      <point x="55" y="-198" type="line"/>
      <point x="96" y="-198" type="line"/>
      <point x="112" y="-177"/>
      <point x="148" y="-119"/>
      <point x="148" y="-90" type="curve" smooth="yes"/>
      <point x="148" y="-71"/>
      <point x="137" y="-61"/>
      <point x="117" y="-61" type="curve" smooth="yes"/>
    </contour>
  </outline>
</glyph>
<glyph name="scedilla" format="1">
  <advance width="374"/>
  <unicode hex="015F"/>
  <outline>
    <contour>
      <point x="25" y="434" type="curve" smooth="yes"/>
      <point x="25" y="404" type="line" smooth="yes"/>
      <point x="25" y="339"/>
      <point x="56" y="303"/>
      <point x="103" y="277" type="curve" smooth="yes"/>
      <point x="181" y="234" type="line" smooth="yes"/>
      <point x="229" y="207"/>
      <point x="242" y="195"/>
      <point x="242" y="166" type="curve" smooth="yes"/>
      <point x="242" y="151" type="line" smooth="yes"/>
      <point x="242" y="114"/>
      <point x="221" y="92"/>
      <point x="138" y="92" type="curve" smooth="yes"/>
      <point x="93" y="92"/>
      <point x="51" y="100"/>
      <point x="26" y="108" type="curve"/>
      <point x="26" y="10" type="line"/>
      <point x="57" y="1"/>
      <point x="93" y="-5"/>
      <point x="151" y="-5" type="curve" smooth="yes"/>
      <point x="286" y="-5"/>
      <point x="350" y="48"/>
      <point x="350" y="147" type="curve" smooth="yes"/>
      <point x="350" y="173" type="line"/>
      <point x="350" y="236"/>
      <point x="315" y="270"/>
      <point x="265" y="299" type="curve" smooth="yes"/>
      <point x="181" y="346" type="line" smooth="yes"/>
      <point x="142" y="368"/>
      <point x="131" y="380"/>
      <point x="131" y="411" type="curve" smooth="yes"/>
      <point x="131" y="429" type="line" smooth="yes"/>
      <point x="131" y="467"/>
      <point x="146" y="487"/>
      <point x="219" y="487" type="curve" smooth="yes"/>
      <point x="260" y="487"/>
      <point x="306" y="478"/>
      <point x="328" y="471" type="curve"/>
      <point x="328" y="568" type="line"/>
      <point x="299" y="577"/>
      <point x="253" y="584"/>
      <point x="212" y="584" type="curve" smooth="yes"/>
      <point x="76" y="584"/>
      <point x="25" y="531"/>
    </contour>
    <contour>
      <point x="151" y="-61" type="line"/>
      <point x="125" y="-198" type="line"/>
      <point x="166" y="-198" type="line"/>
      <point x="182" y="-177"/>
      <point x="218" y="-119"/>
      <point x="218" y="-90" type="curve" smooth="yes"/>
      <point x="218" y="-71"/>
      <point x="207" y="-61"/>
      <point x="187" y="-61" type="curve" smooth="yes"/>
    </contour>
  </outline>
</glyph>
<glyph name="Tcedilla" format="1">
  <advance width="379"/>
  <unicode hex="0162"/>
  <outline>
    <contour>
      <point x="135" y="682" type="line"/>
      <point x="135" y="0" type="line"/>
      <point x="244" y="0" type="line"/>
      <point x="244" y="682" type="line"/>
    </contour>
    <contour>
      <point x="7" y="682" type="line"/>
      <point x="7" y="587" type="line"/>
      <point x="372" y="587" type="line"/>
      <point x="372" y="682" type="line"/>
    </contour>
    <contour>
      <point x="160" y="-61" type="line"/>
      <point x="134" y="-198" type="line"/>
      <point x="175" y="-198" type="line"/>
      <point x="191" y="-177"/>
      <point x="227" y="-119"/>
      <point x="227" y="-90" type="curve" smooth="yes"/>
      <point x="227" y="-71"/>
      <point x="216" y="-61"/>
      <point x="196" y="-61" type="curve" smooth="yes"/>
    </contour>
  </outline>
</glyph>
<glyph name="tcedilla" format="1">
  <advance width="304"/>
  <unicode hex="0163"/>
  <outline>
    <contour>
      <point x="100" y="682" type="line"/>
      <point x="68" y="579" type="line"/>
      <point x="5" y="579" type="line"/>
      <point x="5" y="486" type="line"/>
      <point x="63" y="486" type="line"/>
      <point x="63" y="134" type="line" smooth="yes"/>
      <point x="63" y="46"/>
      <point x="104" y="-6"/>
      <point x="207" y="-6" type="curve" smooth="yes"/>
      <point x="250" y="-6"/>
      <point x="285" y="5"/>
      <point x="289" y="7" type="curve"/>
      <point x="289" y="104" type="line"/>
      <point x="284" y="102"/>
      <point x="258" y="91"/>
      <point x="226" y="91" type="curve" smooth="yes"/>
      <point x="189" y="91"/>
      <point x="172" y="107"/>
      <point x="172" y="143" type="curve" smooth="yes"/>
      <point x="172" y="486" type="line"/>
      <point x="281" y="486" type="line"/>
      <point x="281" y="579" type="line"/>
      <point x="172" y="579" type="line"/>
      <point x="172" y="682" type="line"/>
    </contour>
    <contour>
      <point x="151" y="-61" type="line"/>
      <point x="125" y="-198" type="line"/>
      <point x="166" y="-198" type="line"/>
      <point x="182" y="-177"/>
      <point x="218" y="-119"/>
      <point x="218" y="-90" type="curve" smooth="yes"/>
      <point x="218" y="-71"/>
      <point x="207" y="-61"/>
      <point x="187" y="-61" type="curve" smooth="yes"/>
    </contour>
  </outline>
</glyph>
<glyph name="florin" format="1">
  <advance width="347"/>
  <unicode hex="0192"/>
  <outline>
    <contour>
      <point x="153" y="582" type="curve" smooth="yes"/>
      <point x="88" y="146" type="line" smooth="yes"/>
      <point x="81" y="103"/>
      <point x="67" y="84"/>
      <point x="26" y="84" type="curve" smooth="yes"/>
      <point x="17" y="84"/>
      <point x="7" y="85"/>
      <point x="0" y="86" type="curve"/>
      <point x="0" y="-1" type="line"/>
      <point x="14" y="-2"/>
      <point x="28" y="-4"/>
      <point x="40" y="-4" type="curve" smooth="yes"/>
      <point x="148" y="-4"/>
      <point x="184" y="54"/>
      <point x="197" y="147" type="curve" smooth="yes"/>
      <point x="263" y="583" type="line" smooth="yes"/>
      <point x="269" y="627"/>
      <point x="283" y="646"/>
      <point x="325" y="646" type="curve" smooth="yes"/>
      <point x="335" y="646"/>
      <point x="344" y="645"/>
      <point x="352" y="644" type="curve"/>
      <point x="352" y="730" type="line"/>
      <point x="338" y="732"/>
      <point x="324" y="734"/>
      <point x="310" y="734" type="curve" smooth="yes"/>
      <point x="203" y="734"/>
      <point x="167" y="676"/>
    </contour>
    <contour>
      <point x="51" y="507" type="line"/>
      <point x="51" y="419" type="line"/>
      <point x="317" y="419" type="line"/>
      <point x="317" y="507" type="line"/>
    </contour>
  </outline>
</glyph>
<glyph name="Scommaaccent" format="1">
  <advance width="412"/>
  <unicode hex="0218"/>
  <outline>
    <contour>
      <point x="24" y="534" type="curve" smooth="yes"/>
      <point x="24" y="473" type="line" smooth="yes"/>
      <point x="24" y="401"/>
      <point x="60" y="358"/>
      <point x="116" y="327" type="curve" smooth="yes"/>
      <point x="227" y="266" type="line"/>
      <point x="265" y="246"/>
      <point x="277" y="229"/>
      <point x="277" y="192" type="curve" smooth="yes"/>
      <point x="277" y="162" type="line" smooth="yes"/>
      <point x="277" y="124"/>
      <point x="249" y="95"/>
      <point x="174" y="95" type="curve" smooth="yes"/>
      <point x="118" y="95"/>
      <point x="64" y="107"/>
      <point x="31" y="121" type="curve"/>
      <point x="31" y="16" type="line"/>
      <point x="54" y="7"/>
      <point x="111" y="-5"/>
      <point x="175" y="-5" type="curve" smooth="yes"/>
      <point x="318" y="-5"/>
      <point x="387" y="53"/>
      <point x="387" y="151" type="curve" smooth="yes"/>
      <point x="387" y="209" type="line"/>
      <point x="387" y="274"/>
      <point x="359" y="313"/>
      <point x="305" y="342" type="curve" smooth="yes"/>
      <point x="190" y="407" type="line" smooth="yes"/>
      <point x="148" y="430"/>
      <point x="135" y="448"/>
      <point x="135" y="490" type="curve" smooth="yes"/>
      <point x="135" y="523" type="line" smooth="yes"/>
      <point x="135" y="562"/>
      <point x="156" y="587"/>
      <point x="221" y="587" type="curve" smooth="yes"/>
      <point x="277" y="587"/>
      <point x="322" y="577"/>
      <point x="354" y="565" type="curve"/>
      <point x="354" y="668" type="line"/>
      <point x="331" y="676"/>
      <point x="284" y="687"/>
      <point x="219" y="687" type="curve" smooth="yes"/>
      <point x="86" y="687"/>
      <point x="24" y="628"/>
    </contour>
    <contour>
      <point x="170" y="-61" type="line"/>
      <point x="144" y="-198" type="line"/>
      <point x="185" y="-198" type="line"/>
      <point x="201" y="-177"/>
      <point x="237" y="-119"/>
      <point x="237" y="-90" type="curve" smooth="yes"/>
      <point x="237" y="-71"/>
      <point x="227" y="-61"/>
      <point x="207" y="-61" type="curve" smooth="yes"/>
    </contour>
  </outline>
</glyph>
<glyph name="Tcommaaccent" format="1">
  <advance width="379"/>
  <unicode hex="021A"/>
  <outline>
    <contour>
      <point x="135" y="682" type="line"/>
      <point x="135" y="0" type="line"/>
      <point x="244" y="0" type="line"/>
      <point x="244" y="682" type="line"/>
    </contour>
    <contour>
      <point x="7" y="682" type="line"/>
      <point x="7" y="587" type="line"/>
      <point x="372" y="587" type="line"/>
      <point x="372" y="682" type="line"/>
    </contour>
    <contour>
      <point x="158" y="-61" type="line"/>
      <point x="132" y="-198" type="line"/>
      <point x="173" y="-198" type="line"/>
      <point x="189" y="-177"/>
      <point x="225" y="-119"/>
      <point x="225" y="-90" type="curve" smooth="yes"/>
      <point x="225" y="-71"/>
      <point x="214" y="-61"/>
      <point x="194" y="-61" type="curve" smooth="yes"/>
    </contour>
  </outline>
</glyph>
<glyph name="circumflex" format="1">
  <advance width="350"/>
  <unicode hex="02C6"/>
  <outline>
    <contour>
      <point x="140" y="733" type="line"/>
      <point x="213" y="622" type="line"/>
      <point x="270" y="622" type="line"/>
      <point x="215" y="733" type="line"/>
    </contour>
    <contour>
      <point x="134" y="733" type="line"/>
      <point x="79" y="622" type="line"/>
      <point x="137" y="622" type="line"/>
      <point x="210" y="733" type="line"/>
    </contour>
  </outline>
</glyph>
<glyph name="caron" format="1">
  <advance width="350"/>
  <unicode hex="02C7"/>
  <outline>
    <contour>
      <point x="213" y="733" type="line"/>
      <point x="140" y="622" type="line"/>
      <point x="215" y="622" type="line"/>
      <point x="270" y="733" type="line"/>
    </contour>
    <contour>
      <point x="79" y="733" type="line"/>
      <point x="134" y="622" type="line"/>
      <point x="210" y="622" type="line"/>
      <point x="137" y="733" type="line"/>
    </contour>
  </outline>
</glyph>
<glyph name="breve" format="1">
  <advance width="350"/>
  <unicode hex="02D8"/>
  <outline>
    <contour>
      <point x="227" y="733" type="line"/>
      <point x="226" y="700"/>
      <point x="208" y="678"/>
      <point x="175" y="678" type="curve" smooth="yes"/>
      <point x="142" y="678"/>
      <point x="124" y="700"/>
      <point x="123" y="733" type="curve"/>
      <point x="60" y="733" type="line"/>
      <point x="61" y="668"/>
      <point x="106" y="622"/>
      <point x="175" y="622" type="curve" smooth="yes"/>
      <point x="243" y="622"/>
      <point x="289" y="668"/>
      <point x="290" y="733" type="curve"/>
    </contour>
  </outline>
</glyph>
<glyph name="dotaccent" format="1">
  <advance width="350"/>
  <unicode hex="02D9"/>
  <outline>
    <contour>
      <point x="127" y="689" type="curve" smooth="yes"/>
      <point x="127" y="662"/>
      <point x="138" y="643"/>
      <point x="174" y="643" type="curve" smooth="yes"/>
      <point x="210" y="643"/>
      <point x="222" y="662"/>
      <point x="222" y="689" type="curve" smooth="yes"/>
      <point x="222" y="716"/>
      <point x="210" y="734"/>
      <point x="174" y="734" type="curve" smooth="yes"/>
      <point x="138" y="734"/>
      <point x="127" y="716"/>
    </contour>
  </outline>
</glyph>
<glyph name="ring" format="1">
  <advance width="350"/>
  <unicode hex="02DA"/>
  <outline>
    <contour>
      <point x="98" y="677" type="curve" smooth="yes"/>
      <point x="98" y="635"/>
      <point x="126" y="601"/>
      <point x="175" y="601" type="curve" smooth="yes"/>
      <point x="225" y="601"/>
      <point x="252" y="635"/>
      <point x="252" y="677" type="curve" smooth="yes"/>
      <point x="252" y="719"/>
      <point x="225" y="752"/>
      <point x="175" y="752" type="curve" smooth="yes"/>
      <point x="126" y="752"/>
      <point x="98" y="719"/>
    </contour>
    <contour>
      <point x="207" y="677" type="curve" smooth="yes"/>
      <point x="207" y="657"/>
      <point x="195" y="644"/>
      <point x="175" y="644" type="curve" smooth="yes"/>
      <point x="155" y="644"/>
      <point x="143" y="657"/>
      <point x="143" y="677" type="curve" smooth="yes"/>
      <point x="143" y="696"/>
      <point x="155" y="709"/>
      <point x="175" y="709" type="curve" smooth="yes"/>
      <point x="195" y="709"/>
      <point x="207" y="696"/>
    </contour>
  </outline>
</glyph>
<glyph name="ogonek" format="1">
  <advance width="350"/>
  <unicode hex="02DB"/>
  <outline>
    <contour>
      <point x="185" y="0" type="line"/>
      <point x="149" y="-29"/>
      <point x="122" y="-71"/>
      <point x="122" y="-114" type="curve" smooth="yes"/>
      <point x="122" y="-161"/>
      <point x="153" y="-187"/>
      <point x="210" y="-187" type="curve" smooth="yes"/>
      <point x="229" y="-187" type="line"/>
      <point x="229" y="-130" type="line"/>
      <point x="218" y="-130" type="line" smooth="yes"/>
      <point x="196" y="-130"/>
      <point x="185" y="-120"/>
      <point x="185" y="-94" type="curve" smooth="yes"/>
      <point x="185" y="-59"/>
      <point x="203" y="-23"/>
      <point x="229" y="0" type="curve"/>
    </contour>
  </outline>
</glyph>
<glyph name="tilde" format="1">
  <advance width="350"/>
  <unicode hex="02DC"/>
  <outline>
    <contour>
      <point x="245" y="727" type="line"/>
      <point x="245" y="719" type="line" smooth="yes"/>
      <point x="245" y="697"/>
      <point x="240" y="686"/>
      <point x="224" y="686" type="curve" smooth="yes"/>
      <point x="197" y="686"/>
      <point x="167" y="725"/>
      <point x="118" y="725" type="curve" smooth="yes"/>
      <point x="65" y="725"/>
      <point x="41" y="688"/>
      <point x="40" y="635" type="curve" smooth="yes"/>
      <point x="40" y="627" type="line"/>
      <point x="104" y="627" type="line"/>
      <point x="104" y="634" type="line" smooth="yes"/>
      <point x="104" y="657"/>
      <point x="110" y="668"/>
      <point x="126" y="668" type="curve" smooth="yes"/>
      <point x="155" y="668"/>
      <point x="185" y="629"/>
      <point x="232" y="629" type="curve" smooth="yes"/>
      <point x="283" y="629"/>
      <point x="308" y="663"/>
      <point x="309" y="717" type="curve" smooth="yes"/>
      <point x="309" y="727" type="line"/>
    </contour>
  </outline>
</glyph>
<glyph name="hungarumlaut" format="1">
  <advance width="350"/>
  <unicode hex="02DD"/>
  <outline>
    <contour>
      <point x="207" y="733" type="line"/>
      <point x="163" y="622" type="line"/>
      <point x="218" y="622" type="line"/>
      <point x="288" y="733" type="line"/>
    </contour>
    <contour>
      <point x="105" y="733" type="line"/>
      <point x="61" y="622" type="line"/>
      <point x="116" y="622" type="line"/>
      <point x="186" y="733" type="line"/>
    </contour>
  </outline>
</glyph>
<glyph name="pi" format="1">
  <advance width="451"/>
  <unicode hex="03C0"/>
  <outline>
    <contour>
      <point x="-12" y="579" type="line"/>
      <point x="-12" y="486" type="line"/>
      <point x="53" y="486" type="line"/>
      <point x="53" y="0" type="line"/>
      <point x="161" y="0" type="line"/>
      <point x="161" y="486" type="line"/>
      <point x="289" y="486" type="line"/>
      <point x="289" y="0" type="line"/>
      <point x="399" y="0" type="line"/>
      <point x="399" y="486" type="line"/>
      <point x="463" y="486" type="line"/>
      <point x="463" y="579" type="line"/>
    </contour>
  </outline>
</glyph>
<glyph name="dvCandrabindu" format="1">
  <advance width="0"/>
  <unicode hex="0901"/>
  <outline>
    <contour>
      <point x="-58" y="660" type="move" name="_abvm.bindu"/>
    </contour>
    <contour>
      <point x="-162" y="924" type="curve" smooth="yes"/>
      <point x="-162" y="893"/>
      <point x="-150" y="869"/>
      <point x="-108" y="869" type="curve" smooth="yes"/>
      <point x="-65" y="869"/>
      <point x="-53" y="893"/>
      <point x="-53" y="924" type="curve" smooth="yes"/>
      <point x="-53" y="955"/>
      <point x="-65" y="978"/>
      <point x="-108" y="978" type="curve" smooth="yes"/>
      <point x="-150" y="978"/>
      <point x="-162" y="955"/>
    </contour>
    <contour>
      <point x="-23" y="869" type="line"/>
      <point x="-23" y="825"/>
      <point x="-48" y="810"/>
      <point x="-108" y="810" type="curve" smooth="yes"/>
      <point x="-169" y="810"/>
      <point x="-193" y="825"/>
      <point x="-193" y="869" type="curve"/>
      <point x="-292" y="869" type="line"/>
      <point x="-292" y="866" type="line"/>
      <point x="-292" y="765"/>
      <point x="-228" y="724"/>
      <point x="-108" y="724" type="curve" smooth="yes"/>
      <point x="12" y="724"/>
      <point x="75" y="765"/>
      <point x="75" y="866" type="curve"/>
      <point x="75" y="869" type="line"/>
    </contour>
  </outline>
</glyph>
<glyph name="dvAnusvara" format="1">
  <advance width="0"/>
  <unicode hex="0902"/>
  <outline>
    <contour>
      <point x="-58" y="660" type="move" name="_abvm.bindu"/>
    </contour>
    <contour>
      <point x="-166" y="784" type="curve" smooth="yes"/>
      <point x="-166" y="752"/>
      <point x="-153" y="727"/>
      <point x="-108" y="727" type="curve" smooth="yes"/>
      <point x="-65" y="727"/>
      <point x="-51" y="752"/>
      <point x="-51" y="784" type="curve" smooth="yes"/>
      <point x="-51" y="817"/>
      <point x="-65" y="842"/>
      <point x="-108" y="842" type="curve" smooth="yes"/>
      <point x="-153" y="842"/>
      <point x="-166" y="817"/>
    </contour>
  </outline>
</glyph>
<glyph name="dvVisarga" format="1">
  <advance width="223"/>
  <unicode hex="0903"/>
  <outline>
    <contour>
      <point x="46" y="400" type="curve" smooth="yes"/>
      <point x="46" y="368"/>
      <point x="59" y="343"/>
      <point x="103" y="343" type="curve" smooth="yes"/>
      <point x="147" y="343"/>
      <point x="161" y="368"/>
      <point x="161" y="400" type="curve" smooth="yes"/>
      <point x="161" y="433"/>
      <point x="147" y="458"/>
      <point x="103" y="458" type="curve" smooth="yes"/>
      <point x="59" y="458"/>
      <point x="46" y="433"/>
    </contour>
    <contour>
      <point x="46" y="57" type="curve" smooth="yes"/>
      <point x="46" y="25"/>
      <point x="60" y="0"/>
      <point x="104" y="0" type="curve" smooth="yes"/>
      <point x="148" y="0"/>
      <point x="161" y="25"/>
      <point x="161" y="57" type="curve" smooth="yes"/>
      <point x="161" y="90"/>
      <point x="147" y="115"/>
      <point x="103" y="115" type="curve" smooth="yes"/>
      <point x="59" y="115"/>
      <point x="46" y="90"/>
    </contour>
  </outline>
</glyph>
<glyph name="dvA" format="1">
  <advance width="584"/>
  <unicode hex="0905"/>
  <outline>
    <contour>
      <point x="232" y="191" type="line"/>
      <point x="231" y="150"/>
      <point x="209" y="126"/>
      <point x="147" y="126" type="curve" smooth="yes"/>
      <point x="115" y="126"/>
      <point x="72" y="132"/>
      <point x="39" y="141" type="curve"/>
      <point x="39" y="49" type="line"/>
      <point x="67" y="41"/>
      <point x="109" y="35"/>
      <point x="147" y="35" type="curve" smooth="yes"/>
      <point x="276" y="35"/>
      <point x="330" y="94"/>
      <point x="330" y="187" type="curve"/>
      <point x="330" y="248" type="line" smooth="yes"/>
      <point x="330" y="298"/>
      <point x="317" y="341"/>
      <point x="283" y="359" type="curve"/>
      <point x="319" y="378"/>
      <point x="330" y="422"/>
      <point x="330" y="467" type="curve" smooth="yes"/>
      <point x="330" y="513" type="line" smooth="yes"/>
      <point x="330" y="606"/>
      <point x="276" y="665"/>
      <point x="148" y="665" type="curve" smooth="yes"/>
      <point x="108" y="665"/>
      <point x="75" y="659"/>
      <point x="51" y="651" type="curve"/>
      <point x="51" y="558" type="line"/>
      <point x="82" y="568"/>
      <point x="115" y="573"/>
      <point x="147" y="573" type="curve" smooth="yes"/>
      <point x="209" y="573"/>
      <point x="232" y="550"/>
      <point x="232" y="509" type="curve" smooth="yes"/>
      <point x="232" y="467" type="line" smooth="yes"/>
      <point x="232" y="430"/>
      <point x="219" y="405"/>
      <point x="163" y="405" type="curve" smooth="yes"/>
      <point x="103" y="405" type="line"/>
      <point x="103" y="312" type="line"/>
      <point x="163" y="312" type="line" smooth="yes"/>
      <point x="219" y="312"/>
      <point x="232" y="286"/>
      <point x="232" y="248" type="curve" smooth="yes"/>
    </contour>
    <contour>
      <point x="426" y="660" type="line"/>
      <point x="426" y="0" type="line"/>
      <point x="526" y="0" type="line"/>
      <point x="526" y="575" type="line"/>
      <point x="615" y="575" type="line"/>
      <point x="615" y="660" type="line"/>
    </contour>
    <contour>
      <point x="299" y="213" type="line"/>
      <point x="455" y="213" type="line"/>
      <point x="455" y="299" type="line"/>
      <point x="299" y="299" type="line"/>
    </contour>
  </outline>
</glyph>
<glyph name="dvI" format="1">
  <advance width="408"/>
  <unicode hex="0907"/>
  <outline>
    <contour>
      <point x="350" y="660" type="move" name="abvm.bindu"/>
    </contour>
    <contour>
      <point x="141" y="170" type="line"/>
      <point x="43" y="170" type="line"/>
      <point x="43" y="-73" type="line"/>
      <point x="141" y="-73" type="line"/>
      <point x="141" y="19" type="line"/>
      <point x="152" y="17"/>
      <point x="183" y="11"/>
      <point x="219" y="11" type="curve" smooth="yes"/>
      <point x="335" y="11"/>
      <point x="378" y="59"/>
      <point x="378" y="152" type="curve" smooth="yes"/>
      <point x="378" y="185" type="line" smooth="yes"/>
      <point x="378" y="276"/>
      <point x="326" y="320"/>
      <point x="215" y="320" type="curve" smooth="yes"/>
      <point x="191" y="320" type="line" smooth="yes"/>
      <point x="147" y="320"/>
      <point x="134" y="337"/>
      <point x="134" y="367" type="curve" smooth="yes"/>
      <point x="134" y="370" type="line" smooth="yes"/>
      <point x="134" y="400"/>
      <point x="146" y="417"/>
      <point x="191" y="417" type="curve" smooth="yes"/>
      <point x="350" y="417" type="line"/>
      <point x="350" y="575" type="line"/>
      <point x="439" y="575" type="line"/>
      <point x="439" y="660" type="line"/>
      <point x="-32" y="660" type="line"/>
      <point x="-32" y="575" type="line"/>
      <point x="250" y="575" type="line"/>
      <point x="250" y="504" type="line"/>
      <point x="191" y="504" type="line" smooth="yes"/>
      <point x="85" y="504"/>
      <point x="34" y="465"/>
      <point x="34" y="373" type="curve" smooth="yes"/>
      <point x="34" y="365" type="line" smooth="yes"/>
      <point x="34" y="274"/>
      <point x="88" y="235"/>
      <point x="191" y="235" type="curve" smooth="yes"/>
      <point x="215" y="235" type="line" smooth="yes"/>
      <point x="266" y="235"/>
      <point x="278" y="212"/>
      <point x="278" y="182" type="curve" smooth="yes"/>
      <point x="278" y="154" type="line" smooth="yes"/>
      <point x="278" y="120"/>
      <point x="259" y="101"/>
      <point x="207" y="101" type="curve" smooth="yes"/>
      <point x="179" y="101"/>
      <point x="153" y="106"/>
      <point x="141" y="108" type="curve"/>
    </contour>
  </outline>
</glyph>
<glyph name="dvU" format="1">
  <advance width="402"/>
  <unicode hex="0909"/>
  <outline>
    <contour>
      <point x="328" y="660" type="move" name="abvm.bindu"/>
    </contour>
    <contour>
      <point x="347" y="230" type="line"/>
      <point x="347" y="278"/>
      <point x="334" y="317"/>
      <point x="301" y="333" type="curve"/>
      <point x="334" y="348"/>
      <point x="347" y="387"/>
      <point x="347" y="436" type="curve" smooth="yes"/>
      <point x="347" y="517" type="line" smooth="yes"/>
      <point x="347" y="557"/>
      <point x="336" y="575"/>
      <point x="336" y="575" type="curve"/>
      <point x="434" y="575" type="line"/>
      <point x="434" y="660" type="line"/>
      <point x="-32" y="660" type="line"/>
      <point x="-32" y="575" type="line"/>
      <point x="235" y="575" type="line"/>
      <point x="235" y="575"/>
      <point x="247" y="557"/>
      <point x="247" y="517" type="curve" smooth="yes"/>
      <point x="247" y="439" type="line" smooth="yes"/>
      <point x="247" y="407"/>
      <point x="240" y="381"/>
      <point x="186" y="380" type="curve" smooth="yes"/>
      <point x="120" y="380" type="line"/>
      <point x="120" y="288" type="line"/>
      <point x="181" y="288" type="line" smooth="yes"/>
      <point x="236" y="288"/>
      <point x="247" y="259"/>
      <point x="247" y="224" type="curve" smooth="yes"/>
      <point x="247" y="151" type="line" smooth="yes"/>
      <point x="247" y="107"/>
      <point x="217" y="87"/>
      <point x="156" y="87" type="curve" smooth="yes"/>
      <point x="116" y="87"/>
      <point x="79" y="94"/>
      <point x="44" y="103" type="curve"/>
      <point x="44" y="10" type="line"/>
      <point x="84" y="1"/>
      <point x="117" y="-4"/>
      <point x="157" y="-4" type="curve" smooth="yes"/>
      <point x="285" y="-4"/>
      <point x="347" y="48"/>
      <point x="347" y="149" type="curve"/>
    </contour>
  </outline>
</glyph>
<glyph name="dvUU" format="1">
  <advance width="582"/>
  <unicode hex="090A"/>
  <outline>
    <contour>
      <point x="327" y="660" type="move" name="abvm.bindu"/>
    </contour>
    <contour>
      <point x="393" y="0" type="line"/>
      <point x="393" y="0"/>
      <point x="410" y="-2"/>
      <point x="417" y="-2" type="curve" smooth="yes"/>
      <point x="508" y="-2"/>
      <point x="555" y="51"/>
      <point x="555" y="143" type="curve" smooth="yes"/>
      <point x="555" y="233" type="line" smooth="yes"/>
      <point x="555" y="324"/>
      <point x="504" y="372"/>
      <point x="405" y="372" type="curve" smooth="yes"/>
      <point x="342" y="372"/>
      <point x="279" y="348"/>
      <point x="279" y="348" type="curve"/>
      <point x="280" y="279" type="line"/>
      <point x="280" y="279"/>
      <point x="366" y="279"/>
      <point x="390" y="279" type="curve" smooth="yes"/>
      <point x="440" y="279"/>
      <point x="455" y="255"/>
      <point x="455" y="217" type="curve" smooth="yes"/>
      <point x="455" y="146" type="line" smooth="yes"/>
      <point x="455" y="110"/>
      <point x="444" y="93"/>
      <point x="401" y="92" type="curve"/>
      <point x="393" y="92" type="line"/>
    </contour>
    <contour>
      <point x="347" y="230" type="line"/>
      <point x="347" y="278"/>
      <point x="334" y="317"/>
      <point x="301" y="333" type="curve"/>
      <point x="334" y="348"/>
      <point x="347" y="387"/>
      <point x="347" y="436" type="curve" smooth="yes"/>
      <point x="347" y="517" type="line" smooth="yes"/>
      <point x="347" y="557"/>
      <point x="336" y="575"/>
      <point x="336" y="575" type="curve"/>
      <point x="614" y="575" type="line"/>
      <point x="614" y="660" type="line"/>
      <point x="-32" y="660" type="line"/>
      <point x="-32" y="575" type="line"/>
      <point x="235" y="575" type="line"/>
      <point x="235" y="575"/>
      <point x="247" y="557"/>
      <point x="247" y="517" type="curve" smooth="yes"/>
      <point x="247" y="439" type="line" smooth="yes"/>
      <point x="247" y="407"/>
      <point x="240" y="381"/>
      <point x="186" y="380" type="curve" smooth="yes"/>
      <point x="120" y="380" type="line"/>
      <point x="120" y="288" type="line"/>
      <point x="181" y="288" type="line" smooth="yes"/>
      <point x="236" y="288"/>
      <point x="247" y="259"/>
      <point x="247" y="224" type="curve" smooth="yes"/>
      <point x="247" y="151" type="line" smooth="yes"/>
      <point x="247" y="107"/>
      <point x="217" y="87"/>
      <point x="156" y="87" type="curve" smooth="yes"/>
      <point x="116" y="87"/>
      <point x="79" y="94"/>
      <point x="44" y="103" type="curve"/>
      <point x="44" y="10" type="line"/>
      <point x="84" y="1"/>
      <point x="117" y="-4"/>
      <point x="157" y="-4" type="curve" smooth="yes"/>
      <point x="285" y="-4"/>
      <point x="347" y="48"/>
      <point x="347" y="149" type="curve" smooth="yes"/>
    </contour>
  </outline>
</glyph>
<glyph name="dvvR" format="1">
  <advance width="712"/>
  <unicode hex="090B"/>
  <outline>
    <contour>
      <point x="465" y="122" type="curve" smooth="yes"/>
      <point x="465" y="16"/>
      <point x="535" y="-27"/>
      <point x="631" y="-27" type="curve" smooth="yes"/>
      <point x="655" y="-27"/>
      <point x="676" y="-26"/>
      <point x="698" y="-22" type="curve"/>
      <point x="698" y="63" type="line"/>
      <point x="676" y="58"/>
      <point x="661" y="57"/>
      <point x="642" y="57" type="curve" smooth="yes"/>
      <point x="598" y="57"/>
      <point x="563" y="74"/>
      <point x="563" y="126" type="curve" smooth="yes"/>
      <point x="563" y="173"/>
      <point x="581" y="197"/>
      <point x="627" y="197" type="curve" smooth="yes"/>
      <point x="671" y="197" type="line"/>
      <point x="671" y="498" type="line"/>
      <point x="575" y="498" type="line"/>
      <point x="575" y="487" type="line" smooth="yes"/>
      <point x="575" y="446"/>
      <point x="551" y="425"/>
      <point x="499" y="425" type="curve" smooth="yes"/>
      <point x="463" y="425"/>
      <point x="428" y="429"/>
      <point x="391" y="437" type="curve"/>
      <point x="391" y="344" type="line"/>
      <point x="423" y="338"/>
      <point x="463" y="332"/>
      <point x="496" y="332" type="curve" smooth="yes"/>
      <point x="531" y="332"/>
      <point x="559" y="339"/>
      <point x="579" y="354" type="curve"/>
      <point x="579" y="264" type="line"/>
      <point x="505" y="259"/>
      <point x="465" y="210"/>
    </contour>
    <contour>
      <point x="320" y="219" type="curve"/>
      <point x="323" y="219" type="line"/>
      <point x="319" y="198"/>
      <point x="315" y="139"/>
      <point x="315" y="62" type="curve"/>
      <point x="315" y="0" type="line"/>
      <point x="410" y="0" type="line"/>
      <point x="410" y="575" type="line"/>
      <point x="744" y="575" type="line"/>
      <point x="744" y="660" type="line"/>
      <point x="-32" y="660" type="line"/>
      <point x="-32" y="575" type="line"/>
      <point x="310" y="575" type="line"/>
      <point x="310" y="485" type="line"/>
      <point x="297" y="489"/>
      <point x="264" y="497"/>
      <point x="214" y="497" type="curve" smooth="yes"/>
      <point x="88" y="497"/>
      <point x="35" y="437"/>
      <point x="35" y="336" type="curve" smooth="yes"/>
      <point x="35" y="270" type="line"/>
      <point x="131" y="270" type="line"/>
      <point x="131" y="331" type="line" smooth="yes"/>
      <point x="131" y="378"/>
      <point x="155" y="404"/>
      <point x="226" y="404" type="curve" smooth="yes"/>
      <point x="263" y="404"/>
      <point x="297" y="396"/>
      <point x="310" y="392" type="curve"/>
      <point x="310" y="322" type="line"/>
      <point x="33" y="29" type="line"/>
      <point x="33" y="25" type="line"/>
      <point x="158" y="25" type="line"/>
      <point x="250" y="125" type="line" smooth="yes"/>
      <point x="286" y="162"/>
      <point x="310" y="198"/>
    </contour>
  </outline>
</glyph>
<glyph name="dvvL" format="1">
  <advance width="633"/>
  <unicode hex="090C"/>
  <outline>
    <contour>
      <point x="574" y="101" type="curve"/>
      <point x="574" y="191" type="line"/>
      <point x="574" y="191"/>
      <point x="516" y="197"/>
      <point x="491" y="197" type="curve" smooth="yes"/>
      <point x="387" y="197"/>
      <point x="333" y="146"/>
      <point x="333" y="47" type="curve" smooth="yes"/>
      <point x="333" y="-52"/>
      <point x="392" y="-102"/>
      <point x="495" y="-102" type="curve" smooth="yes"/>
      <point x="533" y="-102"/>
      <point x="561" y="-96"/>
      <point x="576" y="-93" type="curve"/>
      <point x="576" y="-1" type="line"/>
      <point x="553" y="-4"/>
      <point x="531" y="-9"/>
      <point x="496" y="-9" type="curve" smooth="yes"/>
      <point x="460" y="-9"/>
      <point x="432" y="0"/>
      <point x="432" y="47" type="curve" smooth="yes"/>
      <point x="432" y="91"/>
      <point x="453" y="106"/>
      <point x="496" y="106" type="curve" smooth="yes"/>
      <point x="516" y="106"/>
      <point x="551" y="104"/>
    </contour>
    <contour>
      <point x="41" y="167" type="line"/>
      <point x="41" y="58"/>
      <point x="94" y="0"/>
      <point x="221" y="0" type="curve" smooth="yes"/>
      <point x="239" y="0"/>
      <point x="257" y="2"/>
      <point x="269" y="4" type="curve"/>
      <point x="269" y="95" type="line"/>
      <point x="257" y="93"/>
      <point x="239" y="92"/>
      <point x="223" y="92" type="curve" smooth="yes"/>
      <point x="155" y="92"/>
      <point x="141" y="126"/>
      <point x="141" y="170" type="curve" smooth="yes"/>
      <point x="141" y="338" type="line" smooth="yes"/>
      <point x="141" y="370"/>
      <point x="150" y="394"/>
      <point x="199" y="394" type="curve" smooth="yes"/>
      <point x="246" y="394"/>
      <point x="257" y="370"/>
      <point x="257" y="339" type="curve" smooth="yes"/>
      <point x="257" y="215" type="line"/>
      <point x="357" y="215" type="line"/>
      <point x="357" y="339" type="line" smooth="yes"/>
      <point x="357" y="370"/>
      <point x="373" y="394"/>
      <point x="420" y="394" type="curve" smooth="yes"/>
      <point x="440" y="394"/>
      <point x="459" y="391"/>
      <point x="474" y="384" type="curve"/>
      <point x="474" y="160" type="line"/>
      <point x="574" y="160" type="line"/>
      <point x="574" y="575" type="line"/>
      <point x="664" y="575" type="line"/>
      <point x="664" y="660" type="line"/>
      <point x="-32" y="660" type="line"/>
      <point x="-32" y="575" type="line"/>
      <point x="474" y="575" type="line"/>
      <point x="474" y="476" type="line"/>
      <point x="455" y="483"/>
      <point x="435" y="486"/>
      <point x="413" y="486" type="curve" smooth="yes"/>
      <point x="357" y="486"/>
      <point x="326" y="465"/>
      <point x="305" y="436" type="curve"/>
      <point x="290" y="462"/>
      <point x="256" y="486"/>
      <point x="196" y="486" type="curve" smooth="yes"/>
      <point x="93" y="486"/>
      <point x="41" y="432"/>
      <point x="41" y="341" type="curve" smooth="yes"/>
    </contour>
  </outline>
</glyph>
<glyph name="dvEcandra" format="1">
  <advance width="433"/>
  <unicode hex="090D"/>
  <outline>
    <contour>
      <point x="307" y="872" type="line"/>
      <point x="307" y="828"/>
      <point x="281" y="813"/>
      <point x="222" y="813" type="curve" smooth="yes"/>
      <point x="161" y="813"/>
      <point x="137" y="828"/>
      <point x="137" y="872" type="curve"/>
      <point x="38" y="872" type="line"/>
      <point x="38" y="869" type="line"/>
      <point x="38" y="768"/>
      <point x="102" y="726"/>
      <point x="222" y="726" type="curve" smooth="yes"/>
      <point x="341" y="726"/>
      <point x="405" y="768"/>
      <point x="405" y="869" type="curve"/>
      <point x="405" y="872" type="line"/>
    </contour>
    <contour>
      <point x="364" y="106" type="line"/>
      <point x="332" y="97"/>
      <point x="291" y="87"/>
      <point x="241" y="87" type="curve" smooth="yes"/>
      <point x="176" y="87"/>
      <point x="155" y="113"/>
      <point x="155" y="157" type="curve" smooth="yes"/>
      <point x="155" y="575" type="line"/>
      <point x="285" y="575" type="line"/>
      <point x="285" y="405" type="line" smooth="yes"/>
      <point x="285" y="371"/>
      <point x="276" y="353"/>
      <point x="236" y="353" type="curve" smooth="yes"/>
      <point x="234" y="353"/>
      <point x="225" y="353"/>
      <point x="223" y="353" type="curve"/>
      <point x="223" y="261" type="line"/>
      <point x="230" y="260"/>
      <point x="238" y="259"/>
      <point x="244" y="259" type="curve" smooth="yes"/>
      <point x="350" y="259"/>
      <point x="385" y="314"/>
      <point x="385" y="400" type="curve" smooth="yes"/>
      <point x="385" y="575" type="line"/>
      <point x="465" y="575" type="line"/>
      <point x="465" y="660" type="line"/>
      <point x="-32" y="660" type="line"/>
      <point x="-32" y="575" type="line"/>
      <point x="55" y="575" type="line"/>
      <point x="55" y="154" type="line" smooth="yes"/>
      <point x="55" y="49"/>
      <point x="112" y="-5"/>
      <point x="238" y="-5" type="curve" smooth="yes"/>
      <point x="292" y="-5"/>
      <point x="337" y="5"/>
      <point x="364" y="15" type="curve"/>
    </contour>
  </outline>
</glyph>
<glyph name="dvE" format="1">
  <advance width="433"/>
  <unicode hex="090F"/>
  <outline>
    <contour>
      <point x="366" y="106" type="line"/>
      <point x="334" y="97"/>
      <point x="294" y="87"/>
      <point x="243" y="87" type="curve" smooth="yes"/>
      <point x="176" y="87"/>
      <point x="155" y="113"/>
      <point x="155" y="159" type="curve" smooth="yes"/>
      <point x="155" y="575" type="line"/>
      <point x="285" y="575" type="line"/>
      <point x="285" y="405" type="line" smooth="yes"/>
      <point x="285" y="371"/>
      <point x="276" y="353"/>
      <point x="236" y="353" type="curve" smooth="yes"/>
      <point x="234" y="353"/>
      <point x="225" y="353"/>
      <point x="223" y="353" type="curve"/>
      <point x="223" y="261" type="line"/>
      <point x="230" y="260"/>
      <point x="238" y="259"/>
      <point x="244" y="259" type="curve" smooth="yes"/>
      <point x="350" y="259"/>
      <point x="385" y="314"/>
      <point x="385" y="400" type="curve" smooth="yes"/>
      <point x="385" y="575" type="line"/>
      <point x="465" y="575" type="line"/>
      <point x="465" y="660" type="line"/>
      <point x="-32" y="660" type="line"/>
      <point x="-32" y="575" type="line"/>
      <point x="55" y="575" type="line"/>
      <point x="55" y="157" type="line" smooth="yes"/>
      <point x="55" y="47"/>
      <point x="113" y="-5"/>
      <point x="241" y="-5" type="curve" smooth="yes"/>
      <point x="295" y="-5"/>
      <point x="339" y="5"/>
      <point x="366" y="15" type="curve"/>
    </contour>
  </outline>
</glyph>
<glyph name="dvAI" format="1">
  <advance width="433"/>
  <unicode hex="0910"/>
  <outline>
    <contour>
      <point x="280" y="660" type="line"/>
      <point x="382" y="660" type="line"/>
      <point x="227" y="889" type="line"/>
      <point x="115" y="889" type="line"/>
    </contour>
    <contour>
      <point x="364" y="106" type="line"/>
      <point x="332" y="97"/>
      <point x="291" y="87"/>
      <point x="241" y="87" type="curve" smooth="yes"/>
      <point x="176" y="87"/>
      <point x="155" y="113"/>
      <point x="155" y="157" type="curve" smooth="yes"/>
      <point x="155" y="575" type="line"/>
      <point x="285" y="575" type="line"/>
      <point x="285" y="405" type="line" smooth="yes"/>
      <point x="285" y="371"/>
      <point x="276" y="353"/>
      <point x="236" y="353" type="curve" smooth="yes"/>
      <point x="234" y="353"/>
      <point x="225" y="353"/>
      <point x="223" y="353" type="curve"/>
      <point x="223" y="261" type="line"/>
      <point x="230" y="260"/>
      <point x="238" y="259"/>
      <point x="244" y="259" type="curve" smooth="yes"/>
      <point x="350" y="259"/>
      <point x="385" y="314"/>
      <point x="385" y="400" type="curve" smooth="yes"/>
      <point x="385" y="575" type="line"/>
      <point x="465" y="575" type="line"/>
      <point x="465" y="660" type="line"/>
      <point x="-32" y="660" type="line"/>
      <point x="-32" y="575" type="line"/>
      <point x="55" y="575" type="line"/>
      <point x="55" y="154" type="line" smooth="yes"/>
      <point x="55" y="49"/>
      <point x="112" y="-5"/>
      <point x="238" y="-5" type="curve" smooth="yes"/>
      <point x="292" y="-5"/>
      <point x="337" y="5"/>
      <point x="364" y="15" type="curve"/>
    </contour>
  </outline>
</glyph>
<glyph name="dvOcandra" format="1">
  <advance width="813"/>
  <unicode hex="0911"/>
  <outline>
    <contour>
      <point x="655" y="575" type="line"/>
      <point x="655" y="0" type="line"/>
      <point x="755" y="0" type="line"/>
      <point x="755" y="575" type="line"/>
      <point x="844" y="575" type="line"/>
      <point x="844" y="660" type="line"/>
      <point x="565" y="660" type="line"/>
      <point x="565" y="575" type="line"/>
    </contour>
    <contour>
      <point x="686" y="869" type="line"/>
      <point x="686" y="825"/>
      <point x="661" y="810"/>
      <point x="602" y="810" type="curve" smooth="yes"/>
      <point x="541" y="810"/>
      <point x="517" y="825"/>
      <point x="517" y="869" type="curve"/>
      <point x="419" y="869" type="line"/>
      <point x="419" y="866" type="line"/>
      <point x="419" y="765"/>
      <point x="483" y="723"/>
      <point x="602" y="723" type="curve" smooth="yes"/>
      <point x="722" y="723"/>
      <point x="785" y="764"/>
      <point x="785" y="866" type="curve"/>
      <point x="785" y="869" type="line"/>
    </contour>
    <component base="dvA" xOffset="13"/>
  </outline>
</glyph>
<glyph name="dvKA" format="1">
  <advance width="606"/>
  <unicode hex="0915"/>
  <outline>
    <contour>
      <point x="352" y="660" type="move" name="abvm.bindu"/>
    </contour>
    <contour>
      <point x="352" y="0" type="move" name="blwm.virama"/>
    </contour>
    <contour>
      <point x="352" y="660" type="move" name="abvm.e"/>
    </contour>
    <contour>
      <point x="352" y="0" type="move" name="blwm.u"/>
    </contour>
    <contour>
      <point x="255" y="575" type="line"/>
      <point x="-32" y="575" type="line"/>
      <point x="-32" y="660" type="line"/>
      <point x="637" y="660" type="line"/>
      <point x="637" y="575" type="line"/>
      <point x="352" y="575" type="line"/>
      <point x="352" y="497" type="line"/>
      <point x="361" y="500"/>
      <point x="386" y="505"/>
      <point x="418" y="505" type="curve" smooth="yes"/>
      <point x="520" y="505"/>
      <point x="566" y="456"/>
      <point x="566" y="365" type="curve" smooth="yes"/>
      <point x="566" y="206" type="line" smooth="yes"/>
      <point x="566" y="120"/>
      <point x="529" y="67"/>
      <point x="429" y="67" type="curve" smooth="yes"/>
      <point x="420" y="67"/>
      <point x="410" y="68"/>
      <point x="407" y="68" type="curve"/>
      <point x="407" y="162" type="line"/>
      <point x="410" y="161"/>
      <point x="416" y="161"/>
      <point x="422" y="161" type="curve" smooth="yes"/>
      <point x="462" y="161"/>
      <point x="470" y="180"/>
      <point x="470" y="214" type="curve" smooth="yes"/>
      <point x="470" y="362" type="line" smooth="yes"/>
      <point x="470" y="395"/>
      <point x="457" y="418"/>
      <point x="407" y="418" type="curve" smooth="yes"/>
      <point x="386" y="418"/>
      <point x="363" y="414"/>
      <point x="352" y="411" type="curve"/>
      <point x="352" y="0" type="line"/>
      <point x="254" y="0" type="line"/>
      <point x="254" y="69" type="line"/>
      <point x="246" y="67"/>
      <point x="218" y="60"/>
      <point x="186" y="60" type="curve" smooth="yes"/>
      <point x="85" y="60"/>
      <point x="38" y="106"/>
      <point x="38" y="197" type="curve" smooth="yes"/>
      <point x="38" y="364" type="line" smooth="yes"/>
      <point x="38" y="456"/>
      <point x="85" y="505"/>
      <point x="186" y="505" type="curve" smooth="yes"/>
      <point x="199" y="505"/>
      <point x="212" y="502"/>
      <point x="216" y="502" type="curve"/>
      <point x="216" y="416" type="line"/>
      <point x="212" y="416"/>
      <point x="204" y="417"/>
      <point x="197" y="417" type="curve" smooth="yes"/>
      <point x="148" y="417"/>
      <point x="134" y="395"/>
      <point x="134" y="361" type="curve" smooth="yes"/>
      <point x="134" y="200" type="line" smooth="yes"/>
      <point x="134" y="167"/>
      <point x="148" y="145"/>
      <point x="197" y="145" type="curve" smooth="yes"/>
      <point x="225" y="145"/>
      <point x="246" y="151"/>
      <point x="255" y="153" type="curve"/>
    </contour>
  </outline>
</glyph>
<glyph name="dvKHA" format="1">
  <advance width="760"/>
  <unicode hex="0916"/>
  <outline>
    <contour>
      <point x="136" y="446" type="line"/>
      <point x="40" y="446" type="line"/>
      <point x="40" y="184" type="line" smooth="yes"/>
      <point x="40" y="63"/>
      <point x="118" y="-5"/>
      <point x="261" y="-5" type="curve" smooth="yes"/>
      <point x="307" y="-5"/>
      <point x="361" y="2"/>
      <point x="397" y="13" type="curve"/>
      <point x="397" y="107" type="line"/>
      <point x="363" y="95"/>
      <point x="319" y="87"/>
      <point x="268" y="87" type="curve" smooth="yes"/>
      <point x="180" y="87"/>
      <point x="136" y="118"/>
      <point x="136" y="185" type="curve" smooth="yes"/>
    </contour>
    <contour>
      <point x="116" y="253" type="line"/>
      <point x="136" y="248"/>
      <point x="164" y="243"/>
      <point x="193" y="243" type="curve"/>
      <point x="298" y="243"/>
      <point x="344" y="295"/>
      <point x="344" y="395" type="curve" smooth="yes"/>
      <point x="344" y="516" type="line" smooth="yes"/>
      <point x="344" y="555"/>
      <point x="335" y="575"/>
      <point x="335" y="575" type="curve"/>
      <point x="435" y="575" type="line"/>
      <point x="435" y="660" type="line"/>
      <point x="-32" y="660" type="line"/>
      <point x="-32" y="575" type="line"/>
      <point x="239" y="575" type="line"/>
      <point x="239" y="575"/>
      <point x="251" y="556"/>
      <point x="251" y="516" type="curve" smooth="yes"/>
      <point x="251" y="396" type="line"/>
      <point x="251" y="357"/>
      <point x="236" y="332"/>
      <point x="187" y="332" type="curve"/>
      <point x="161" y="332"/>
      <point x="137" y="336"/>
      <point x="116" y="339" type="curve"/>
    </contour>
    <contour>
      <point x="390" y="356" type="curve"/>
      <point x="390" y="254" type="line"/>
      <point x="390" y="163"/>
      <point x="428" y="114"/>
      <point x="537" y="114" type="curve"/>
      <point x="571" y="114"/>
      <point x="592" y="118"/>
      <point x="603" y="121" type="curve"/>
      <point x="603" y="0" type="line"/>
      <point x="701" y="0" type="line"/>
      <point x="701" y="575" type="line"/>
      <point x="791" y="575" type="line"/>
      <point x="791" y="660" type="line"/>
      <point x="382" y="660" type="line"/>
      <point x="382" y="575" type="line"/>
      <point x="603" y="575" type="line"/>
      <point x="603" y="492" type="line"/>
      <point x="591" y="495"/>
      <point x="564" y="499"/>
      <point x="533" y="499" type="curve"/>
      <point x="424" y="499"/>
      <point x="390" y="448"/>
    </contour>
    <contour>
      <point x="603" y="206" type="line"/>
      <point x="596" y="204"/>
      <point x="573" y="199"/>
      <point x="544" y="199" type="curve"/>
      <point x="494" y="199"/>
      <point x="482" y="221"/>
      <point x="482" y="254" type="curve" smooth="yes"/>
      <point x="482" y="357" type="line" smooth="yes"/>
      <point x="482" y="390"/>
      <point x="494" y="412"/>
      <point x="544" y="412" type="curve" smooth="yes"/>
      <point x="571" y="412"/>
      <point x="592" y="407"/>
      <point x="603" y="404" type="curve"/>
    </contour>
  </outline>
</glyph>
<glyph name="dvGHA" format="1">
  <advance width="498"/>
  <unicode hex="0918"/>
  <outline>
    <contour>
      <point x="529" y="660" type="line"/>
      <point x="-32" y="660" type="line"/>
      <point x="-32" y="575" type="line"/>
      <point x="63" y="575" type="line"/>
      <point x="63" y="575"/>
      <point x="56" y="555"/>
      <point x="56" y="516" type="curve"/>
      <point x="56" y="459" type="line" smooth="yes"/>
      <point x="56" y="414"/>
      <point x="67" y="381"/>
      <point x="102" y="363" type="curve"/>
      <point x="65" y="348"/>
      <point x="50" y="314"/>
      <point x="50" y="264" type="curve" smooth="yes"/>
      <point x="50" y="213" type="line" smooth="yes"/>
      <point x="50" y="116"/>
      <point x="117" y="60"/>
      <point x="236" y="60" type="curve"/>
      <point x="279" y="60"/>
      <point x="312" y="66"/>
      <point x="340" y="72" type="curve"/>
      <point x="340" y="0" type="line"/>
      <point x="440" y="0" type="line"/>
      <point x="440" y="575" type="line"/>
      <point x="529" y="575" type="line"/>
    </contour>
    <contour>
      <point x="340" y="575" type="line"/>
      <point x="340" y="162" type="line"/>
      <point x="317" y="155"/>
      <point x="283" y="150"/>
      <point x="248" y="150" type="curve"/>
      <point x="186" y="150"/>
      <point x="150" y="168"/>
      <point x="150" y="224" type="curve" smooth="yes"/>
      <point x="150" y="261" type="line" smooth="yes"/>
      <point x="150" y="294"/>
      <point x="162" y="315"/>
      <point x="213" y="315" type="curve"/>
      <point x="256" y="315" type="line"/>
      <point x="256" y="408" type="line"/>
      <point x="217" y="408" type="line" smooth="yes"/>
      <point x="166" y="408"/>
      <point x="156" y="430"/>
      <point x="156" y="462" type="curve" smooth="yes"/>
      <point x="156" y="516" type="line"/>
      <point x="156" y="556"/>
      <point x="165" y="575"/>
      <point x="165" y="575" type="curve"/>
    </contour>
  </outline>
</glyph>
<glyph name="dvNGA" format="1">
  <advance width="498"/>
  <unicode hex="0919"/>
  <outline>
    <contour>
      <point x="355" y="660" type="move" name="abvm.bindu"/>
    </contour>
    <contour>
      <point x="263" y="-5" type="move" name="blwm.virama"/>
    </contour>
    <contour>
      <point x="355" y="660" type="move" name="abvm.e"/>
    </contour>
    <contour>
      <point x="269" y="-58" type="move" name="blwm.u"/>
    </contour>
    <contour>
      <point x="384" y="166" type="line"/>
      <point x="384" y="257"/>
      <point x="333" y="301"/>
      <point x="222" y="301" type="curve" smooth="yes"/>
      <point x="200" y="301" type="line" smooth="yes"/>
      <point x="155" y="301"/>
      <point x="144" y="320"/>
      <point x="144" y="350" type="curve" smooth="yes"/>
      <point x="144" y="369" type="line" smooth="yes"/>
      <point x="144" y="398"/>
      <point x="156" y="417"/>
      <point x="200" y="417" type="curve" smooth="yes"/>
      <point x="355" y="417" type="line"/>
      <point x="355" y="575" type="line"/>
      <point x="529" y="575" type="line"/>
      <point x="529" y="660" type="line"/>
      <point x="-32" y="660" type="line"/>
      <point x="-32" y="575" type="line"/>
      <point x="255" y="575" type="line"/>
      <point x="255" y="504" type="line"/>
      <point x="200" y="504" type="line" smooth="yes"/>
      <point x="95" y="504"/>
      <point x="43" y="465"/>
      <point x="43" y="374" type="curve" smooth="yes"/>
      <point x="43" y="346" type="line" smooth="yes"/>
      <point x="43" y="254"/>
      <point x="98" y="215"/>
      <point x="200" y="215" type="curve" smooth="yes"/>
      <point x="222" y="215" type="line" smooth="yes"/>
      <point x="273" y="215"/>
      <point x="284" y="194"/>
      <point x="284" y="164" type="curve" smooth="yes"/>
      <point x="284" y="139" type="line" smooth="yes"/>
      <point x="284" y="94"/>
      <point x="251" y="83"/>
      <point x="194" y="83" type="curve" smooth="yes"/>
      <point x="144" y="83"/>
      <point x="93" y="90"/>
      <point x="53" y="99" type="curve"/>
      <point x="53" y="8" type="line"/>
      <point x="94" y="-1"/>
      <point x="137" y="-8"/>
      <point x="194" y="-8" type="curve" smooth="yes"/>
      <point x="322" y="-8"/>
      <point x="384" y="40"/>
      <point x="384" y="139" type="curve"/>
    </contour>
    <contour>
      <point x="380" y="337" type="curve" smooth="yes"/>
      <point x="380" y="305"/>
      <point x="394" y="280"/>
      <point x="438" y="280" type="curve" smooth="yes"/>
      <point x="482" y="280"/>
      <point x="495" y="305"/>
      <point x="495" y="337" type="curve" smooth="yes"/>
      <point x="495" y="370"/>
      <point x="482" y="395"/>
      <point x="438" y="395" type="curve" smooth="yes"/>
      <point x="394" y="395"/>
      <point x="380" y="370"/>
    </contour>
  </outline>
</glyph>
<glyph name="dvCA" format="1">
  <advance width="475"/>
  <unicode hex="091A"/>
  <outline>
    <contour>
      <point x="179" y="327" type="line"/>
      <point x="179" y="378"/>
      <point x="189" y="400"/>
      <point x="189" y="400" type="curve"/>
      <point x="271" y="400" type="line"/>
      <point x="271" y="486" type="line"/>
      <point x="13" y="486" type="line"/>
      <point x="13" y="396" type="line"/>
      <point x="86" y="396" type="line"/>
      <point x="86" y="396"/>
      <point x="79" y="372"/>
      <point x="79" y="328" type="curve"/>
      <point x="79" y="206" type="line"/>
      <point x="79" y="108"/>
      <point x="127" y="58"/>
      <point x="235" y="58" type="curve"/>
      <point x="266" y="58"/>
      <point x="295" y="62"/>
      <point x="317" y="69" type="curve"/>
      <point x="317" y="0" type="line"/>
      <point x="417" y="0" type="line"/>
      <point x="417" y="575" type="line"/>
      <point x="506" y="575" type="line"/>
      <point x="506" y="660" type="line"/>
      <point x="-32" y="660" type="line"/>
      <point x="-32" y="575" type="line"/>
      <point x="317" y="575" type="line"/>
      <point x="317" y="157" type="line"/>
      <point x="296" y="150"/>
      <point x="277" y="147"/>
      <point x="251" y="147" type="curve"/>
      <point x="201" y="147"/>
      <point x="179" y="166"/>
      <point x="179" y="208" type="curve" smooth="yes"/>
    </contour>
  </outline>
</glyph>
